<?xml version="1.0" encoding="UTF-8"?>
<svg width="176px" height="60px" viewBox="0 0 176 60" version="1.1" xmlns="http://www.w3.org/2000/svg" xmlns:xlink="http://www.w3.org/1999/xlink">
    <!-- Generator: Sketch 56 (81588) - https://sketch.com -->
    <title>画板备份 5</title>
    <desc>Created with Sketch.</desc>
    <defs>
        <polygon id="path-1" points="0 0.0217335351 10.4004634 0.0217335351 10.4004634 11.7403456 0 11.7403456"></polygon>
        <polygon id="path-3" points="0 47.2105469 97.4009538 47.2105469 97.4009538 9.79591837e-05 0 9.79591837e-05"></polygon>
        <polygon id="path-5" points="0 47.2105469 97.4009538 47.2105469 97.4009538 9.79591837e-05 0 9.79591837e-05"></polygon>
        <polygon id="path-7" points="0 47.2105469 97.4009538 47.2105469 97.4009538 9.79591837e-05 0 9.79591837e-05"></polygon>
        <polygon id="path-9" points="0 47.2105469 97.4009538 47.2105469 97.4009538 9.79591837e-05 0 9.79591837e-05"></polygon>
        <polygon id="path-11" points="0 47.2105469 97.4009538 47.2105469 97.4009538 9.79591837e-05 0 9.79591837e-05"></polygon>
        <polygon id="path-13" points="0 47.2105469 97.4009538 47.2105469 97.4009538 9.79591837e-05 0 9.79591837e-05"></polygon>
        <polygon id="path-15" points="0 47.2105469 97.4009538 47.2105469 97.4009538 9.79591837e-05 0 9.79591837e-05"></polygon>
        <polygon id="path-17" points="0 47.2105469 97.4009538 47.2105469 97.4009538 9.79591837e-05 0 9.79591837e-05"></polygon>
        <polygon id="path-19" points="0 47.2105469 97.4009538 47.2105469 97.4009538 9.79591837e-05 0 9.79591837e-05"></polygon>
        <polygon id="path-21" points="0 47.2105469 97.4009538 47.2105469 97.4009538 9.79591837e-05 0 9.79591837e-05"></polygon>
        <polygon id="path-23" points="0 47.2105469 97.4009538 47.2105469 97.4009538 9.79591837e-05 0 9.79591837e-05"></polygon>
    </defs>
    <g id="画板备份-5" stroke="none" stroke-width="1" fill="none" fill-rule="evenodd">
        <g id="acg" transform="translate(39.000000, 6.000000)">
            <path d="M68.0951959,1.05378197 C68.7055701,1.3975759 69.3159443,1.74234376 69.9253542,2.08613769 C70.1452046,2.51855839 70.8076487,2.64029845 70.741115,3.27334676 C70.0555288,4.11189231 69.2272327,4.83356739 68.6795352,5.78606163 C68.3381884,6.38112705 67.9602,6.09479442 67.5851043,5.85326214 C65.1744637,4.30278072 62.5883285,4.11676191 59.896125,4.86862853 C53.6448518,6.61389404 51.316173,14.9487056 55.5675788,19.8855086 C58.729375,23.5581627 64.2246713,24.142515 67.7287785,21.7008963 C68.2051211,21.3678155 68.6409649,21.276267 68.8762434,21.8567236 C69.2638744,22.8189571 70.0603501,23.4013615 70.744972,24.081158 C71.166352,24.4999438 71.2261359,24.718102 70.6929022,25.0784526 C66.4144972,27.9729443 61.9065993,28.5124962 57.1460662,26.4516805 C50.8398304,23.7217814 47.2421904,16.5069784 49.7039366,9.2736709 C51.1763558,4.94556824 54.2465477,2.00335445 58.6406634,0.589221896 C59.1063992,0.440212061 59.6473469,0.442159902 59.9915864,0 L64.4560928,0 C65.0500747,0.196731939 65.7154115,0.0759657982 66.2775729,0.414890128 L66.2795014,0.415864049 C66.917839,0.531760587 67.5330345,0.714857639 68.0951959,1.05378197" id="Fill-1" fill="#D3AD41" fill-rule="nonzero"></path>
            <path d="M81.6069316,21.0600847 C77.5230758,21.0482343 74.2176478,17.6759095 74.2301013,13.5344236 C74.2417328,9.42338981 77.6839638,5.95577946 81.6734063,6.03141855 C85.807359,6.11098695 89.0357149,9.43026609 89.0261238,13.5923808 C89.0164469,17.7603895 85.7264333,21.0718101 81.6069316,21.0600847 M94.3392361,7.73968326 C95.214004,7.23869706 96.1976362,6.89979463 96.9230769,6.1434037 L96.9230769,5.93711527 C95.3999403,4.65026837 94.1937626,3.0913172 93.2515566,1.33197155 C92.9461586,0.761240211 92.7958681,0.839826282 92.4317026,1.24945617 C91.685067,2.09032713 90.8902614,2.88797574 90.1137604,3.70330622 C89.9047024,3.92236489 89.7659727,4.11293611 89.3854294,3.84279649 C86.1618904,1.55103022 82.617539,1.01173331 78.788021,1.77696517 C68.624143,3.80743276 67.3707586,14.6886565 71.2821657,20.5688592 C72.4074178,22.2594421 74.0066631,23.3783112 75.8467585,24.4058241 C74.4517542,24.8056307 73.2619543,25.3056346 72.2214814,26.1278414 C71.0991196,27.0138993 70.3322526,28.0640057 70.4777261,29.6209922 C70.7041252,32.0267083 71.862133,33.4530455 74.1694778,34.045388 C76.448884,34.6288895 78.7176928,34.3852727 80.987465,33.9373321 C83.1772749,33.5051087 85.369975,33.0964612 87.5848334,33.8292763 C88.9846547,34.2919518 89.9162632,35.1632748 90.141699,36.7015971 C90.3526837,38.1426692 89.7765701,39.2409095 88.7033416,40.1191089 C88.2014098,40.5297211 87.6599786,40.8951463 87.0472557,41.0945585 C83.5530012,42.2320918 80.069344,42.5366129 76.6415641,40.8381714 C76.4122747,40.7252039 76.2581306,40.6692114 76.0028294,40.8028077 C73.9671636,41.8607727 71.7869877,42.4560621 69.3977538,42.8087171 C71.3120311,44.2753297 73.2677347,45.3057895 75.3843261,46.0356576 C76.8535123,46.5425378 78.3901365,46.7281974 79.8930417,47.0769231 L84.3535872,47.0769231 C86.165744,46.9217156 87.9663401,46.696763 89.6330234,45.8843795 C92.6388337,44.4177669 95.1600535,42.4540975 95.8045686,38.8735197 C96.3989869,35.5758517 95.7197894,32.5944926 93.0290111,30.4235525 C90.5935339,28.4579184 87.6975512,28.022748 84.6907775,28.2771704 C83.1454827,28.4068374 81.6146389,28.7123408 80.0760878,28.9264878 C78.7812772,29.1072358 77.472979,29.3803224 76.1589003,28.9942683 C75.7561988,28.8763892 75.3419365,28.764404 75.2436696,28.2948523 C75.1309517,27.763414 75.5047512,27.4765748 75.8891481,27.2368873 C76.4758592,26.8714621 77.1357887,26.711343 77.7966816,26.5659587 C79.749495,26.1337353 81.7514418,26.1258767 83.7225597,25.8498432 C87.6060282,25.3085816 90.6686792,23.4392155 92.6725528,19.9755344 C94.6244027,16.6002627 94.738084,12.9764625 93.7120622,9.29077582 C93.4895166,8.4891979 93.6561849,8.13163128 94.3392361,7.73968326" id="Fill-3" fill="#6A293F" fill-rule="nonzero"></path>
            <path d="M40.9452646,19.4334392 C37.690875,22.4994406 33.2594288,22.623751 29.7755379,19.6917719 C29.6287751,18.9303702 28.9501207,18.6079399 28.4576283,18.1320639 C27.573112,16.7306575 27.0481152,15.2447589 27.0825896,13.5549133 C27.1604034,9.77218436 30.3527389,6.21573933 34.0681013,5.8505773 C38.4355235,5.42228886 42.1971801,7.96482658 43.1398105,11.8796354 C43.8509695,14.8368651 43.1013961,17.4017399 40.9452646,19.4334392 M47.1615031,14.7834504 C46.9270767,11.0716173 48.0952686,7.82886199 50.4690818,4.97943279 C50.7212379,4.67739718 50.9950636,4.4258627 50.4680968,4.10925946 C49.4338628,3.48867825 48.5355568,2.70202602 47.6933948,1.84544914 C47.3023559,1.44629597 46.9812509,1.42298776 46.7241699,2.05425189 C46.3183562,3.05456276 45.9480019,4.08400889 45.1787289,4.98623102 C44.1602547,3.86646556 42.9201589,3.08661155 41.5697449,2.4679727 C36.7649894,0.268259971 32.085327,0.297395239 27.6341811,3.33523251 C24.9786623,5.14744617 23.3406327,7.69289741 22.4974858,10.749187 C21.9912036,12.65172 22.1330414,14.570763 22.3605729,16.489806 C22.4285369,17.0608572 22.5053657,17.6338508 22.9023145,18.1000151 C23.7809209,20.3133243 25.1047403,22.2003185 26.9781813,23.724093 C29.6632496,25.9092381 32.798456,26.6638415 36.1897583,26.6686974 C36.8861425,26.9445113 37.4633436,26.5939169 38.0553194,26.3239301 C40.465577,25.8189188 42.6187536,24.8118097 44.4232456,23.1345894 C44.8989932,22.6917333 45.3136718,22.3518219 45.685011,23.2453034 C45.9982361,23.9979645 46.3991249,24.7137209 46.7290948,25.460555 C46.9970107,26.0665685 47.3378154,26.0335486 47.7229444,25.6072025 C48.3720493,24.8904749 49.0871482,24.2359025 49.9342351,23.7813923 C50.7566973,23.3404786 50.6601688,22.9918266 50.1282771,22.3547354 C48.3001454,20.1627921 47.3407703,17.6212255 47.1615031,14.7834504" id="Fill-5" fill="#FE7828" fill-rule="nonzero"></path>
            <path d="M26.8476816,39.5262338 C28.7642364,38.2883101 30.6661684,37.028115 32.6051448,35.8235985 C33.155935,35.4821023 33.3089864,35.0607999 33.1959038,34.5272121 C33.0633242,33.9054663 32.5105844,34.2488185 32.1801103,34.2451066 C29.4144612,34.2098434 26.6488122,34.2339708 23.8831631,34.2098434 C23.3226245,34.2042755 23.1081575,34.3286247 23.1062078,34.9076834 C23.105233,35.4867422 23.3235993,35.6444986 23.8802386,35.6073794 C24.3900851,35.5739722 24.9038309,35.6008836 25.4156271,35.6008836 L29.8336467,35.6008836 C29.6747461,35.9191803 29.4934241,36.0490973 29.305278,36.1697346 C27.3906729,37.4095142 25.4867912,38.6669255 23.5497645,39.8742259 C22.9356091,40.2556252 23.066239,40.7780772 23.1471515,41.2513464 C23.2251395,41.706984 23.715489,41.4833411 24.0098936,41.4851971 C26.8106373,41.4954048 29.6104061,41.4619976 32.4101748,41.486125 C33.0379781,41.4916929 33.214426,41.3283686 33.227099,40.7251824 C33.2397721,40.0765253 32.909298,40.0830211 32.4169988,40.086733 C30.383462,40.1034367 28.3489503,40.0932289 26.286168,40.0932289 C26.3602566,39.739669 26.6351643,39.6626467 26.8476816,39.5262338" id="Fill-7" fill="#333333" fill-rule="nonzero"></path>
            <path d="M55.8098228,40.1310189 C55.4168189,40.0841371 55.3487794,39.8103474 55.1944213,39.5440589 C54.5414458,38.4217088 54.3484981,37.3284255 55.0329546,36.1301269 C55.4422067,35.4165861 55.6585112,34.608344 55.9712896,33.8469838 C56.0464376,33.6650824 56.2038423,33.4878693 56.003786,33.3125314 C55.7417834,33.0781224 54.5404303,33.3894175 54.3809945,33.7204029 C54.051968,34.4058147 53.943308,35.1812395 53.4436751,35.8788405 C52.6668068,33.9998184 52.6668068,33.9998184 51.0988531,34.2004725 C51.5243535,35.2140568 51.9407143,36.2117012 52.3611371,37.2074705 C52.7937461,38.233244 52.1519412,39.7962829 51.0643256,40.2585373 C50.5718013,40.4676301 50.8591918,40.8192435 50.7972455,41.1033472 C50.7342836,41.3958895 50.9252002,41.4952789 51.2257924,41.5196575 C52.1448326,41.5946683 52.9328715,41.4812144 53.2385412,40.5098237 C53.3248599,40.2332212 53.3614184,39.9256766 53.654902,39.7015817 C53.7879343,40.0025628 53.9301063,40.2913546 54.0448594,40.5885851 C54.2926448,41.2327409 54.7699364,41.5402855 55.5102462,41.454023 C55.7874815,41.4212057 56.254618,41.6199845 56.2343077,41.1408526 C56.2180595,40.7873639 56.5866911,40.2229072 55.8098228,40.1310189" id="Fill-9" fill="#333333" fill-rule="nonzero"></path>
            <path d="M23.786319,32.985323 C24.3053516,32.8793589 24.4218891,33.1777884 24.4062202,33.6913899 C24.3856548,34.3358247 24.8655151,34.1141651 25.1563693,34.1174089 C25.4521199,34.1206527 25.9623388,34.3293371 25.9231666,33.7108527 C25.8751805,32.9582913 26.2345861,32.9507225 26.7242396,32.9809979 C27.2021413,33.0091109 27.682981,32.9864043 28.1628414,32.9885668 C28.7798047,32.9896481 29.396768,32.9896481 30.0127521,32.9896481 C30.2526822,32.9896481 30.5396192,32.9539663 30.4916331,33.3616037 C30.4142679,34.0179323 30.7266668,34.1163276 31.2172995,34.0806458 C31.6609255,34.0482078 32.1574341,34.1768785 32.0810482,33.3745789 C32.0438345,32.9842417 32.3141232,32.9572101 32.5599292,32.9972169 C33.136741,33.0923684 33.2317338,32.7712323 33.2307692,32.2197864 C33.2297751,31.6510403 33.1866856,31.2498905 32.5325087,31.3828863 C32.1584134,31.4585749 32.137848,31.1731206 32.0477518,30.8541471 C31.9175039,30.3967714 30.5719363,30.3178389 30.5503915,30.7298014 C30.5014262,31.6521216 29.952035,31.3634235 29.5377882,31.3731549 C28.5437918,31.3969428 27.5497953,31.3915364 26.5567781,31.3720736 C26.3285996,31.3677486 25.9486285,31.5667016 25.9496078,31.048775 C25.9515665,30.4378595 25.5627816,30.5276046 25.2347138,30.5438236 C24.893915,30.5611239 24.4228684,30.354602 24.376841,31.0217433 C24.3425653,31.511557 24.0056837,31.3969428 23.7657535,31.3688298 C23.2114658,31.3028726 23.068487,31.5558889 23.0773008,32.1419353 C23.0870938,32.7182502 23.1350799,33.1183188 23.786319,32.985323" id="Fill-11" fill="#333333" fill-rule="nonzero"></path>
            <path d="M20.3236326,35.6848729 C20.8505803,35.7751594 21.2279125,35.7127272 21.2307692,34.9299235 C21.2335583,34.1528827 20.8844555,34.1375148 20.3368063,34.1586457 C19.7119969,34.1836186 19.0853056,34.1644087 18.4586142,34.1653691 C17.7340612,34.1653691 17.0085671,34.1826581 16.284955,34.1596062 C15.8690427,34.1461592 15.7241321,34.2777471 15.6987257,34.7282195 C15.6610866,35.4197761 15.7683581,35.758831 16.5813631,35.7165692 C17.8479195,35.650295 17.8507424,35.7136877 17.8498014,37.0430134 C17.8498014,37.9852593 17.86768,38.9265448 17.8403917,39.8678303 C17.8290999,40.2942903 17.9843613,40.7399601 17.4912888,41.1126324 C17.2908605,41.2653511 17.3012113,41.908883 17.4254204,42.2498589 C17.5543344,42.6014002 18.0144726,42.4112221 18.3231134,42.4016172 C19.0109683,42.3785653 19.1784624,41.8935151 19.1775214,41.290324 C19.1756395,39.8111611 19.2452718,38.3262352 19.153056,36.8528353 C19.0918924,35.87313 19.3723039,35.5235096 20.3236326,35.6848729" id="Fill-13" fill="#333333" fill-rule="nonzero"></path>
            <path d="M51.1061203,34.0144584 C51.5819572,34.2733443 52.3036258,34.1736938 52.4787675,33.6980422 C52.8828597,32.6059956 53.6920991,32.6666077 54.3673445,32.7395478 C54.7978134,32.7395478 55.0193783,32.7436571 55.2409432,32.7385205 C55.7558178,32.7272199 56.3150054,32.9275483 56.3076199,32.0091196 C56.2991794,31.0958275 55.743157,31.2766368 55.2166766,31.2684182 C54.8094192,31.2622542 54.4021618,31.2889647 53.9980697,31.2591722 C53.7765048,31.242735 53.3692474,31.4358722 53.3671373,31.0619258 C53.362917,30.1157593 52.6602397,30.5903836 52.2603678,30.5164161 C51.6294354,30.4003284 51.6937948,30.9704939 51.6146644,31.3012926 C51.4901661,31.8272831 51.3646126,32.3090986 51.0269899,32.7755042 C50.7874888,33.1063029 50.5595935,33.7165341 51.1061203,34.0144584" id="Fill-15" fill="#333333" fill-rule="nonzero"></path>
            <path d="M16.5900484,32.2981383 C17.1827599,32.2642624 17.7773591,32.2908792 18.3710144,32.2896694 C19.0307363,32.2896694 19.6923458,32.2582132 20.3501801,32.2993482 C20.9041955,32.3344339 21.2326407,32.300558 21.2307692,31.3447742 C21.2279217,30.4228662 20.8957012,30.4555322 20.3973705,30.4640012 C19.11096,30.4869884 17.8245495,30.4881982 16.5371951,30.4640012 C16.0350892,30.4543223 15.7009811,30.4301253 15.6924868,31.3471939 C15.6830488,32.3271748 16.0473587,32.3283847 16.5900484,32.2981383" id="Fill-17" fill="#333333" fill-rule="nonzero"></path>
            <path d="M17.2322108,36.0422675 C16.9691947,36.0853399 16.5603478,35.8053692 16.4674675,36.2875929 C16.1766741,37.7829544 16.3962882,39.375697 15.6923077,40.7118779 C15.8277219,41.0592662 15.5369285,41.5274445 16.0690371,41.5311899 C16.478752,41.533999 16.9500978,41.6388709 17.0238812,40.9497125 C17.1827325,39.4627782 17.3606808,37.9777166 17.5290805,36.4907823 C17.5559898,36.2482659 17.5438372,35.9917042 17.2322108,36.0422675" id="Fill-19" fill="#333333" fill-rule="nonzero"></path>
            <path d="M21.5939734,38.9009393 C21.5191442,38.1778326 21.4794758,37.4490544 21.4569369,36.7221667 C21.442512,36.2552194 21.330719,35.99906 20.806915,36 C20.2461471,36 20.2984373,36.341236 20.3191731,36.7174405 C20.3263856,36.8497738 20.3200747,36.9821071 20.3200747,37.0038475 C20.333598,37.2808021 20.3372043,37.4462187 20.3507276,37.61069 C20.4300645,38.6334371 20.4895672,39.6571293 20.6013602,40.6751502 C20.6797956,41.3897497 21.2117136,41.673321 21.7670722,41.4786021 C22.3476743,41.2763212 22.1493319,40.4331693 21.9726269,40.2460123 C21.5687298,39.8197102 21.6408543,39.3593795 21.5939734,38.9009393" id="Fill-21" fill="#333333" fill-rule="nonzero"></path>
            <path d="M43.3512893,32.300402 C43.9043339,32.3627966 44.2820229,32.0288021 44.3069254,31.1393735 C44.3245647,30.5093105 44.03611,30.4652673 43.6272928,30.461597 C42.8916294,30.4542565 42.6519422,31.13815 42.4963011,31.7290634 C42.3199079,32.395829 42.8470123,32.2893912 43.3512893,32.300402" id="Fill-23" fill="#333333" fill-rule="nonzero"></path>
            <path d="M43.9307339,40.1735394 C43.3463646,40.0621621 43.272841,39.6584195 43.2031368,39.220866 C42.9787467,37.8157227 42.8574805,36.3877071 42.53856,35.0084192 C42.3122602,34.0269071 42.4946369,33.6659255 43.4647662,33.8329914 C44.0749165,33.938402 44.1885438,33.6022813 44.1761307,33.0463895 C44.1656274,32.5253031 44.1217042,32.1832158 43.4800438,32.2210045 C42.5834381,32.2737098 41.6811032,32.2011157 40.7844974,32.2548155 C40.1695729,32.2906153 39.9299051,32.0957051 40.0034287,31.4403693 C40.0626295,30.917294 40.1189658,30.4479184 39.2882448,30.4618405 C38.5024018,30.4747683 38.488079,30.8705553 38.5635123,31.4264471 C38.6484941,32.0519497 38.4622981,32.2965819 37.8158634,32.253821 C36.9163931,32.1941546 36.0102388,32.2488488 35.1069491,32.2359211 C34.5808258,32.22896 34.1635556,32.1762547 34.1540071,33.0095952 C34.1444586,33.8817189 34.5607739,33.8668023 35.1441883,33.8439302 C35.5032126,33.8300081 35.8784693,33.7524417 36.241313,33.9354187 C35.9978258,35.6199996 35.7915778,37.3095528 35.4888898,38.9802116 C35.3924498,39.5162147 35.5356775,40.2342002 34.6658076,40.4639158 C34.3268353,40.5544098 34.5082571,41.2922841 34.5454963,41.7268543 C34.5817807,42.1465079 34.9608568,41.9764587 35.1947955,41.9844142 C36.1563311,42.0162362 36.5688271,41.5856438 36.7550232,40.3644718 C37.0433884,38.4770251 37.3040629,36.5856007 37.61248,34.7021317 C37.6678614,34.3620333 37.5399113,33.7782972 38.2016235,33.8439302 C38.8518776,33.9085688 38.5358216,34.4306497 38.539641,34.7259983 C38.5682866,37.0609429 38.5520541,39.394893 38.5616026,41.7298376 C38.5635123,41.9754642 38.4489301,42.4030733 38.8499679,42.3613068 C39.22236,42.3235181 39.801955,42.7839438 39.9604604,41.9993308 C39.9595055,39.3531265 39.9595055,36.7059279 39.9585507,34.0597236 C40.5410102,33.6629422 40.8866666,33.6599588 40.9955197,34.5380492 C41.2294583,36.4324569 41.5292818,38.3179147 41.8291052,40.2023781 C42.0305789,41.4663111 42.4755398,41.8173483 43.6538269,41.7616597 C43.9651085,41.7477375 44.3231779,41.7825429 44.2429704,41.3081951 C44.1761307,40.9173803 44.5828976,40.2988388 43.9307339,40.1735394" id="Fill-25" fill="#333333" fill-rule="nonzero"></path>
            <path d="M66.4602608,30.9786475 C65.2165661,30.8324896 63.8993671,31.3413355 62.7115358,30.5681424 C62.4861222,30.4210824 61.899067,30.4255934 61.7275567,30.5852844 C61.0905184,31.1798401 60.3309729,30.9326348 59.6204302,30.9741364 C59.0049533,31.0093226 58.3855561,30.989474 57.768119,30.9768431 C57.4437195,30.9705276 57.2036051,31.0472154 57.2614286,31.3873481 C57.3045512,31.6354556 57.0585564,32.0838534 57.4956626,32.0946799 C58.3767355,32.1172351 57.8906264,32.4997717 57.7710592,32.7866741 C57.3045512,33.9036088 57.484882,34.1490096 58.7775796,34.1490096 C61.0424956,34.1490096 63.3054514,34.146303 65.5693873,34.1535206 C65.9859123,34.1544228 66.396557,34.1670538 66.7317371,33.89188 C67.1051395,33.5860312 67.1178803,33.1728195 67.1070996,32.7569012 C67.0982791,32.4393237 66.8483641,32.4438347 66.5994291,32.4375193 C66.1250807,32.4266928 65.6174102,32.3463962 65.5066635,32.9671159 C63.5210644,32.9770402 61.5364452,32.9878667 59.549866,32.9986932 C59.6057293,32.2796327 60.0585165,32.1018976 60.7857202,32.1154307 C62.6723334,32.1515191 64.5589467,32.1280616 66.4445799,32.1244528 C66.9032474,32.1235506 67.4118979,32.2660996 67.3834762,31.516364 C67.3579947,30.8117388 66.8601248,31.0255623 66.4602608,30.9786475" id="Fill-27" fill="#333333" fill-rule="nonzero"></path>
            <path d="M51.3783499,38.771325 C50.5284075,38.5121025 50.8677656,37.9366083 50.9224342,37.5002337 C50.9822602,37.0278281 51.3061461,36.5914534 51.404137,36.1190478 C51.5423558,35.4454695 51.5908355,34.7808989 50.4809592,34.951045 C49.9528397,35.0311137 49.3999645,34.9730639 48.8584356,34.9600527 C48.6696741,34.9560493 48.4076773,35.0311137 48.398394,34.6988284 C48.3891106,34.3625397 48.5943758,34.2944813 48.8842227,34.2974838 C49.3535477,34.303489 49.8239042,34.2974838 50.2932292,34.296483 C51.6960468,34.2934804 51.8796509,33.9661994 51.1895884,32.6971098 C50.7718376,32.6520711 50.3520238,32.5419766 49.9889416,32.8902756 C49.8177153,33.0544166 49.586663,33.0804389 49.5154906,32.781182 C49.4566961,32.5359714 49.4680424,32.275748 49.8311246,32.261736 C50.3633701,32.2427197 50.8956156,32.2397171 51.4278611,32.2297085 C51.6269374,31.2828956 51.3535943,30.7754599 50.2395921,30.9636214 C49.996162,31.0046567 49.7228188,31.0436902 49.4886721,30.7324229 C49.2060456,30.355099 48.5005108,30.4251591 48.3478513,30.6213276 C47.9146282,31.1808079 47.3844456,30.9566154 46.9027428,30.9586171 C46.3735918,30.9616197 46.2394989,31.1387718 46.2415619,31.6301938 C46.2425934,32.1096054 46.3529621,32.2937635 46.8893335,32.3167832 C47.3163677,32.3337979 48.1085471,31.9774919 48.1116415,32.6400608 C48.1157675,33.3156409 47.3184307,32.8672559 46.8965539,32.9963667 C46.6572498,33.0694295 46.2560027,32.8282224 46.2168063,33.2736048 C46.1868933,33.6058901 46.0311392,34.1673721 46.3601825,34.2384331 C47.4432402,34.4716334 46.8181612,35.157222 46.5994867,35.3684033 C46.107469,35.8438115 46.2364045,36.3532489 46.2229952,36.8787 C46.7934056,36.9257404 47.2885177,36.9487602 47.7702205,36.4433262 C48.2333566,35.9579095 48.9832451,36.3132145 49.6031667,36.2681759 C49.8022431,36.253163 49.7300392,36.4483305 49.7114725,36.5754397 C49.682591,36.7736098 49.5773797,36.8756975 49.3628311,36.8746966 C49.0049063,36.8736957 48.64595,36.9007189 48.2890567,36.8787 C47.9383523,36.8556803 47.6485054,36.8857061 47.5628923,37.2860498 C47.4370513,38.358971 48.2199473,38.166806 48.867719,38.173812 C49.0709212,38.1758137 49.3473588,38.1177639 49.3638626,38.4220251 C49.3803663,38.7202812 49.1224954,38.7172786 48.9058839,38.7182795 C48.2550178,38.7202812 47.6041516,38.743301 46.9553485,38.7092717 C46.4375438,38.6812477 46.1848303,38.7683224 46.1879247,39.3708398 C46.1899877,39.9663511 46.425166,40.0714413 46.9553485,40.0414155 C47.6031202,40.0033828 48.2550178,40.0294052 48.9048524,40.0364112 C49.151377,40.0384129 49.4515387,40.0053846 49.4144053,40.3857111 C49.3844922,40.6929749 49.3937756,41.0542851 48.9337339,41.0733015 C48.5005108,41.0913169 48.0662563,41.0953204 47.6340647,41.0823092 C47.1709286,41.0672963 46.8202242,41.0522834 46.8377594,41.7118497 C46.8542631,42.3193713 47.0430246,42.5045303 47.6464425,42.4534865 C48.2199473,42.4054452 48.801704,42.4294658 49.3793348,42.4454796 C50.2891033,42.4705011 50.7728691,42.0631513 50.9059305,41.1803934 C50.9791658,40.6949766 50.8079395,40.0834516 51.5557651,39.8322359 C51.6640709,39.796205 51.8703676,38.9214539 51.3783499,38.771325" id="Fill-29" fill="#333333" fill-rule="nonzero"></path>
            <path d="M65.6891054,39.2450232 C63.3960228,39.4080393 61.1039635,39.4855222 58.8129274,39.2017536 C58.7208358,38.5798777 58.9418558,38.3645356 59.6243574,38.3856673 C61.411959,38.4400059 63.2036536,38.4289369 64.9922785,38.3896924 C65.6972913,38.3745983 65.9121719,38.6010094 65.6891054,39.2450232 M59.3644542,36.3701052 C61.2983793,36.3701052 63.2323043,36.3660801 65.1652061,36.362055 C65.4680854,36.3610487 65.7566393,36.3771491 65.7556215,36.7846891 C65.7535696,37.2264423 65.4169234,37.1539908 65.1457646,37.1560033 C64.2156387,37.1620409 63.2834664,37.1580159 62.3523173,37.1570096 C61.3505645,37.154997 60.3477886,37.1610347 59.3450126,37.1519782 C59.1137602,37.1499657 58.8262296,37.2153733 58.8149739,36.8199086 C58.8037183,36.4133748 59.0482728,36.3701052 59.3644542,36.3701052 M57.6280146,35.1102531 C57.192114,35.1001904 57.2453226,35.4362851 57.2442993,35.7140161 C57.2422528,37.75876 57.2524852,39.8024977 57.2308424,41.8462354 C57.2269042,42.3050953 57.3814136,42.4167915 57.8428952,42.452011 C58.6195349,42.5103747 58.9889248,42.3141518 58.8405549,41.4849839 C58.7157195,40.7936753 58.8538571,40.3891541 59.7614716,40.429405 C61.5142831,40.5078942 63.273234,40.4465116 65.0280919,40.4605994 C65.3094831,40.4626119 65.7566393,40.3116712 65.7249188,40.8399638 C65.7003611,41.2595791 65.3258549,41.1539206 65.0598123,41.1569394 C64.1644767,41.1649895 63.2670945,41.1800836 62.3727821,41.1488892 C61.87958,41.1317826 61.6657227,41.2545477 61.6759551,41.788878 C61.6861875,42.2930201 61.8417201,42.4600612 62.3605032,42.4439608 C63.5423463,42.4087413 64.7262359,42.4208166 65.9091022,42.4318855 C66.8023914,42.440942 67.3303836,42.0696278 67.3846154,41.1549268 C67.374383,39.1836407 67.3651738,37.2113483 67.3549414,35.2390558 C64.1163844,34.921074 60.8696414,35.1816984 57.6280146,35.1102531" id="Fill-31" fill="#333333" fill-rule="nonzero"></path>
            <path d="M14.1288044,38.4837438 L14.1255825,38.4837438 C14.1255825,38.8687449 14.103029,39.2547486 14.1309524,39.6377445 C14.1739113,40.2222644 13.8334615,40.3195173 13.3007704,40.3385668 C12.7133066,40.3606242 12.6102051,40.0939307 12.6198708,39.6367419 C12.6370544,38.8677423 12.6392024,38.0977401 12.6080571,37.3297431 C12.5876516,36.8174109 12.7272683,36.5817982 13.3490992,36.5918243 C13.9430069,36.6018503 14.1663935,36.7953535 14.1331003,37.3297431 C14.1094729,37.712739 14.1288044,38.0987427 14.1288044,38.4837438 M12.6338325,33.0125171 C12.6606819,32.5513179 12.3728568,31.9657954 13.3609129,31.9577745 C14.3285636,31.9497536 14.0976592,32.4991823 14.1191386,32.9824389 C14.1277304,33.1568925 14.1212866,33.3313462 14.1223606,33.5068024 C14.1234345,33.8206184 14.0987331,34.1364396 14.1288044,34.4482504 C14.1825031,35.0367807 13.8366835,35.1179919 13.3104362,35.1340336 C12.7670053,35.1500753 12.5779859,34.9776269 12.6177229,34.4783286 C12.656386,33.9920642 12.6059092,33.4997841 12.6338325,33.0125171 M15.6441818,31.1907801 C15.718286,30.6804531 15.5690036,30.4318066 14.9278411,30.4658952 C13.9150836,30.5210386 12.8937342,30.5180308 11.8809767,30.4648926 C11.2204826,30.430804 11.0647564,30.6543853 11.0776441,31.2348948 C11.1141592,32.9553685 11.0905318,34.6778474 11.0894578,36.3993237 C11.0883838,38.0857088 11.0862359,39.7720938 11.0894578,41.4584789 C11.0916058,42.2766062 11.7703574,42.7588602 12.3782267,42.2575567 C12.9603206,41.7793131 13.5058994,41.8775686 14.0987331,41.8575165 C15.2919183,41.8174122 15.6076667,41.5416953 15.6431078,40.4007285 C15.6624394,39.7339948 15.6527736,39.0652559 15.6398859,38.3975196 C15.6227023,37.4791315 15.8364232,36.5226444 15.1619674,35.7055196 C16.1371359,34.275802 15.4250911,32.6906803 15.6441818,31.1907801" id="Fill-33" fill="#333333" fill-rule="nonzero"></path>
            <g id="Group-37" transform="translate(0.000000, 30.461538)">
                <g id="Fill-35-Clipped">
                    <mask id="mask-2" fill="white">
                        <use xlink:href="#path-1"></use>
                    </mask>
                    <g id="path-1"></g>
                    <path d="M8.71411469,9.8903574 C8.71310769,10.0702864 8.66577902,10.2343101 8.46941538,10.3068781 C6.49671608,10.3068781 4.52401678,10.3078722 2.55131748,10.3088663 C1.67926154,10.3993278 1.47584895,10.0176 1.50203077,9.17561183 C1.57453427,6.87828639 1.55238042,4.57599053 1.51008671,2.27767101 C1.4980028,1.62754083 1.67523357,1.45158817 2.33179301,1.46649941 C4.23601678,1.51023905 6.14326154,1.47644024 8.04849231,1.48041657 C8.37475804,1.48041657 8.75741538,1.35217988 8.75036643,1.94664142 C8.71914965,4.59388402 8.72418462,7.24212071 8.71411469,9.8903574 M9.41900979,0.0220970414 C6.28021259,0.0658366864 3.1394014,0.031043787 -0.000402797203,0.0240852071 L-0.000402797203,11.7403456 C2.81917762,11.7194698 5.63976503,11.7035645 8.45934545,11.6757302 C10.0876531,11.6598249 10.3746462,11.3784994 10.3786741,9.79293728 C10.3857231,6.86735148 10.3514853,3.94176568 10.399821,1.01617988 C10.4129119,0.244771598 10.2306462,0.0111621302 9.41900979,0.0220970414" id="Fill-35" fill="#333333" fill-rule="nonzero" mask="url(#mask-2)"></path>
                </g>
            </g>
            <path d="M6.59159375,38.0047248 C6.49365893,38.3551478 6.15552609,38.3217259 5.86584521,38.2964064 C5.46173523,38.2589334 5.62564719,37.9378811 5.59162773,37.7241839 C5.44214827,36.8106535 5.62873987,36.1898174 6.78643249,36.4106041 C6.99570373,36.4501027 7.22043837,36.3964252 7.43280228,36.4237703 C8.01731851,36.5027674 8.05546154,36.1756384 8.05649243,35.7259627 C8.05752333,35.2935043 7.96886654,35.0555003 7.46579085,35.1031011 C7.10807105,35.1375357 6.7421041,35.0828454 6.38541519,35.1162672 C5.81223879,35.1699447 5.56585541,35.0200528 5.55967005,34.3789611 C5.55142291,33.6922941 5.88440128,33.6254504 6.41840376,33.6608978 C6.7421041,33.6831791 7.0719898,33.6345655 7.39053568,33.6791279 C8.19257028,33.7925597 7.98329904,33.2436312 8.04205993,32.8142111 C8.14618011,32.0485471 7.63382638,32.3797271 7.3018789,32.3746632 C5.72564379,32.3635226 4.14837779,32.3797271 2.57317358,32.3260496 C1.97834843,32.3047812 1.87216647,32.5083506 1.86701201,33.039049 C1.86288843,33.5737985 2.04741825,33.7196393 2.55049394,33.6639362 C2.97522178,33.6173482 3.40716586,33.6254504 3.83601727,33.6092459 C4.33290761,34.9501708 4.22981832,35.1375357 2.84739107,35.0960116 C2.16287824,35.0747431 1.75979915,35.1425996 1.86185754,35.9730818 C1.96597772,36.8147046 2.60822394,36.4278214 2.92161535,36.3903485 C3.92570495,36.2678017 4.08755512,36.6658255 4.07827708,37.560113 C4.06384458,38.8514115 3.15459712,38.2123454 2.63399626,38.279189 C2.15050753,38.3419816 1.84227058,38.3237515 1.8536104,38.9526898 C1.86391933,39.5157973 2.02164593,39.666702 2.59069876,39.652523 C4.1762119,39.6140372 5.76481772,39.6606253 7.35033086,39.6272034 C7.66372227,39.6211267 8.15133457,39.928 8.28328885,39.2595631 C8.4337992,38.4959246 7.85134476,38.0351083 7.54207692,37.5084611 C7.39878282,37.2643803 6.74519678,37.4517452 6.59159375,38.0047248" id="Fill-38" fill="#333333" fill-rule="nonzero"></path>
            <path d="M1.91748768,46.3306746 L1.74014778,46.0305529 C1.60884805,45.8212789 1.50142099,45.6217385 1.38461538,45.4043531 L1.36585828,45.4043531 C1.25331565,45.624172 1.14077302,45.8212789 1.01458886,46.0305529 L0.837248958,46.3306746 L1.91748768,46.3306746 Z M2.01553619,46.4945248 L0.739200455,46.4945248 L0.38878363,47.0769231 L0,47.0769231 L1.16976127,45.2307692 L1.59520652,45.2307692 L2.76923077,47.0769231 L2.35742706,47.0769231 L2.01553619,46.4945248 Z" id="Fill-40" fill="#333333" fill-rule="nonzero"></path>
            <path d="M4.15537274,46.1084223 L4.86981596,46.1084223 C5.52930201,46.1084223 5.89161225,45.9899959 5.89161225,45.7425984 C5.89161225,45.4903339 5.52930201,45.3994863 4.86981596,45.3994863 L4.15537274,45.3994863 L4.15537274,46.1084223 Z M5.94148079,47.0769231 L4.91968451,46.2795728 L4.15537274,46.2795728 L4.15537274,47.0769231 L3.69230769,47.0769231 L3.69230769,45.2307692 L4.94207446,45.2307692 C5.77457383,45.2307692 6.3546773,45.3646073 6.3546773,45.7425984 C6.3546773,46.0329863 5.98117208,46.2017034 5.40615724,46.2601054 L6.46153846,47.0769231 L5.94148079,47.0769231 Z" id="Fill-42" fill="#333333" fill-rule="nonzero"></path>
            <polygon id="Fill-44" fill="#333333" fill-rule="nonzero" points="8.54765427 45.40752 7.38461538 45.40752 7.38461538 45.2307692 10.1538462 45.2307692 10.1538462 45.40752 8.98510144 45.40752 8.98510144 47.0769231 8.54765427 47.0769231"></polygon>
            <path d="M12.9230769,45.6928951 C12.9230769,44.8340459 13.6231264,44.3076923 14.5756067,44.3076923 C15.0335479,44.3076923 15.3835727,44.4651284 15.5994057,44.6331386 L15.3629278,44.8305212 C15.1677397,44.6766098 14.9096786,44.5743938 14.5802987,44.5743938 C13.8445898,44.5743938 13.3603733,44.9985314 13.3603733,45.6858458 C13.3603733,46.3766848 13.8239449,46.8113965 14.5652843,46.8113965 C14.9303235,46.8113965 15.2090295,46.7009562 15.4558298,46.5035736 L15.6923077,46.6939069 C15.3985872,46.9382853 15.0335479,47.0769231 14.5446394,47.0769231 C13.612804,47.0769231 12.9230769,46.5587938 12.9230769,45.6928951" id="Fill-46" fill="#333333" fill-rule="nonzero"></path>
            <path d="M17.0794674,46.1084223 L17.7939106,46.1084223 C18.4523789,46.1084223 18.8157069,45.9899959 18.8157069,45.7425984 C18.8157069,45.4903339 18.4523789,45.3994863 17.7939106,45.3994863 L17.0794674,45.3994863 L17.0794674,46.1084223 Z M18.8655754,47.0769231 L17.8437792,46.2795728 L17.0794674,46.2795728 L17.0794674,47.0769231 L16.6153846,47.0769231 L16.6153846,45.2307692 L17.8661691,45.2307692 C18.6986685,45.2307692 19.2787719,45.3646073 19.2787719,45.7425984 C19.2787719,46.0329863 18.904249,46.2017034 18.3302519,46.2601054 L19.3846154,47.0769231 L18.8655754,47.0769231 Z" id="Fill-48" fill="#333333" fill-rule="nonzero"></path>
            <polygon id="Fill-50" fill="#333333" fill-rule="nonzero" points="21.2307692 45.2307692 23.0297471 45.2307692 23.0297471 45.4075977 21.5885205 45.4075977 21.5885205 46.0151413 22.8009435 46.0151413 22.8009435 46.1919697 21.5885205 46.1919697 21.5885205 46.9009058 23.0769231 46.9009058 23.0769231 47.0769231 21.2307692 47.0769231"></polygon>
            <path d="M25.9174877,46.3306746 L25.7401478,46.0305529 C25.608848,45.8212789 25.501421,45.6217385 25.3846154,45.4043531 L25.3658583,45.4043531 C25.2533156,45.624172 25.140773,45.8212789 25.0145889,46.0305529 L24.837249,46.3306746 L25.9174877,46.3306746 Z M26.0155362,46.4945248 L24.7392005,46.4945248 L24.3887836,47.0769231 L24,47.0769231 L25.1697613,45.2307692 L25.5952065,45.2307692 L26.7692308,47.0769231 L26.3574271,47.0769231 L26.0155362,46.4945248 Z" id="Fill-52" fill="#333333" fill-rule="nonzero"></path>
            <polygon id="Fill-54" fill="#333333" fill-rule="nonzero" points="27.9322697 45.40752 26.7692308 45.40752 26.7692308 45.2307692 29.5384615 45.2307692 29.5384615 45.40752 28.3697168 45.40752 28.3697168 47.0769231 27.9322697 47.0769231"></polygon>
            <g id="Fill-56-Clipped">
                <mask id="mask-4" fill="white">
                    <use xlink:href="#path-3"></use>
                </mask>
                <g id="path-3"></g>
                <polygon id="Fill-56" fill="#333333" fill-rule="nonzero" mask="url(#mask-4)" points="31.0632185 47.1380571 31.5093969 47.1380571 31.5093969 44.9085061 31.0632185 44.9085061"></polygon>
            </g>
            <g id="Fill-58-Clipped">
                <mask id="mask-6" fill="white">
                    <use xlink:href="#path-5"></use>
                </mask>
                <g id="path-3"></g>
                <path d="M32.4700505,44.9088 L32.9367766,44.9088 L33.5972382,46.1391673 C33.7361797,46.4046367 33.8281551,46.6142694 33.9837305,46.8768 L34.0042782,46.8768 C34.1549612,46.6142694 34.2518289,46.4046367 34.3966412,46.1391673 L35.0463397,44.9088 L35.4974105,44.9088 L34.2410658,47.138351 L33.7312874,47.138351 L32.4700505,44.9088 Z" id="Fill-58" fill="#333333" fill-rule="nonzero" mask="url(#mask-6)"></path>
            </g>
            <g id="Fill-59-Clipped">
                <mask id="mask-8" fill="white">
                    <use xlink:href="#path-7"></use>
                </mask>
                <g id="path-3"></g>
                <polygon id="Fill-59" fill="#333333" fill-rule="nonzero" mask="url(#mask-8)" points="36.4525846 47.1380571 36.8977846 47.1380571 36.8977846 44.9085061 36.4525846 44.9085061"></polygon>
            </g>
            <g id="Fill-60-Clipped">
                <mask id="mask-10" fill="white">
                    <use xlink:href="#path-9"></use>
                </mask>
                <g id="path-3"></g>
                <polygon id="Fill-60" fill="#333333" fill-rule="nonzero" mask="url(#mask-10)" points="39.2166406 45.1221551 38.0199822 45.1221551 38.0199822 44.9086041 40.8692622 44.9086041 40.8692622 45.1221551 39.6677114 45.1221551 39.6677114 47.1391347 39.2166406 47.1391347"></polygon>
            </g>
            <g id="Fill-61-Clipped">
                <mask id="mask-12" fill="white">
                    <use xlink:href="#path-11"></use>
                </mask>
                <g id="path-3"></g>
                <path d="M42.539496,46.2643592 L41.3584929,44.9086041 L41.8310898,44.9086041 L42.3565237,45.5541551 C42.4905729,45.7187265 42.6089668,45.8744816 42.7537791,46.0419918 L42.7753052,46.0419918 C42.9152252,45.8744816 43.0492745,45.7187265 43.1725606,45.5541551 L43.7038652,44.9086041 L44.1598283,44.9086041 L42.9798037,46.2643592 L42.9798037,47.1391347 L42.539496,47.1391347 L42.539496,46.2643592 Z" id="Fill-61" fill="#333333" fill-rule="nonzero" mask="url(#mask-12)"></path>
            </g>
            <g id="Fill-62-Clipped">
                <mask id="mask-14" fill="white">
                    <use xlink:href="#path-13"></use>
                </mask>
                <g id="path-3"></g>
                <path d="M46.4843594,46.0237714 C46.4843594,45.3076898 47.2309255,44.8688327 48.2661378,44.8688327 C48.8082055,44.8688327 49.1624086,45.0089143 49.3884332,45.1401796 L49.1408825,45.304751 C48.9422548,45.1862204 48.6849194,45.0912 48.2769009,45.0912 C47.4618425,45.0912 46.9403225,45.4448327 46.9403225,46.0178939 C46.9403225,46.5938939 47.4236825,46.9563429 48.2769009,46.9563429 C48.5723963,46.9563429 48.8620209,46.9034449 49.0234671,46.8152816 L49.0234671,46.2069551 L48.1702486,46.2069551 L48.1702486,45.9963429 L49.4363778,45.9963429 L49.4363778,46.9220571 C49.1839348,47.0719347 48.7602609,47.1777306 48.2348271,47.1777306 C47.2035286,47.1777306 46.4843594,46.7457306 46.4843594,46.0237714" id="Fill-62" fill="#333333" fill-rule="nonzero" mask="url(#mask-14)"></path>
            </g>
            <g id="Fill-63-Clipped">
                <mask id="mask-16" fill="white">
                    <use xlink:href="#path-15"></use>
                </mask>
                <g id="path-3"></g>
                <polygon id="Fill-63" fill="#333333" fill-rule="nonzero" mask="url(#mask-16)" points="50.7890031 44.9088 51.2351815 44.9088 51.2351815 46.9257796 52.9680369 46.9257796 52.9680369 47.138351 50.7890031 47.138351"></polygon>
            </g>
            <g id="Fill-64-Clipped">
                <mask id="mask-18" fill="white">
                    <use xlink:href="#path-17"></use>
                </mask>
                <g id="path-3"></g>
                <path d="M56.5537071,46.0146612 C56.5537071,45.4445388 56.0762178,45.0918857 55.3462855,45.0918857 C54.6212455,45.0918857 54.1437563,45.4445388 54.1437563,46.0146612 C54.1437563,46.5867429 54.6212455,46.956049 55.3462855,46.956049 C56.0762178,46.956049 56.5537071,46.5867429 56.5537071,46.0146612 M53.6877932,46.0146612 C53.6877932,45.3044571 54.3746732,44.8695184 55.3462855,44.8695184 C56.3237686,44.8695184 57.0106486,45.3044571 57.0106486,46.0146612 C57.0106486,46.7278041 56.3237686,47.1774367 55.3462855,47.1774367 C54.3746732,47.1774367 53.6877932,46.7278041 53.6877932,46.0146612" id="Fill-64" fill="#333333" fill-rule="nonzero" mask="url(#mask-18)"></path>
            </g>
            <g id="Fill-65-Clipped">
                <mask id="mask-20" fill="white">
                    <use xlink:href="#path-19"></use>
                </mask>
                <g id="path-3"></g>
                <path d="M59.4307754,46.9373388 C60.1284185,46.9373388 60.5520923,46.7943184 60.5520923,46.4779102 C60.5520923,46.1908898 60.1440738,46.0596245 59.4307754,46.0596245 L58.7223692,46.0596245 L58.7223692,46.9373388 L59.4307754,46.9373388 Z M59.3241231,45.8656653 C60.0315508,45.8656653 60.3162831,45.7187265 60.3162831,45.4846041 C60.3162831,45.2103184 59.9884985,45.1094204 59.3505415,45.1094204 L58.7223692,45.1094204 L58.7223692,45.8656653 L59.3241231,45.8656653 Z M58.2771692,44.9086041 L59.4141415,44.9086041 C60.2145231,44.9086041 60.7565908,45.067298 60.7565908,45.4542367 C60.7565908,45.6766041 60.5481785,45.8686041 60.1714708,45.9381551 L60.1714708,45.9508898 C60.6548308,46.0018286 60.9875077,46.1820735 60.9875077,46.4867265 C60.9875077,46.9216653 60.3808615,47.1391347 59.5002462,47.1391347 L58.2771692,47.1391347 L58.2771692,44.9086041 Z" id="Fill-65" fill="#333333" fill-rule="nonzero" mask="url(#mask-20)"></path>
            </g>
            <g id="Fill-66-Clipped">
                <mask id="mask-22" fill="white">
                    <use xlink:href="#path-21"></use>
                </mask>
                <g id="path-3"></g>
                <path d="M63.8587052,46.2371265 L63.6551852,45.8746776 C63.5054806,45.6219429 63.3821945,45.3809633 63.2471668,45.1184327 L63.2266191,45.1184327 C63.0974622,45.383902 62.9683052,45.6219429 62.8225145,45.8746776 L62.6189945,46.2371265 L63.8587052,46.2371265 Z M63.9712283,46.4350041 L62.5064714,46.4350041 L62.1043237,47.138351 L61.6581452,47.138351 L63.0005945,44.9088 L63.4888468,44.9088 L64.8361883,47.138351 L64.3645698,47.138351 L63.9712283,46.4350041 Z" id="Fill-66" fill="#333333" fill-rule="nonzero" mask="url(#mask-22)"></path>
            </g>
            <g id="Fill-67-Clipped">
                <mask id="mask-24" fill="white">
                    <use xlink:href="#path-23"></use>
                </mask>
                <g id="path-3"></g>
                <polygon id="Fill-67" fill="#333333" fill-rule="nonzero" mask="url(#mask-24)" points="65.8079963 44.9088 66.2531963 44.9088 66.2531963 46.9257796 67.9870302 46.9257796 67.9870302 47.138351 65.8079963 47.138351"></polygon>
            </g>
        </g>
    </g>
</svg>