<?xml version="1.0" encoding="UTF-8"?>
<svg width="176px" height="60px" viewBox="0 0 176 60" version="1.1" xmlns="http://www.w3.org/2000/svg" xmlns:xlink="http://www.w3.org/1999/xlink">
    <!-- Generator: Sketch 56 (81588) - https://sketch.com -->
    <title>画板备份</title>
    <desc>Created with Sketch.</desc>
    <g id="画板备份" stroke="none" stroke-width="1" fill="none" fill-rule="evenodd">
        <g id="ihg" transform="translate(35.000000, 8.000000)" fill="#DD6632" fill-rule="nonzero">
            <path d="M58.7215321,36.0541421 L58.8174231,36.0630752 C58.8703342,36.0710163 58.9259586,36.0630752 58.9802264,36.0643987 C59.5541079,36.0683692 59.5581779,36.0710163 59.4645661,36.622923 C59.3270681,37.4519052 59.3151117,37.5284041 60.0358995,37.5344325 L60.262302,37.5348265 C61.3286633,37.5335029 62.3963812,37.5440911 63.4613859,37.5096797 C63.9158783,37.4937974 63.886031,37.7373246 63.8968846,38.0364396 C63.9104515,38.405701 63.700164,38.3898187 63.4220417,38.3818776 C62.1928772,38.3461427 60.9637126,38.3329075 59.7345481,38.3077607 C59.4401456,38.301143 59.3112596,38.4348184 59.3180431,38.7193745 C59.3261833,39.0529009 59.3343235,39.3877508 59.3166864,39.7199537 C59.2976927,40.0958327 59.4876298,40.2030375 59.8417269,40.1977435 C60.4884176,40.1898024 61.1339024,40.1906847 61.7890347,40.1921553 L62.7803256,40.1937729 L62.7803256,40.8264142 C62.7911791,42.0652265 62.7952492,43.3053623 62.818313,44.5454981 C62.8223831,44.8022605 62.7464083,44.9399063 62.4764262,44.9002008 C62.247145,44.8657893 61.8916911,45.0629934 61.883551,44.5878506 C61.8699841,43.9327095 61.8564172,43.9327095 61.1957073,43.931386 C59.8824277,43.931386 58.5705049,43.9406507 57.2572253,43.9247684 C56.8637841,43.9194744 56.6765603,44.0240322 56.6941973,44.4422637 C56.7159045,44.885642 56.2030742,45.149022 55.8123464,44.9094654 C55.7499385,44.8710834 55.7051677,44.7559374 55.7051677,44.6765263 C55.7038109,43.2246277 55.7092377,41.7753762 55.7146644,40.3248011 C55.7146644,40.2731839 55.7363716,40.2242138 55.7445117,40.1924494 C56.4581327,40.1924494 57.1500465,40.1950964 57.843317,40.1911259 C58.3575039,40.1884789 58.4253386,40.1355381 58.4158417,39.6431897 C58.3954914,38.6174637 58.3724275,37.5930612 58.3222299,36.5686588 C58.3064018,36.2543234 58.3772514,36.074178 58.6376298,36.0550299 L58.7215321,36.0541421 Z M75.8001086,40.5737547 C76.0307466,40.5644901 76.2640979,40.6214014 76.498806,40.6518423 C76.3780602,41.3281597 76.4065507,41.3718357 77.0360567,41.3652182 C78.3886804,41.3493359 79.7413041,41.3268362 81.092571,41.2924247 C81.3883302,41.2844836 81.5484202,41.3281597 81.5592737,41.6696271 C81.5714839,42.040212 81.3720499,42.0335944 81.0952844,42.0269769 C80.0574137,42.00183 79.0195429,41.9899183 77.9789589,41.9859478 C77.8446461,41.9859478 77.7116902,42.0653589 77.5773775,42.1090349 C77.6574224,42.2215339 77.7144036,42.3657973 77.8202257,42.4412378 C78.7943318,43.1374079 79.9081774,43.4656402 81.0912143,43.6085801 C81.1983931,43.6218153 81.3069287,43.6337269 81.4127508,43.6535797 C81.4344579,43.6562268 81.4520948,43.6879912 81.5063627,43.7435789 C81.3449161,43.9963707 81.1848262,44.2703389 80.9948891,44.5204836 C80.9528316,44.5773949 80.7886716,44.587983 80.6977731,44.5615127 C79.422481,44.2081335 78.221807,43.713138 77.2992553,42.7350587 C77.1432355,42.5709425 77.0333433,42.3631503 76.8759668,42.1990341 C76.7959219,42.1156525 76.6588958,42.0838881 76.5476469,42.0283003 C76.5015193,42.1315347 76.4146909,42.2334455 76.4160476,42.3353564 C76.4201177,43.0288795 76.4119775,43.7250497 76.4703153,44.4146022 C76.5015193,44.7918047 76.3183657,44.8023928 76.0429568,44.7944517 C75.767548,44.7851871 75.4921392,44.8394513 75.5192731,44.401367 C75.5586171,43.7369614 75.5477636,43.068585 75.5477636,42.4028558 C75.5477636,42.26521 75.5057061,42.1275641 75.4704321,41.9171249 C75.3103422,42.0190357 75.1950232,42.0640354 75.1231185,42.1460934 C74.0893178,43.2949065 72.7244839,43.9275478 71.3135224,44.4953367 C71.0408269,44.6051887 70.8536032,44.5668067 70.6758763,44.3378382 C70.5415637,44.1618104 70.3692635,44.0122529 70.1603327,43.7965196 C71.7218872,43.5106399 73.162696,43.1149082 74.3077455,42.0944763 C74.296892,42.0534472 74.2846817,42.0124181 74.2751849,41.9713891 C74.1734328,41.9515363 74.0730375,41.9144779 73.9739988,41.9158014 C73.0039628,41.9409482 72.0352834,41.9713891 71.0666041,42.0005065 C70.9309347,42.0044771 70.792552,42.0084476 70.6582393,42.0216828 C70.3977541,42.0441826 70.2417343,41.9819772 70.2471611,41.6788917 C70.2512311,41.3850709 70.3651934,41.2884542 70.6663794,41.2924247 C72.1017615,41.3109539 73.5385002,41.3056599 74.9725255,41.3228656 C75.3469729,41.3268362 75.5911778,41.2633073 75.5477636,40.8186055 C75.5396235,40.7405179 75.7064968,40.5777253 75.8001086,40.5737547 Z M38.784076,33.6934242 C39.6586912,33.703261 40.5345124,33.7023965 41.4103337,33.7007358 L42.7239147,33.698876 C44.0222706,33.7041701 45.3219832,33.7134348 46.6216958,33.6975525 C46.962226,33.6934242 47.0707615,33.8060809 47.0761883,34.1343132 C47.0816151,34.4837219 46.931022,34.5591624 46.608129,34.5512213 C45.8008961,34.5287215 44.99502,34.5432801 44.1877872,34.5273979 C43.8540406,34.5221039 43.7115878,34.6597496 43.7224413,34.9813644 C43.7319382,35.2738617 43.7346515,35.5690061 43.7224413,35.8615035 C43.7088743,36.1990004 43.8513272,36.3578224 44.2081377,36.3326756 C44.7128278,36.2969407 45.2188745,36.2876761 45.7222079,36.2413529 C46.0559546,36.2109121 46.178057,36.3101758 46.1726302,36.6556139 C46.1319294,39.2152965 46.111579,41.7749792 46.0749482,44.3359853 C46.0735916,44.4776016 46.0166104,44.7224524 45.9365655,44.7423051 C45.7235646,44.7978928 45.4793597,44.7780401 45.2568619,44.7383345 C45.2148044,44.7303934 45.1930973,44.504072 45.1930973,44.3783378 C45.1930973,43.8323869 45.1752112,43.7761632 44.6766362,43.7712679 L44.5703749,43.7708434 L40.0973555,43.7708434 C39.5383977,43.7721669 39.4909134,43.7973137 39.5112638,44.3253971 C39.5248308,44.698629 39.3362504,44.7264229 39.0337076,44.7290699 C38.7026743,44.7330405 38.5751451,44.6258356 38.5751451,44.2896622 C38.5819287,41.7683615 38.5792152,39.2470609 38.5615782,36.7270838 C38.5588648,36.3723812 38.6497633,36.2506176 39.0255675,36.2863526 C39.5004103,36.3326756 39.9820365,36.3128229 40.4609494,36.3326756 C40.7824859,36.3459109 40.9493592,36.2281178 40.9385057,35.8945914 C40.9276521,35.5743002 40.9330789,35.254009 40.9385057,34.9337178 C40.9425758,34.6491615 40.8069064,34.5234274 40.5125038,34.5287215 C39.9386224,34.5406331 39.3620276,34.5247509 38.7895028,34.5485742 C38.4543994,34.5631329 38.3635009,34.4254871 38.3648281,34.1263721 C38.3662143,33.8325514 38.4449026,33.6896114 38.784076,33.6934242 Z M98.4547256,33.9250652 C98.4464714,35.0897605 98.446154,36.2544558 98.4468522,37.4191511 L98.4478045,39.166194 C98.4437349,40.8867666 98.4478045,42.6073392 98.4369511,44.3279119 C98.4355949,44.4602636 98.3433395,44.6998202 98.2714346,44.7064378 C98.0095922,44.7355552 97.7368974,44.6958497 97.4736988,44.6534971 C97.4519912,44.6495266 97.4465645,44.4364402 97.4655588,44.3239413 C97.5374628,43.8765924 97.4736988,43.7773286 97.0314161,43.7760051 C94.5690171,43.770711 92.1079744,43.7773286 89.6469326,43.7667404 C89.2738414,43.765417 89.181586,43.9335036 89.1775165,44.2564419 C89.1761593,44.4099699 89.1069681,44.6826145 89.0337067,44.6945261 C88.7433741,44.7395257 88.4408315,44.7104083 88.1450722,44.6865851 C88.1138683,44.683938 88.0731674,44.5277629 88.0745241,44.4430579 L88.1584381,41.6477891 C88.1708494,41.181911 88.1807985,40.7160329 88.1857731,40.2501548 C88.2020534,38.7836975 88.181703,37.3159167 88.1599959,35.850783 C88.1518557,35.2644648 88.1138683,34.6768231 88.052817,34.0944754 C88.0107595,33.7146259 88.1437156,33.6153621 88.5235898,33.6206561 C91.0660343,33.6497735 93.6084782,33.6656558 96.150922,33.6683028 C96.7790717,33.6696263 97.4099339,33.6338914 98.0326561,33.5584509 C98.3826834,33.5160983 98.4573016,33.6060975 98.4547256,33.9250652 Z M58.9213458,33.0815876 C59.0108876,33.07497 59.1614807,33.192763 59.195398,33.2854092 C59.3120737,33.6109945 59.3649848,33.9617266 59.4992974,34.2780473 C59.5562785,34.4130461 59.7584259,34.5771622 59.8940953,34.5784857 C61.1775276,34.5890739 62.4636733,34.5903974 63.7457489,34.5414273 C64.1201964,34.5268685 64.1581838,34.6684849 64.1554704,34.9464236 C64.1514004,35.2243622 64.1771775,35.4533307 63.7403222,35.4453896 C60.8315707,35.3964195 57.9201058,35.3725961 55.0099978,35.3461258 C54.5175179,35.3421552 54.4673203,35.4136252 54.4469698,35.9139147 C54.3832053,37.6186052 54.3709949,39.3272661 54.220402,41.0253389 C54.1037263,42.3528268 53.5176346,43.5519336 52.7795932,44.7166289 C52.5096111,44.4664841 52.2789732,44.2772211 52.0876794,44.0561937 C52.0306982,43.9900178 52.0334116,43.7981078 52.0903927,43.7226673 C53.1486139,42.3329741 53.4918574,40.7394591 53.4972842,39.0506509 L53.4999976,36.8319395 L53.4986409,34.6062796 L55.8647148,34.6062796 C56.5756223,34.6049561 57.2865299,34.5956914 57.9974374,34.6049561 C58.3556046,34.6089266 58.428866,34.4553986 58.3108336,34.1576072 C58.194158,33.8651098 58.078839,33.5726125 57.9513098,33.2457037 C58.309477,33.1808514 58.6133764,33.1067344 58.9213458,33.0815876 Z M36.5270802,39.5868079 C37.2936122,39.9282754 37.3465233,40.0301861 37.1335224,40.7395915 C36.7753552,41.9373747 36.4104046,43.1325109 36.0603776,44.3329412 C35.9789759,44.6174974 35.8758673,44.6717616 35.6085986,44.5010279 C34.8773406,44.0325027 34.9207548,44.0589731 35.2327944,43.2635391 C35.6832167,42.1107555 36.0522374,40.9288545 36.4578888,39.7601886 C36.4755259,39.7112185 36.497233,39.6635719 36.5270802,39.5868079 Z M5.73379485,33.6393177 C5.76092873,33.6432883 5.77449567,33.8007869 5.76499881,33.8828449 C5.7256547,34.1965186 5.64560976,34.5075452 5.63475621,34.8225424 C5.5709916,36.6992899 5.56013805,38.5773611 5.45702933,40.4514618 C5.38105447,41.8279198 4.91299513,43.1064376 4.16138678,44.2830446 C4.00808039,44.5226013 3.86155746,44.5848065 3.60378564,44.4233374 C3.41249182,44.3055444 3.18999405,44.2340744 3.00684039,44.1546634 C3.40299497,43.5577571 3.83306689,43.0336442 4.12339936,42.444679 C4.75426196,41.1714552 4.89671481,39.7857325 4.89400142,38.3933922 C4.89128803,36.9282585 4.8315935,35.4631248 4.80852971,33.997991 C4.80717302,33.84711 4.88314787,33.5665243 4.9414857,33.5612303 C5.2019709,33.5413775 5.47195296,33.5916711 5.73379485,33.6393177 Z M10.7460439,33.4454432 L10.8181404,33.4488636 C10.9388862,33.4620988 11.0623453,33.4687164 11.1858045,33.4713634 C11.5073409,33.477981 11.6253732,33.5812153 11.5005573,33.9200359 C11.4123723,34.163563 11.3906652,34.4415017 11.3906652,34.7035581 C11.3933786,37.8508825 11.4015188,40.9982068 11.4232259,44.1455311 C11.4259392,44.5147924 11.1980147,44.4671458 10.96602,44.480381 C10.6621206,44.5002338 10.4898205,44.441999 10.4938906,44.0714141 C10.506553,42.9252481 10.5059501,41.7784939 10.5041412,40.6315435 L10.5020308,38.9110199 L10.5237379,38.9110199 C10.5237379,37.1917708 10.5291646,35.4711982 10.5196678,33.7506256 C10.5186126,33.5735684 10.5577724,33.4749745 10.6856609,33.4511076 L10.7460439,33.4454432 Z M29.287898,37.308108 C29.2607641,37.840162 29.2580507,37.8679558 28.7018063,37.840162 C27.9529113,37.804427 27.201303,37.7806037 26.4510513,37.7395746 C26.1118779,37.7210454 25.9843487,37.8653088 25.9884188,38.1869235 C26.0087691,39.787056 26.000629,41.388512 26.0372597,42.9886446 C26.0589668,43.9151067 25.8649596,44.1811338 24.9220574,44.3042209 C24.0917608,44.4127493 24.0917608,44.4127493 23.6915362,43.7020204 C23.6535488,43.631874 23.616918,43.5617276 23.5504401,43.43467 C23.9031805,43.43467 24.201653,43.4214348 24.498769,43.4386405 C24.8989937,43.4624638 25.0794339,43.2890831 25.0821473,42.9039394 C25.0875741,41.7696851 25.1024977,40.6367542 25.1079245,39.5024998 C25.1106379,39.0750037 25.0902875,38.6488311 25.0997843,38.221335 C25.1065678,37.8891321 24.9776819,37.7210454 24.6195148,37.7369276 C23.9384544,37.768692 23.2533241,37.7673685 22.5736205,37.8242797 C22.2140967,37.8547206 22.1788226,37.6826634 22.2005297,37.4272245 C22.2222368,37.2048736 22.0811407,36.9189939 22.5478433,36.9216409 C24.6113746,36.9361996 26.6735491,36.9189939 28.7370804,36.9057587 C29.0382663,36.9031183 29.3109618,36.855465 29.287898,37.308108 Z M22.3252099,33.893036 C22.2126043,34.230533 22.1135657,34.5442066 22.0023168,34.8539096 C21.6970607,35.7089019 21.3918046,36.5638941 21.0784084,37.4162393 C20.9902233,37.655796 21.0743383,37.8212357 21.1991541,38.036969 C21.5111937,38.5769641 21.8381569,39.1328414 22.0023168,39.7244537 C22.2682288,40.6853273 21.678067,41.5495841 20.6741136,41.8473755 C20.4909599,41.9016398 20.3023795,41.9334041 20.0527479,41.9916389 L19.8781866,41.3527232 C19.8487916,41.2453222 19.8189443,41.1366467 19.7881926,41.0254713 C19.9021548,41.004295 19.9794864,40.9817951 20.056818,40.9738541 C20.9088216,40.8957665 21.3470337,40.3610655 21.0743383,39.5801903 C20.8871145,39.0388716 20.543871,38.5399056 20.2196212,38.0541747 C20.0730983,37.8371179 20.0310408,37.6796193 20.1300794,37.4374156 C20.4380489,36.6975694 20.729738,35.9484586 21.0119303,35.1993477 C21.1828738,34.7427342 21.1082556,34.6514115 20.6171325,34.6461175 C20.3173031,34.6421469 20.0161171,34.6514115 19.7149311,34.6447939 C19.4069616,34.6381764 19.2699355,34.767881 19.2712923,35.0762606 C19.2794324,37.3977101 19.2740056,39.7204831 19.2848592,42.0419326 C19.2875726,42.682515 19.3187766,43.3230974 19.3594773,43.9623563 C19.374401,44.201913 19.2780757,44.2601478 19.0569346,44.2694124 C18.2130711,44.3077944 18.2076444,44.2958827 18.3175365,43.4647138 C18.3650208,43.0954525 18.3636641,42.7195735 18.3623074,42.3463416 C18.355524,39.5696021 18.3446704,36.7941862 18.3351736,34.0187702 C18.3351736,33.9940646 18.3430122,33.9687707 18.3514539,33.9397513 L18.3636641,33.893036 L22.3252099,33.893036 Z M1.67307475,39.4375151 C1.94034343,39.5950136 2.16962467,39.6916304 2.34328147,39.849129 C2.44096342,39.9364811 2.51286819,40.1350087 2.48709101,40.2620664 C2.23745936,41.4466144 1.96205052,42.6245449 1.70020863,43.8064459 C1.64458418,44.0605613 1.52383844,44.1293842 1.26199654,44.0354145 C0.471044075,43.7495347 0.51988505,43.7733581 0.768160009,42.9951298 C1.08969643,41.9839625 1.32033437,40.9450014 1.58760305,39.9166284 C1.6201637,39.7895707 1.63508733,39.6585425 1.67307475,39.4375151 Z M7.81211404,33.9943182 L7.97559563,33.9948146 C8.58068105,34.0054027 8.61595509,34.0609904 8.45857861,34.6208382 C8.39210062,34.8630419 8.34325965,35.1184808 8.34325965,35.3673021 C8.33511948,37.7006632 8.33511948,40.0340244 8.34190295,42.368709 C8.34190295,42.7273822 8.37717699,43.0873789 8.41109433,43.4447287 C8.43822821,43.734579 8.27135487,43.7888432 8.03393346,43.7703139 C7.82228924,43.7544318 7.53467016,43.8576661 7.53738355,43.4791401 C7.55502057,40.3596096 7.5713009,37.2400792 7.59029461,34.1205487 C7.59029461,34.0967254 7.60928832,34.0729021 7.64456236,33.9948146 L7.81211404,33.9943182 Z M61.4073516,40.9322956 C60.9343176,40.9420014 60.4600778,40.9405309 59.985838,40.9384721 L59.274629,40.9362662 C58.5623647,40.9375897 57.8514571,40.9481779 57.1405496,40.9336191 C56.8217266,40.9283251 56.6928407,41.0527357 56.6982674,41.3571447 C56.7077643,41.877287 56.7104777,42.3974293 56.7009809,42.9175717 C56.6969108,43.2047749 56.8285101,43.338473 57.1161292,43.3371267 C57.5516278,43.3344797 57.9884832,43.3305091 58.4266953,43.3305091 C59.4102983,43.3318326 60.3952579,43.3331561 61.3788609,43.338473 C61.7221044,43.3397737 61.914755,43.2272748 61.8957612,42.8461017 C61.8713408,42.3669885 61.8781243,41.8865516 61.8916911,41.4061149 C61.9025448,41.0646474 61.7614486,40.925678 61.4073516,40.9322956 Z M23.5153016,39.3353396 C24.3591652,39.635778 24.3211777,39.5126909 23.9589406,40.2988602 C23.5288686,41.2279694 23.0173951,42.1213436 22.5520491,43.0372177 C22.4082395,43.3217739 22.2522198,43.3575089 21.9822377,43.1775105 C21.7963707,43.0544234 21.5657327,42.9948651 21.3188144,42.8916308 C21.6905486,42.2828127 22.0690661,41.7322295 22.3743222,41.1445879 C22.6388775,40.6403276 22.8315281,40.0976855 23.0323187,39.564308 C23.1272873,39.3088692 23.2426063,39.2373993 23.5153016,39.3353396 Z M40.2737258,42.0198298 L40.0561968,42.0201503 C39.4359996,42.0255891 39.4458195,42.0940729 39.4556394,42.8245284 C39.4597095,43.1408491 39.5709583,43.2824654 39.9101318,43.2811518 C41.5191706,43.2718773 43.1309228,43.2745243 44.7413183,43.2811518 C45.0709949,43.2824654 45.2229446,43.1514372 45.1971674,42.8271754 C45.1876706,42.7212941 45.1876706,42.6127656 45.1985241,42.5082078 C45.2378682,42.1376229 45.0574279,42.0132123 44.6965474,42.0198298 C44.1592967,42.027771 43.622046,42.0263004 43.0855992,42.0244376 L42.2816325,42.0224769 C41.6114258,42.0211534 40.9425758,42.0211534 40.2737258,42.0198298 Z M96.8740396,34.4001911 C94.4523417,34.4107961 92.032,34.4094725 89.6116582,34.4041785 C89.2331404,34.402855 89.0771009,34.5457948 89.0784775,34.9282914 C89.0893311,37.4892975 89.0906877,40.0516271 89.0771009,42.6126333 C89.0757642,42.9938063 89.2114337,43.1314521 89.6008049,43.1301286 C92.0347133,43.120864 94.4699788,43.1195404 96.9038872,43.132792 C97.3095385,43.1340992 97.4140044,42.9766006 97.4085768,42.6086628 C97.3977234,41.7721998 97.3983271,40.936325 97.3999348,40.1002541 L97.4017939,38.8459028 C97.4004368,37.5382676 97.3950101,36.2319559 97.4058635,34.9243208 C97.4085768,34.5524124 97.2634108,34.3988844 96.8740396,34.4001911 Z M27.6077684,39.2718107 C27.8451898,39.6371015 28.0771844,39.9772455 28.2901854,40.3293011 C28.7094037,41.0175302 29.1096284,41.7137003 29.5329169,42.3992823 C29.6577327,42.600457 29.625172,42.7195735 29.4108144,42.8016316 C29.1598261,42.8982484 28.9061244,42.9922181 28.6605628,43.0835408 C28.056834,41.9347277 27.468029,40.8137085 26.8507333,39.6437191 C27.0705177,39.5365142 27.317436,39.4147506 27.6077684,39.2718107 Z M94.2455811,34.9575411 C94.495213,34.9919525 94.8384565,34.9178356 94.7882592,35.3625374 C94.777405,35.4547424 94.7713755,35.5475358 94.7676573,35.6406722 L94.7529849,36.2016475 C94.7380611,36.5285562 94.9022214,36.668849 95.2278277,36.6450258 C95.5683579,36.619879 95.908888,36.6000262 96.2480611,36.5629676 C96.5478911,36.5312033 96.6699933,36.6410552 96.6713495,36.9401702 C96.6713495,37.2286969 96.6102989,37.4126659 96.2629849,37.3742839 C95.9631558,37.3411959 95.6633266,37.310755 95.3648537,37.2988434 C94.8750871,37.2789906 94.7869021,37.3623722 94.7855459,37.8388384 C94.7814754,38.9466225 94.7841888,40.0544066 94.7828326,41.1621906 C94.7814754,41.9854184 94.6430923,42.1720344 93.8480699,42.4393849 C92.8373336,42.7808524 92.7708554,42.7437939 92.4723825,41.6810094 C92.8346203,41.6320392 93.1846467,41.6307157 93.4993997,41.5261579 C93.66356,41.4705701 93.8724908,41.2402781 93.8792738,41.0827796 C93.9131919,40.1232295 93.8969109,39.1610323 93.8928414,38.2014822 C93.8928414,38.1551591 93.8507832,38.1101595 93.7856621,37.9738372 C93.647279,38.1419239 93.5455274,38.262364 93.4478453,38.3867747 C92.6840267,39.3582364 91.9500558,40.3535215 91.1482495,41.2945423 C90.6123552,41.9245366 90.4034243,41.8715959 89.8892376,41.1396908 C90.1768572,40.9239574 90.4780426,40.7188122 90.7575221,40.4885202 C91.6977106,39.7142626 92.4466053,38.7838299 93.089678,37.7673685 C93.2986088,37.4364891 93.226704,37.3001668 92.8264794,37.3014904 C92.0613046,37.3054609 91.2961289,37.3239902 90.5309541,37.3570781 C90.222984,37.3703133 90.0818885,37.2922257 90.085958,36.9639934 C90.0886714,36.6397316 90.2121306,36.5589971 90.5295969,36.5722323 C91.458932,36.6132613 92.3869109,36.6172319 93.316246,36.6476728 C93.6879801,36.6609079 93.8426432,36.5047329 93.825006,36.1473832 C93.8100831,35.8681211 93.841287,35.5862119 93.816866,35.3069497 C93.7883755,34.9681293 93.9850959,34.9191591 94.2455811,34.9575411 Z M40.134583,36.9504351 L40.0173106,36.9507582 C39.5099072,36.9560524 39.4651362,36.9931108 39.4624229,37.5092826 C39.4597095,38.6157431 39.4610661,39.7222037 39.4637796,40.8286642 C39.4651362,41.3342479 39.5058371,41.3713063 40.0254508,41.3713063 C41.4336989,41.3699828 42.8405903,41.3660123 44.2474817,41.3660123 C45.2717856,41.3646888 45.2650021,41.3633652 45.1985241,40.3574921 C45.1795304,40.0689652 45.0533578,39.9472016 44.7711656,39.9472016 C44.4428457,39.9472016 44.1145258,39.9524957 43.7875626,39.9392606 C43.2733756,39.9180843 43.054948,39.6930863 43.0440944,39.1848556 C43.0305274,38.5985374 43.0278141,38.0122192 43.010177,37.425901 C43.0047502,37.3001668 42.9667628,37.0738454 42.9138518,37.0659043 C42.571965,37.008993 42.2178679,36.9586994 41.8814078,37.0023754 C41.7796558,37.0156106 41.6602668,37.3398724 41.6575534,37.5238413 C41.6426298,38.3258929 41.4703296,39.0829448 41.0633215,39.781762 C40.6536,40.4819027 40.5898354,40.4898438 39.869431,39.9260254 C40.4338156,39.3569129 40.7214347,38.681919 40.8476072,37.9288376 C40.9795765,37.127508 40.9265421,36.9682484 40.2420489,36.9518809 L40.134583,36.9504351 Z M76.4384331,33.3840113 C76.6283702,33.6275385 76.7830333,33.8962125 76.9689004,34.1437103 C77.1235634,34.3501789 77.0977862,34.4944423 76.8766452,34.6387058 C76.7803199,34.7009111 76.7301222,34.8292923 76.6595742,34.9272326 C76.7830333,34.9656146 76.9064924,35.0370845 77.0272382,35.035761 C78.2848932,35.0212023 79.5425484,34.9947319 80.8002035,34.9722321 C80.9060256,34.9709086 81.0118477,34.9722321 81.1665109,34.9722321 C81.1665109,35.1310542 81.157014,35.2607589 81.1678675,35.3904636 C81.1936447,35.7054608 81.0403383,35.7491368 80.7459358,35.7385487 C79.5154145,35.6948726 78.2848932,35.6842845 77.0557287,35.6591376 C76.7029883,35.6511965 76.6188733,35.8510477 76.6215868,36.1488391 C76.6229434,36.4439835 76.6595742,36.6875107 77.0516586,36.6835401 C77.8995922,36.675599 78.7475258,36.6742755 79.5954594,36.6703049 C79.7189186,36.6703049 79.8640848,36.6266289 79.9590534,36.675599 C80.0865826,36.7430984 80.2426024,36.867509 80.2670229,36.9919196 C80.3185773,37.2367704 80.102863,37.2063295 79.9373463,37.2010354 C79.0229347,37.1705945 78.1085231,37.1428007 77.1941115,37.1083892 C76.8345876,37.0951541 76.61616,37.2063295 76.6243001,37.6033847 C76.6310835,38.0361749 76.7070584,38.1394092 77.1846147,38.1407328 C78.073249,38.1433798 78.9618835,38.1248506 79.8518746,38.1089683 C80.0743723,38.1063213 80.2792331,38.1129389 80.2480291,38.4147009 C80.2181819,38.7045512 79.9956841,38.6357283 79.8111737,38.6291107 C78.8967622,38.6013168 77.9837072,38.5735229 77.0679389,38.540435 C76.6487206,38.5258763 76.6310835,38.7892563 76.62023,39.0976358 C76.6066631,39.4271916 76.7084151,39.5992489 77.0760791,39.5939548 C78.2658996,39.5754256 79.45572,39.5767491 80.6441837,39.5555728 C80.9589367,39.5489553 81.0484785,39.6720424 81.0403383,39.9592457 C81.0349116,40.1961552 80.9643634,40.2782134 80.7038783,40.2768898 C78.2564027,40.2517429 75.8075705,40.2411549 73.3587382,40.2252726 L73.224851,40.2234786 C72.9806863,40.221537 72.7559487,40.2463471 72.7536528,40.6170338 C72.7536528,40.668651 72.6288369,40.7573266 72.5555756,40.7639442 C72.4135749,40.7771794 72.2703683,40.7757088 72.1191221,40.7732578 L71.8853688,40.7705618 L71.8853688,36.6769226 C71.8528081,36.6623638 71.8202475,36.6491286 71.7863301,36.63457 C71.6872915,36.7285397 71.5801127,36.8158918 71.4905709,36.9191262 C71.3413346,37.0911835 71.2124486,37.2817699 71.0591423,37.4511802 C70.5232483,38.0414689 70.5001844,38.0388219 69.8557549,37.4286804 C69.9290164,37.3439753 69.9954944,37.2473585 70.0782527,37.1679475 C71.0754226,36.2017798 71.9030059,35.112525 72.5827094,33.9160653 C72.9354498,33.2953356 73.4781273,33.2238656 74.0872827,33.7572431 C73.8145874,34.0338583 73.5364651,34.3051794 73.2759799,34.5910591 C73.2027184,34.6731172 73.1796546,34.7962043 73.1308137,34.9007622 C73.248846,34.9484089 73.364165,35.035761 73.4821973,35.0370845 C74.2894302,35.0476726 75.0966629,35.0489961 75.902539,35.0370845 C76.3027637,35.0317904 76.3665283,34.9126738 76.1616675,34.5672358 C76.0246414,34.3369438 75.8645516,34.1185634 75.703105,33.9054771 C75.566079,33.7254788 75.5687924,33.5745978 75.7885767,33.4938632 C75.9961509,33.4170992 76.1670943,33.0346027 76.4384331,33.3840113 Z M3.71011229,36.7178995 L3.78137686,36.7254956 C4.24129605,36.751966 4.32541106,36.8525533 4.25621967,37.2416674 C4.11919361,38.0265132 3.96046044,38.808712 3.85056824,39.5975284 C3.79474998,40.005928 3.57347047,39.9777289 3.32342745,39.9304991 L3.19664185,39.9072314 C2.83033453,39.8476731 2.97685746,39.6226751 3.0121315,39.4215005 C3.15051426,38.6366547 3.30110727,37.8531324 3.40557269,37.0643161 C3.43617367,36.8409357 3.50945188,36.7376524 3.6471107,36.7202161 L3.71011229,36.7178995 Z M9.37651761,36.7239074 C9.63700286,37.6741929 9.8812077,38.6297725 10.1511897,39.6700571 C10.012807,39.7441741 9.89206125,39.856673 9.76995883,39.859342 C9.67227684,39.8606436 9.5040468,39.7428506 9.48505314,39.6541749 C9.32496323,38.9527106 9.19743403,38.2446289 9.05226776,37.5391941 C9.00885358,37.3181667 8.91931179,37.1011099 8.90574488,36.8800825 C8.9003181,36.7914068 9.029204,36.6669962 9.12688599,36.6140554 C9.17708361,36.5875851 9.36023729,36.6656726 9.37651761,36.7239074 Z M6.63301149,36.8894794 C6.80938168,37.7524128 6.9572613,38.6206401 7.1295614,39.5815137 C7.06037002,39.6437191 6.95047783,39.8197469 6.86229273,39.8104823 C6.73205013,39.7946001 6.53125946,39.6648954 6.51090905,39.5563669 C6.40508693,39.0203424 6.35760265,38.4737298 6.27484433,37.9337346 C6.22600336,37.617414 6.12289463,37.3090345 6.09169067,36.9927138 C6.08219382,36.9040381 6.22328997,36.7333044 6.31418845,36.7187456 C6.4118704,36.7028635 6.61808785,36.8087449 6.63301149,36.8894794 Z M75.4819639,38.5417586 C74.6923682,38.5417586 73.9027724,38.5444055 73.1131766,38.5417586 C72.7075252,38.5391115 72.7170221,38.8157266 72.7020984,39.0910182 C72.6871748,39.376898 72.7346591,39.5966019 73.1050365,39.5899843 C73.4984777,39.5833667 73.8932756,39.5886608 74.2880734,39.5899843 C74.6828713,39.5899843 75.0776692,39.5846902 75.4724671,39.5913078 C75.7695831,39.5966019 75.9052525,39.4695442 75.8645516,39.1783704 C75.8292776,38.9149904 75.9771572,38.543082 75.4819639,38.5417586 Z M43.7495752,37.1625211 C43.7278681,37.1916385 43.7292248,37.2392851 43.7292248,37.2789906 C43.7292248,37.8110446 43.7020909,38.3470691 43.7495752,38.8764761 C43.7604287,39.0207394 43.9639328,39.2325022 44.1172392,39.2708842 C44.9719562,39.4892646 45.2012375,39.3026486 45.1998927,38.4622151 L45.1993757,38.3022349 L45.1998927,38.1432475 C45.194454,37.8758969 45.1930973,37.60987 45.1958107,37.3438429 C45.1985241,37.1069333 45.0981288,36.9309055 44.8403569,36.9626699 C44.4740496,37.0076696 44.0439777,36.7601718 43.7495752,37.1625211 Z M1.20569375,36.6065114 C1.57607115,36.8540091 1.95187532,37.0948894 2.32360941,37.33974 C2.74825456,37.6176787 2.75503803,37.6626783 2.43892838,38.0372337 C2.34531651,38.1484091 2.24356447,38.252967 2.14723923,38.3601719 C1.44040177,37.8784116 0.785118681,37.4323863 0.127122206,36.9837139 C0.359116839,36.3179846 0.629098898,36.2226913 1.20569375,36.6065114 Z M36.2676804,36.6147172 C36.5715798,36.8145683 36.8632689,37.0329487 37.1603849,37.2447115 C37.4371504,37.4419156 37.5226221,37.6576489 37.2377164,37.9223524 C37.1210408,38.0295573 37.0301423,38.1632326 36.91618,38.2995549 C36.3653624,37.931617 35.8538888,37.6033847 35.3627656,37.251329 C35.2840774,37.1944178 35.2298097,36.9972138 35.2691537,36.9085381 C35.543206,36.2970731 35.7127927,36.25075 36.2676804,36.6147172 Z M73.1498074,37.1083833 C72.7767166,37.1070656 72.7048118,37.3307401 72.7007417,37.6351491 C72.695315,37.9514697 72.792997,38.1513209 73.1606609,38.1447033 L73.7333553,38.14156 L74.3070672,38.1433798 L74.3070672,38.1235271 C74.6882981,38.1235271 75.0708857,38.1116154 75.45076,38.126174 C75.8591248,38.1420563 75.8686217,37.8786763 75.8794753,37.5980906 C75.8903288,37.2989757 75.7899335,37.1097127 75.4439765,37.1110362 C74.6788013,37.1150068 73.9149827,37.1123598 73.1498074,37.1083833 Z M104.994802,33.1816455 C106.149349,33.1882631 107.001352,34.0538434 106.999998,35.2172152 C106.997282,36.3766165 106.130354,37.2461674 104.979878,37.2409211 C103.771064,37.2355792 102.887857,36.3607342 102.90278,35.1814803 C102.917703,34.0128144 103.794128,33.1737043 104.994802,33.1816455 Z M104.973095,33.3549731 C103.92437,33.3603203 103.129348,34.1544307 103.132047,35.1960389 C103.133418,36.2429411 103.931154,37.066169 104.950031,37.0727866 C105.998755,37.0794041 106.763931,36.3011759 106.762577,35.2238328 C106.761217,34.131931 106.010965,33.3497321 104.973095,33.3549731 Z M73.062979,35.6684022 C72.6803913,35.6750199 72.7156654,35.9741348 72.7075252,36.2242796 C72.6993851,36.4770714 72.7604362,36.678246 73.0819727,36.675599 C73.4767705,36.672952 73.8729252,36.675599 74.2677231,36.675599 C74.6774445,36.675599 75.0858094,36.6703049 75.4955309,36.675599 C75.8265642,36.6808931 75.8713351,36.4678068 75.8604815,36.222956 C75.8509846,35.9794288 75.9120359,35.6710493 75.5158813,35.6670788 C74.6977949,35.6578142 73.8797086,35.6564906 73.062979,35.6684022 Z M42.0632048,34.532692 C41.7972928,34.5379861 41.6534833,34.6557791 41.6521266,34.9178356 C41.6507699,35.2765088 41.6344896,35.6378291 41.6656935,35.9938552 C41.6765471,36.1063541 41.8013629,36.2704703 41.9085417,36.3048818 C42.7117045,36.5589971 43.0590181,36.2969407 43.0345975,35.4803305 C43.0345975,35.4670953 43.0332409,35.4538601 43.0332409,35.4406249 C43.0318842,34.5234274 43.1851906,34.5101922 42.0632048,34.532692 Z M104.557132,34.1189605 C104.801338,34.1229311 105.053682,34.1070488 105.289747,34.1573425 C105.740169,34.2539592 105.890763,34.6748378 105.586863,35.0110112 C105.405066,35.2135093 105.419989,35.3365965 105.559729,35.5563004 C105.683188,35.7468868 105.691328,36.0062963 105.751023,36.2352648 L105.751023,36.2352648 L105.613996,36.2987936 C105.558372,36.1677654 105.517671,36.028796 105.443053,35.9096795 C105.327735,35.7270341 105.225982,35.4954185 105.052326,35.3961548 C104.713152,35.2042447 104.479801,35.3683609 104.460807,35.7508574 C104.452667,35.9189441 104.445884,36.0870308 104.340062,36.2670292 C104.316998,36.1942357 104.272226,36.1214423 104.27087,36.0486488 C104.257303,35.5152713 104.257303,34.9818938 104.245093,34.4471928 C104.239666,34.2314594 104.335991,34.1163134 104.557132,34.1189605 Z M1.89502985,33.5191424 C2.5136822,33.9241387 3.11741093,34.3489878 3.78761766,34.8122189 C3.47015131,35.1086868 3.24629684,35.3178026 3.01158882,35.5361829 C2.37529945,35.0676577 1.74036676,34.6017796 1.0565931,34.098843 C1.22346643,33.9214916 1.38219961,33.7269346 1.57078004,33.5681126 C1.6440415,33.5059072 1.82719516,33.4728193 1.89502985,33.5191424 Z M36.9517254,33.5274806 C37.2529114,33.7538021 37.5323903,34.0079174 37.8254362,34.244827 C38.0085899,34.3930609 38.0235135,34.5240891 37.8498567,34.7040875 C37.68434,34.8748212 37.5595242,35.08129 37.4170713,35.2718764 C37.3750138,35.2401121 37.3343131,35.2083476 37.2922556,35.1752597 C37.2312043,35.1276131 37.166083,35.083937 37.1063884,35.0336434 C36.7278709,34.7107051 36.3629203,34.3745317 35.9721925,34.0674756 C35.7998924,33.9311533 35.8026058,33.8358601 35.9260649,33.6770381 C36.3249329,33.1621898 36.4361817,33.1357194 36.9517254,33.5274806 Z M104.867815,34.2261654 C104.493368,34.191754 104.44724,34.4379281 104.456737,34.6867495 C104.454024,35.1129221 104.524571,35.2121858 104.814904,35.2188034 C105.190708,35.2280681 105.482397,35.0030701 105.464761,34.7052787 C105.441697,34.345282 105.171715,34.2526357 104.867815,34.2261654 Z M23.5825257,34.1230504 L23.6508354,34.1243869 C24.1510032,34.1367397 24.6517739,34.1355633 25.1531476,34.1334064 L25.9056604,34.1310045 C26.6437018,34.1376221 27.3817432,34.1521808 28.1184279,34.1310045 C28.4209707,34.1217399 28.5362896,34.2051214 28.5322196,34.5068834 C28.5281495,34.7980572 28.4955888,35.004526 28.1170713,34.9780556 C27.4902788,34.9317325 26.8621296,34.8787918 26.235337,34.8814389 C25.3751932,34.8840859 24.5136927,34.9211443 23.6562622,34.9740851 C23.249254,34.9992319 23.1814194,34.8192335 23.1800066,34.4790896 C23.1777968,34.1768864 23.311209,34.1274384 23.5182624,34.1231798 L23.5825257,34.1230504 Z M53.8089167,0.0704169434 C56.7000312,0.323208764 59.3482974,1.26952369 61.5895555,3.13833024 C61.9829967,3.46656255 62.3330237,3.84641204 62.7115413,4.1931736 C62.9014784,4.36787789 62.8567074,4.49758259 62.6830506,4.65508116 C61.5217208,5.70727749 60.3563208,6.75947381 59.2085579,7.82622881 C58.9494294,8.0684325 58.7825561,8.04196215 58.5274976,7.82225826 C57.3091867,6.77667953 55.942996,5.98653965 54.3488809,5.61992534 C50.5501383,4.74640386 46.5207578,6.24594906 44.9849805,10.200619 C43.8670648,13.0792693 43.9674602,15.9671843 45.5344415,18.6962771 C46.8355108,20.9594918 48.9085389,22.154628 51.5256011,22.382273 C53.7655026,22.5768301 55.8507409,22.110952 57.6307231,20.6722886 C58.7242182,19.7895025 59.4391958,18.6870124 59.7335984,17.3290836 C59.7593756,17.2126141 59.7702291,17.0921741 59.7824394,16.9730575 C59.8163567,16.6712955 59.6901842,16.5323261 59.3659344,16.5362967 C58.5573449,16.5482084 57.7501122,16.5402672 56.944236,16.5402672 C55.4111721,16.5402672 53.8794648,16.5283556 52.3464008,16.5495319 C51.9258258,16.554826 51.7915131,16.3986509 51.7942266,16.0161544 C51.8023667,14.6145495 51.7915131,13.2142681 51.7982966,11.8126631 C51.8008291,11.3605496 51.8600895,11.2831386 52.2871357,11.2737505 L52.3843883,11.2726681 L58.911442,11.2726681 L58.911442,11.270021 L65.3486215,11.2702331 C65.9328487,11.2731856 65.9500491,11.3163441 66.0381543,11.9304562 C66.2579387,13.4723539 66.2837159,15.0168987 66.0571481,16.5587966 C65.7749557,18.4686321 65.1400231,20.2593511 64.0478846,21.8806599 C62.0060605,24.9168088 59.1217295,26.7472333 55.5007138,27.4764914 C52.8565177,28.0085454 50.2136782,27.9185463 47.6386735,27.1217888 C44.7299221,26.2217969 42.3340009,24.5899 40.5974328,22.0924227 C39.1118532,19.9562657 38.3982323,17.5845225 38.2367857,15.0341045 C38.0794092,12.5670681 38.354818,10.15959 39.3750518,7.87387544 C40.8416378,4.59287584 43.3135338,2.3203965 46.7188352,1.00084967 C49.0048641,0.116740052 51.3926451,-0.142669355 53.8089167,0.0704169434 Z M5.45662232,0.601147414 C5.68997365,0.601147414 5.82021625,0.688499562 5.808006,0.932026764 L5.80664932,1.09167604 L5.8093627,1.25231797 L5.80921911,26.6867734 C5.8069967,27.1931076 5.77041761,27.1919351 5.16900325,27.1919351 C3.62508574,27.1919351 2.07981154,27.1839941 0.53318065,27.2015408 C0.168230027,27.2051704 0.00542677506,27.1456121 0.00678346882,26.726057 C0.0176370189,23.8707889 0.018239994,21.0161089 0.0174360273,18.161233 L0.0162803252,13.8786739 L0,13.8786739 C0,9.90282759 0,5.92698137 0.00135669376,1.95245867 C0.00135669376,1.60569711 0.023063794,1.25893556 0.0135669376,0.912173999 C0.00678346882,0.681881975 0.111248889,0.602470932 0.329676584,0.602470932 C2.03911073,0.603794449 3.74718818,0.603794449 5.45662232,0.601147414 Z M16.104362,0.594355831 C16.5018733,0.590559275 16.6171922,0.718940461 16.6158356,1.10011346 C16.604982,4.26464353 16.6104088,7.42785009 16.6104088,10.5897331 C16.6104088,11.2726681 16.6117655,11.2726681 17.3267431,11.2726681 C20.8975611,11.2726681 24.4683791,11.2713446 28.0378404,11.2713446 C28.5805179,11.2713446 28.6076517,11.2488447 28.6076517,10.6982615 C28.6090084,7.53505499 28.6076517,4.37317196 28.6090084,1.2086419 C28.6090084,0.603794449 28.6103651,0.602470932 29.2480112,0.602470932 C30.7946421,0.601147414 32.3385595,0.601147414 33.8851905,0.602470932 C34.4346514,0.602470932 34.4509318,0.617029623 34.4509318,1.13055437 C34.4522885,9.64606526 34.4522885,18.1615761 34.4522885,26.677087 C34.4522885,27.1667884 34.427868,27.1906117 33.9136811,27.1919351 C32.3127824,27.1932587 30.7118838,27.1826705 29.1109852,27.2001718 C28.7121172,27.2051704 28.5995115,27.0728186 28.6008683,26.6942927 C28.6130785,23.5178509 28.6076517,20.3414092 28.6076517,17.1649675 C28.6063749,16.57826 28.6038962,16.5425754 28.0753925,16.5404074 L17.256195,16.5402672 C16.6266891,16.5415908 16.6104088,16.557473 16.6104088,17.1676145 C16.609052,20.3308211 16.6104088,23.4940276 16.609052,26.6572342 C16.609052,27.1906117 16.6076954,27.1919351 16.0636612,27.1919351 C14.4641192,27.1932587 12.8632206,27.1945822 11.2623219,27.1932587 C10.7586494,27.1932587 10.7247851,27.189769 10.7225192,26.7476621 L10.7225192,1.05157179 C10.7247797,0.607279022 10.7585646,0.603711729 11.2609653,0.602470932 C12.8754308,0.601147414 14.4898964,0.611735553 16.104362,0.594355831 Z M69.5164458,1.12248091 C71.1051343,1.11189277 72.2732475,2.18526537 72.2949547,3.67686947 C72.3180184,5.15391486 71.1526185,6.28949278 69.5937774,6.30537499 C68.0647835,6.30272795 66.9563647,5.27303143 66.8953134,3.75892754 C66.8369756,2.33349932 68.0688536,1.13042201 69.5164458,1.12248091 Z M69.5707135,1.36997867 C68.2167332,1.39644901 67.1978562,2.42085146 67.2222766,3.73378071 C67.2466972,5.07847437 68.288638,6.07773 69.6548286,6.06449483 C70.9653948,6.05258317 71.9829151,4.98715167 71.9584946,3.65039912 C71.9367874,2.34938153 70.8853498,1.34615535 69.5707135,1.36997867 Z M69.9878969,2.48702733 C70.1886876,2.53335044 70.4586696,2.74776026 70.492587,2.92378807 C70.5373579,3.16069768 70.4654531,3.51540034 70.2972231,3.67289891 C70.0475914,3.908485 70.0923623,4.06201302 70.2429553,4.28304042 C70.3677711,4.46700934 70.4803767,4.65627233 70.5997658,4.84288828 C70.5672051,4.87994677 70.5346445,4.91435822 70.5020839,4.9514167 C70.363701,4.86538808 70.1927577,4.80450627 70.0910056,4.68803674 C69.9336292,4.50803838 69.8373039,4.27509933 69.6826408,4.09245393 C69.610736,4.00774881 69.4574296,3.94421997 69.3461807,3.95083757 C69.2864862,3.95613163 69.2105113,4.12554186 69.1928744,4.22877621 C69.1630271,4.38495126 69.1996578,4.55171446 69.1643838,4.70524248 C69.1467467,4.78333 69.0273578,4.90244656 68.9703766,4.89450546 C68.8740513,4.88127028 68.7180316,4.78200648 68.7166749,4.71583061 C68.6976811,4.02363102 68.7003945,3.33010791 68.7166749,2.63923183 C68.7180316,2.57305596 68.853701,2.45790995 68.9283191,2.45526292 C69.2824161,2.44335126 69.6500802,2.41026333 69.9878969,2.48702733 Z M69.5415446,2.70011364 C69.2091547,2.70011364 69.1820208,2.918494 69.1820208,3.1620212 C69.1738806,3.56966455 69.2498555,3.66892836 69.5673218,3.66892836 C69.9051386,3.66892836 70.1439167,3.46378316 70.1398466,3.17657989 C70.1357765,2.90658235 69.8739346,2.70011364 69.5415446,2.70011364 Z" id="Combined-Shape"></path>
        </g>
    </g>
</svg>