<?xml version="1.0" encoding="UTF-8"?>
<svg width="176px" height="60px" viewBox="0 0 176 60" version="1.1" xmlns="http://www.w3.org/2000/svg" xmlns:xlink="http://www.w3.org/1999/xlink">
    <!-- Generator: Sketch 56 (81588) - https://sketch.com -->
    <title>画板</title>
    <desc>Created with Sketch.</desc>
    <g id="画板" stroke="none" stroke-width="1" fill="none" fill-rule="evenodd">
        <g id="image2vector" transform="translate(2.000000, 12.000000)">
            <path d="M158.837191,5.80464706 C157.783779,5.91945588 157.153691,6.15179412 156.177,6.78514706 C155.878824,6.97885294 155.073529,7.76619118 155.073529,7.86467647 C155.073529,7.90929412 155.000618,8.02519118 154.911926,8.12204412 C154.644221,8.41260294 154.375971,9.00242647 154.250824,9.57320588 C154.185529,9.86920588 154.099559,10.1341912 154.05875,10.1619412 C154.018485,10.1902353 153.958632,10.9574412 153.925441,11.8672059 L153.865588,13.5218676 L152.655471,13.4941176 L151.445897,13.4669118 L151.445897,15.0764118 L151.445897,16.6864559 L152.669618,16.6864559 L153.893338,16.6864559 L153.916735,22.9661176 L153.940132,29.2463235 L155.912559,29.2708088 L157.884985,29.2952941 L157.884985,22.9906029 L157.884985,16.6864559 L160.514706,16.6864559 L163.144426,16.6864559 L163.147147,20.6993235 C163.149324,24.6458088 163.217882,26.1992647 163.403426,26.5366176 C163.455118,26.6302059 163.561221,26.9109706 163.639029,27.1607206 C163.88225,27.9404412 164.58525,28.7827353 165.248529,29.0879853 C165.462912,29.1864706 165.801897,29.3437206 166.001044,29.4362206 C166.659971,29.7425588 169.498088,29.7077353 170.112397,29.3861618 C170.195647,29.3426324 170.395882,29.25775 170.558029,29.1973529 L170.852941,29.0885294 L170.852941,27.5122206 C170.852941,26.6171471 170.817029,25.9364559 170.769691,25.9364559 C170.723985,25.9364559 170.489471,26.0207941 170.248426,26.1247206 C169.624324,26.3924265 168.694426,26.4560882 168.193294,26.2645588 C167.178515,25.8771471 167.134985,25.6448088 167.134985,20.6574265 L167.134985,16.6864559 L168.995868,16.6864559 L170.857294,16.6864559 L170.832265,15.0921912 L170.807779,13.4979265 L168.971382,13.5082647 L167.134985,13.5191471 L167.134985,11.2180735 C167.134985,9.953 167.112132,8.89469118 167.083838,8.86694118 C167.026706,8.80926471 166.187676,9.01494118 165.910721,9.15423529 C165.810603,9.20483824 165.259956,9.37297059 164.686456,9.52858824 C164.112956,9.68420588 163.60475,9.84798529 163.557412,9.89314706 C163.510074,9.93830882 163.397441,9.97530882 163.307662,9.97530882 C163.156397,9.97530882 163.144426,10.1015441 163.144426,11.7436912 L163.144426,13.5120735 L160.514706,13.5120735 L157.884985,13.5120735 L157.885529,12.4918529 C157.886618,11.0069559 158.183706,9.61292647 158.499838,9.61292647 C158.536838,9.61292647 158.680485,9.50736765 158.819235,9.37841176 C159.316015,8.91808824 161.211176,8.82939706 161.512074,9.25272059 C161.537103,9.28754412 161.649191,9.34467647 161.761824,9.38004412 L161.965868,9.44370588 L161.965868,7.72102941 L161.965868,5.99835294 L161.489765,5.90748529 C160.785132,5.77308824 159.558147,5.72575 158.837191,5.80464706 M76.0856029,6.87547059 C73.3878676,7.61927941 73.8013971,11.2409265 76.5845588,11.2409265 C78.4628529,11.2409265 79.4868824,9.61401471 78.6364265,7.98166176 C78.2234412,7.18942647 76.9502059,6.63714706 76.0856029,6.87547059 M47.5194265,18.3188088 L47.5194265,29.2914853 L49.3786765,29.2914853 L51.2379265,29.2914853 L51.2444559,21.0165441 C51.2515294,12.7465 51.2515294,12.7416029 51.4234706,13.3238088 C51.5176029,13.6442941 51.6291471,13.9299559 51.6710441,13.9587941 C51.7123971,13.9876324 51.8620294,14.3375 52.0024118,14.7363382 C52.1433382,15.1357206 52.3141912,15.5519706 52.38275,15.6618824 C52.4507647,15.7723382 52.6276029,16.1951176 52.7761471,16.6021176 C52.9246912,17.0085735 53.0824853,17.3878235 53.1271029,17.4449559 C53.1717206,17.5015441 53.3414853,17.9254118 53.5047206,18.3868235 C53.6679559,18.8482353 53.8371765,19.2253088 53.8801618,19.2253088 C53.9231471,19.2253088 53.9585147,19.2797206 53.9585147,19.3461029 C53.9585147,19.4739706 54.3257941,20.4484853 54.5456176,20.9033676 C54.6179853,21.053 54.8046176,21.5018971 54.9607794,21.9007353 C55.1163971,22.2995735 55.2752794,22.6668529 55.3133676,22.7169118 C55.3514559,22.7669706 55.5136029,23.1739706 55.6735735,23.6212353 C55.8335441,24.0685 55.9973235,24.4765882 56.0375882,24.5282794 C56.0773088,24.5794265 56.2459853,24.9886029 56.4124853,25.4375 C56.5784412,25.8863971 56.7405882,26.2738088 56.7726912,26.2988382 C56.8047941,26.3238676 56.8553971,26.4261618 56.8847794,26.5257353 C56.9995882,26.9109706 57.2400882,27.5225588 57.4865735,28.05525 C57.6280441,28.3610441 57.7929118,28.7658676 57.8538529,28.9541324 L57.9643088,29.2963824 L59.3267794,29.2713529 L60.68925,29.2463235 L60.8960147,28.7022059 C61.2861471,27.6743676 61.7540882,26.5480441 61.8335294,26.4462941 C61.8770588,26.39025 62.0239706,26.0180735 62.16,25.6192353 C62.2960294,25.2203971 62.4391324,24.8531176 62.4788529,24.8030588 C62.5180294,24.753 62.6823529,24.3449118 62.8439559,23.8960147 C63.0055588,23.4471176 63.1905588,22.9944118 63.2558529,22.8904853 C63.3211471,22.7865588 63.4849265,22.3784706 63.6198676,21.9839853 C63.7548088,21.5889559 63.9022647,21.2195 63.9474265,21.1629118 C63.9925882,21.1063235 64.1536471,20.7183676 64.3054559,20.3015735 C64.4567206,19.8842353 64.6324706,19.4614559 64.6961324,19.3613382 C64.75925,19.2617647 64.9230294,18.8536765 65.0601471,18.4548382 C65.1972647,18.056 65.3414559,17.6887206 65.3806324,17.6386618 C65.4198088,17.5886029 65.5857647,17.1805147 65.749,16.7316176 C65.9122353,16.2827206 66.0700294,15.8947647 66.1005,15.8702794 C66.1565441,15.8240294 66.2441471,15.6069265 66.5918382,14.6460147 C66.7006618,14.34675 66.8122059,14.0812206 66.8410441,14.0561912 C66.9079706,13.9974265 67.2719853,12.9761176 67.3073529,12.7475882 C67.3220441,12.6507353 67.3209559,16.3338676 67.3046324,20.9316618 L67.2747059,29.2914853 L69.2770588,29.2914853 L71.2794118,29.2914853 L71.2794118,18.3171765 L71.2794118,7.34286765 L68.5969118,7.36680882 L65.9144118,7.39075 L65.7076471,7.98057353 C65.5944706,8.30432353 65.3730147,8.84354412 65.2163088,9.17817647 C65.0596029,9.51280882 64.9311912,9.81479412 64.9311912,9.84961765 C64.9311912,9.88444118 64.8234559,10.1412647 64.6912353,10.4203971 C64.5590147,10.6995294 64.3576912,11.1930441 64.2439706,11.5173382 C64.1297059,11.8410882 63.9115147,12.3813971 63.7586176,12.7165735 C63.6057206,13.0522941 63.4805735,13.3695147 63.4805735,13.42175 C63.4805735,13.4734412 63.3619559,13.7705294 63.2172206,14.0812206 C62.9359118,14.6846471 62.5082353,15.7277206 62.1480294,16.6864559 C62.0266912,17.0102059 61.8493088,17.4389706 61.7540882,17.6386618 C61.4891029,18.1952941 61.1223676,19.1518529 61.1223676,19.28625 C61.1223676,19.3526324 61.0864559,19.4070441 61.0423824,19.4070441 C60.9983088,19.4070441 60.9411765,19.4783235 60.9150588,19.5653824 C60.7926324,19.9778235 60.3638676,21.0894559 60.3121765,21.1297206 C60.2800735,21.15475 60.1152059,21.6243235 59.9448971,22.1727941 C59.4856618,23.6576912 59.4541029,23.7012206 59.2620294,23.1092206 C59.1760588,22.8436912 59.052,22.5036176 58.9867059,22.3539853 C58.9214118,22.2043529 58.8066029,21.8985588 58.7326029,21.6738382 C58.5938529,21.2559559 58.3691324,20.6813676 58.2184118,20.35925 C58.1716176,20.2591324 58.0078382,19.8325441 57.8549412,19.4103088 C57.7015,18.9886176 57.54425,18.6006618 57.5056176,18.5489706 C57.4669853,18.4972794 57.3200735,18.1283676 57.1796912,17.7289853 C57.0387647,17.3301471 56.8896765,16.9596029 56.8483235,16.9057353 C56.8069706,16.8518676 56.6317647,16.4231029 56.4587353,15.9535294 C56.28625,15.4834118 55.9641324,14.6607059 55.7426765,14.1242059 C55.5217647,13.58825 55.3661471,13.1491471 55.3977059,13.1480588 C55.4292647,13.1475147 55.4113088,13.1165 55.3590735,13.0800441 C55.3062941,13.0435882 55.1463235,12.6871912 55.0032206,12.2878088 C54.8606618,11.8889706 54.7191912,11.5418235 54.6892647,11.5173382 C54.6593382,11.4923088 54.538,11.1859706 54.4188382,10.8371912 C54.3002206,10.4878676 54.1244706,10.0389706 54.0287059,9.83927941 C53.9323971,9.64013235 53.7299853,9.12975 53.5787206,8.70588235 C53.4274559,8.28201471 53.2734706,7.91473529 53.2364706,7.88970588 C53.2000147,7.86467647 53.1428824,7.73191176 53.1091471,7.59479412 L53.0482059,7.34558824 L50.2835441,7.34558824 L47.5194265,7.34558824 L47.5194265,18.3188088 M87.5120735,13.2530735 C86.7231029,13.3836618 84.7914853,14.0833971 84.7914853,14.2390147 C84.7914853,14.2776471 84.7000735,14.3326029 84.5874412,14.3614412 C84.0215588,14.5083529 82.4974853,16.0416765 82.0513088,16.9128088 C81.9490147,17.1125 81.8314853,17.2975 81.7906765,17.3241618 C81.6992647,17.3829265 81.1643971,18.9989559 81.1643971,19.2155147 C81.1643971,19.3009412 81.1230441,19.4113971 81.0729853,19.462 C80.4641176,20.0703235 81.0626471,25.3270441 81.7993824,25.8455882 C81.8352941,25.8706176 81.9620735,26.0746618 82.0817794,26.2988382 C82.6966324,27.4518235 84.1325588,28.6249412 85.5211471,29.10975 C85.8976765,29.2408824 86.2442794,29.3725588 86.2921618,29.4019412 C86.5239559,29.5450441 87.5806324,29.6544118 88.7303529,29.6538697 C90.0101176,29.6533235 90.8932206,29.5559265 91.4117647,29.3578676 C91.4863088,29.3290294 91.8209412,29.2185735 92.1550294,29.1113824 C92.4891176,29.0047353 92.8667353,28.8355147 92.9940588,28.7353971 L93.2253088,28.5531176 L93.2253088,26.8364265 C93.2253088,25.1099412 93.1899412,24.9292941 92.9037353,25.2024412 C91.4455,26.5921176 88.1018971,26.7461029 86.5206912,25.4962647 C85.3807647,24.5952059 84.9443824,23.50425 84.9362206,21.5378088 C84.9258824,18.8482353 86.0821324,17.0684265 88.1470588,16.5966765 C88.4212941,16.5341029 88.7319853,16.4432353 88.837,16.3948088 C89.3860147,16.1417941 92.4091324,16.8589412 92.4091324,17.242 C92.4091324,17.2855294 92.4602794,17.3219853 92.5228529,17.3230735 C92.5848824,17.3241618 92.7383235,17.4046912 92.8629265,17.5026324 C92.9875294,17.6000294 93.1202941,17.6805588 93.1572941,17.6816471 C93.1948382,17.6827353 93.2253088,16.8322794 93.2253088,15.7919265 L93.2253088,13.9000294 L92.4319853,13.6225294 C91.1157647,13.16275 89.0132941,13.0049559 87.5120735,13.2530735 M111.402647,13.2819118 C111.050603,13.3461176 110.683324,13.44025 110.586471,13.4913971 C110.489618,13.5430882 110.169132,13.6606176 109.873676,13.7525735 C108.581941,14.1563088 106.993118,15.4779706 106.370647,16.6668676 C106.248221,16.9002941 106.099132,17.1440588 106.038735,17.2088088 C105.261191,18.0434853 104.829706,22.8496765 105.415176,24.1544706 C105.485368,24.3111765 105.590382,24.6033676 105.647515,24.8025147 C105.769397,25.2263824 106.029485,25.8711618 106.105118,25.9364559 C106.133956,25.9609412 106.292838,26.2041618 106.45825,26.4762206 C107.121529,27.5677206 108.686412,28.7789265 109.911765,29.1500147 C110.186,29.2332647 110.480368,29.3393676 110.565794,29.3856176 C111.672529,29.9879559 116.107088,29.5847647 117.348221,28.7691324 C117.472824,28.6875147 117.726382,28.5367941 117.911382,28.4345 C118.697088,28.0008382 120.036162,26.5518529 120.324544,25.8227353 C120.398544,25.6361029 120.492132,25.4826618 120.532941,25.4826618 C120.623265,25.4826618 121.036794,24.1430441 121.120588,23.57825 C121.154324,23.3540735 121.226147,23.1141176 121.281103,23.0450147 C121.421485,22.8681765 121.416044,19.9228676 121.274574,19.4522059 C121.214721,19.2525147 121.098279,18.7834853 121.016118,18.4091324 C120.868662,17.7393235 120.205382,16.2696618 119.890338,15.9154412 C117.788412,13.5523382 114.881191,12.6501912 111.402647,13.2819118 M127.278368,13.2857206 C124.198662,13.9549853 122.521147,16.2587794 123.051662,19.0892794 C123.267676,20.2400882 124.133912,21.4376912 125.117132,21.9453529 C125.358176,22.0699559 125.618265,22.2212206 125.694985,22.2827059 C125.771706,22.3436471 126.118309,22.5003529 126.464912,22.6303971 C126.811515,22.7609853 127.116221,22.8964706 127.14125,22.9312941 C127.166824,22.9661176 127.482956,23.1119412 127.843706,23.2550441 C128.526574,23.5260147 128.672397,23.61525 129.217059,24.0929853 C129.656706,24.4787647 129.717103,25.5882206 129.318809,25.9652941 C128.788294,26.4669706 127.018824,26.7890882 126.43825,26.4898235 C126.351735,26.4452059 125.895765,26.2993824 125.424559,26.1660735 C124.886971,26.0137206 124.291706,25.7596176 123.823765,25.4832059 C123.4135,25.2410735 123.053838,25.0669559 123.024456,25.0963382 C122.995074,25.1262647 122.970588,25.9745441 122.970588,26.9817059 L122.970588,28.81375 L123.355824,28.9563088 C123.568029,29.0352059 123.924971,29.1445735 124.149691,29.2000735 C124.373868,29.2555735 124.618721,29.3257647 124.693809,29.3562353 C125.678118,29.7594265 128.606559,29.7496324 129.862926,29.3388235 C131.680824,28.7446471 133.2925,27.2728088 133.306647,26.1932794 C133.307735,26.1100294 133.359971,26.0251471 133.422,26.0044706 C133.572176,25.9544118 133.580338,23.7915441 133.43125,23.4792206 C133.374118,23.3595147 133.251691,23.0667794 133.159191,22.829 C132.931206,22.2424412 132.191206,21.39525 131.585603,21.0274265 C131.311368,20.8609265 131.042029,20.6819118 130.987074,20.6296765 C130.932118,20.5774412 130.584971,20.41475 130.216059,20.2683824 C129.847147,20.1214706 129.525029,19.9794559 129.5,19.95225 C129.474971,19.9250441 129.169176,19.7884706 128.819853,19.6491765 C127.512338,19.1268235 126.869735,18.4951029 126.870279,17.7349706 C126.872456,16.0901029 129.886324,15.7543824 132.159647,17.1451471 C132.766338,17.5167794 132.764706,17.5216765 132.764706,15.5590441 L132.764706,13.8080735 L132.333765,13.6910882 C132.097074,13.6274265 131.860382,13.542 131.807603,13.5017353 C131.404956,13.1943088 128.364426,13.0495735 127.278368,13.2857206 M141.443926,13.2487206 C139.495985,13.5332941 137.420176,14.7662647 136.494088,16.1875 C136.364044,16.3871912 136.232368,16.5705588 136.200809,16.5955882 C136.099603,16.6761176 135.694779,17.5396324 135.627309,17.8187647 C135.590853,17.9678529 135.522838,18.1142206 135.474956,18.1436029 C134.863912,18.5212206 134.866088,23.4813971 135.477676,24.8933824 C135.563647,25.0930735 135.710559,25.4396765 135.803603,25.6643971 C135.896103,25.8885735 136.046279,26.1568235 136.137147,26.2596618 C136.227471,26.3625 136.301471,26.4952647 136.301471,26.5551176 C136.301471,26.7308676 137.860368,28.2446029 138.208603,28.40675 C138.384897,28.4889118 138.618868,28.6341912 138.729324,28.7294118 C138.839235,28.8246324 139.225559,28.9933088 139.587941,29.1032206 C139.949779,29.2131324 140.327941,29.3399118 140.427515,29.3845294 C141.241515,29.7501765 144.730941,29.7523529 145.506309,29.3883382 C145.605882,29.3415441 145.982956,29.2136765 146.34425,29.1037647 C146.705,28.9938529 147.131588,28.8077647 147.291015,28.6896912 C147.450985,28.5721618 147.620206,28.4753088 147.667544,28.4753088 C147.928176,28.4753088 149.150809,27.3054559 149.779809,26.4539118 C151.15425,24.5924853 151.613485,20.4990882 150.738,17.9107206 C150.653662,17.6609706 150.554088,17.4433235 150.516544,17.427 C150.479,17.4101324 150.448529,17.3551765 150.448529,17.3040294 C150.448529,16.3850147 148.188265,14.1780735 146.7975,13.7389706 C146.536324,13.6562647 146.200059,13.5316618 146.050426,13.4620147 C145.432309,13.1736324 142.791706,13.0512059 141.443926,13.2487206 M102.362132,13.3444853 C102.174956,13.3967206 102.022059,13.4718088 102.022059,13.5115294 C102.022059,13.5507059 101.915956,13.6100147 101.786456,13.6426618 C101.232544,13.7814118 100.369029,14.6226176 99.96475,15.4164853 L99.6649412,16.0063088 L99.6643971,14.7363382 L99.6643971,13.4669118 L97.7599853,13.4930294 L95.8555735,13.5191471 L95.8555735,21.4055882 L95.8555735,29.2914853 L97.7599853,29.2914853 L99.6643971,29.2914853 L99.6643971,24.8988235 C99.6643971,22.4823971 99.6992206,20.4843971 99.7422059,20.4577353 C99.7851912,20.4310735 99.8466765,20.1813235 99.8793235,19.9027353 C100.175324,17.3845588 102.960118,15.8479706 104.719794,17.2316618 C104.845485,17.3306912 104.983691,17.4117647 105.026676,17.4117647 C105.189912,17.4117647 105.121353,13.5474412 104.955397,13.4097794 C104.767676,13.2541618 102.859456,13.2057353 102.362132,13.3444853 M76.4936912,13.5120735 L74.5892794,13.5577794 L74.5892794,21.4017794 L74.5892794,29.2463235 L76.5617059,29.2708088 L78.5341324,29.2952941 L78.5341324,21.4088529 C78.5341324,17.0716912 78.5036618,13.5104412 78.4661176,13.4952059 C78.4291176,13.4794265 77.5411176,13.4869787 76.4936912,13.5120735 M114.426853,16.5177794 C116.409074,17.1495 117.212191,18.3917206 117.319926,20.9936912 C117.461397,24.4096618 116.246382,26.2134118 113.701,26.3668529 C110.789426,26.5426029 109.184824,24.7959853 109.186998,21.4534706 C109.187544,20.3320441 109.494426,18.6784706 109.734926,18.5 C109.768118,18.4749706 109.868779,18.3117353 109.958559,18.1370735 C110.362294,17.3491912 111.465221,16.6293235 112.516456,16.4666324 C112.577397,16.4573824 112.65575,16.4214706 112.690029,16.3866471 C112.82225,16.2544265 113.843559,16.3311471 114.426853,16.5177794 M143.783088,16.4143971 C143.814103,16.4639118 143.937074,16.5047206 144.057324,16.5047206 C146.178294,16.5047206 147.667544,19.6921618 147.089691,22.9949559 C146.990662,23.5608382 146.985221,23.5766176 146.592368,24.4401324 C145.481824,26.8826765 141.424338,27.1084853 139.846941,24.8150294 C138.308176,22.57925 138.854471,18.2453529 140.829074,17.0254412 C141.690412,16.49275 143.588838,16.0998971 143.783088,16.4143971" id="path0" fill="#747474"></path>
            <polyline id="path1" fill="#F78714" points="19.3161765 27.8403235 19.3161765 36.54675 28.0677647 36.54675 36.8193529 36.54675 36.7965 27.8631765 36.7731029 19.1801471 28.0449118 19.1572941 19.3161765 19.1338971 19.3161765 27.8403235"></polyline>
            <polyline id="path2" fill="#04A4EC" points="0.272058824 27.8408676 0.272058824 36.54675 8.97794118 36.54675 17.6838235 36.54675 17.6838235 27.8408676 17.6838235 19.1349853 8.97794118 19.1349853 0.272058824 19.1349853 0.272058824 27.8408676"></polyline>
            <polyline id="path3" fill="#7CBC04" points="19.3161765 8.79675 19.3161765 17.5026324 28.0672206 17.5026324 36.8188088 17.5026324 36.8188088 8.79675 36.8188088 0.0908676471 28.0672206 0.0908676471 19.3161765 0.0908676471 19.3161765 8.79675"></polyline>
            <polyline id="path3备份" fill="#F15022" points="0.272058824 8.79675 0.272058824 17.5026324 9.02310294 17.5026324 17.7746912 17.5026324 17.7746912 8.79675 17.7746912 0.0908676471 9.02310294 0.0908676471 0.272058824 0.0908676471 0.272058824 8.79675"></polyline>
            <path d="M74.6034265,13.5336369 C74.5800294,13.6016369 75.1388382,13.6386369 75.8451029,13.6156369 C78.1815441,13.5366369 78.4225882,13.4746369 76.5219853,13.4416369 C75.4897941,13.4236369 74.6262794,13.4646369 74.6034265,13.5336369 M96.7898235,13.5326369 C97.3285,13.5626369 98.1854853,13.5626369 98.6942353,13.5326369 C99.2029853,13.5026369 98.7617059,13.4786369 97.7142794,13.4786369 C96.6668529,13.4786369 96.2511471,13.5036369 96.7898235,13.5326369 M152.103735,13.5316369 C152.44,13.5636369 152.991191,13.5636369 153.328,13.5316369 C153.664265,13.4996369 153.388941,13.4736369 152.715868,13.4736369 C152.04225,13.4736369 151.766926,13.4996369 152.103735,13.5316369 M159.177265,13.5326369 C159.912912,13.5606369 161.1165,13.5606369 161.852147,13.5326369 C162.587794,13.5046369 161.986,13.4816369 160.514706,13.4816369 C159.043412,13.4816369 158.441618,13.5046369 159.177265,13.5326369 M168.024074,13.5326369 C168.537721,13.5626369 169.353897,13.5626369 169.837618,13.5326369 C170.321338,13.5026369 169.900735,13.4786369 168.903368,13.4786369 C167.905456,13.4786369 167.509882,13.5026369 168.024074,13.5326369" id="path4" fill="#78883C"></path>
        </g>
    </g>
</svg>