<?xml version="1.0" encoding="UTF-8"?>
<svg width="570px" height="484px" viewBox="0 0 570 484" version="1.1" xmlns="http://www.w3.org/2000/svg" xmlns:xlink="http://www.w3.org/1999/xlink">
    <!-- Generator: Sketch 56 (81588) - https://sketch.com -->
    <title>create landing page</title>
    <desc>Created with Sketch.</desc>
    <defs>
        <linearGradient x1="49.9990814%" y1="100%" x2="49.9990814%" y2="0%" id="linearGradient-1">
            <stop stop-color="#808080" stop-opacity="0.25" offset="1%"></stop>
            <stop stop-color="#808080" stop-opacity="0.12" offset="54%"></stop>
            <stop stop-color="#808080" stop-opacity="0.1" offset="100%"></stop>
        </linearGradient>
        <linearGradient x1="49.9963147%" y1="100%" x2="49.9963147%" y2="0%" id="linearGradient-2">
            <stop stop-color="#808080" stop-opacity="0.25" offset="1%"></stop>
            <stop stop-color="#808080" stop-opacity="0.12" offset="54%"></stop>
            <stop stop-color="#808080" stop-opacity="0.1" offset="100%"></stop>
        </linearGradient>
        <linearGradient x1="49.9922122%" y1="99.9530713%" x2="49.9922122%" y2="-0.0400799968%" id="linearGradient-3">
            <stop stop-color="#808080" stop-opacity="0.25" offset="0%"></stop>
            <stop stop-color="#808080" stop-opacity="0.12" offset="54%"></stop>
            <stop stop-color="#808080" stop-opacity="0.1" offset="100%"></stop>
        </linearGradient>
        <linearGradient x1="49.870761%" y1="89.8802964%" x2="50.0723805%" y2="10.1203315%" id="linearGradient-4">
            <stop stop-color="#000000" stop-opacity="0.12" offset="0%"></stop>
            <stop stop-color="#000000" stop-opacity="0.09" offset="55%"></stop>
            <stop stop-color="#000000" stop-opacity="0.02" offset="100%"></stop>
        </linearGradient>
    </defs>
    <g id="create-landing-page" stroke="none" stroke-width="1" fill="none" fill-rule="evenodd">
        <rect fill="#F5F2EE" x="0" y="0" width="570" height="484"></rect>
        <g id="tour-ac59d399172823770757e9e88e62c610" transform="translate(67.000000, 41.000000)" fill-rule="nonzero">
            <path d="M456,6 L456,228.187188 C456,231.966558 452.473162,235 448.121869,235 L15.9239342,235 C11.5726408,235 8,231.91683 8,228.187188 L8,6 L456,6 Z" id="路径" fill="#EDDECF"></path>
            <path d="M448,15 L448,219.722693 C448,223.204995 444.473162,226 440.121869,226 L7.92393416,226 C3.57264083,226 0,223.159175 0,219.722693 L0,15 L448,15 Z" id="路径" fill="#DFE3EF"></path>
            <path d="M127,12 L127,225.99351 L17.0097473,225.99351 C7.61083032,225.99351 0,226.451446 0,219.673993 L0,12 L127,12 Z" id="路径" fill="#E5E5E5"></path>
            <rect id="矩形" fill="#FFFFFF" x="146" y="98" width="68" height="4"></rect>
            <rect id="矩形" fill="#FFFFFF" x="146" y="88" width="68" height="4"></rect>
            <rect id="矩形" fill="#FFFFFF" x="146" y="98" width="68" height="4"></rect>
            <path d="M448,3.85074627 L448,15 L0,15 L0,3.85074627 C0,1.74626866 1.7406953,0 3.9394683,0 L444.106339,0 C446.213497,0 448,1.70149254 448,3.85074627 C448,3.85074627 448,3.85074627 448,3.85074627 Z" id="路径" fill="#EDEDF4"></path>
            <circle id="椭圆形" fill="#FA5959" opacity="0.8" cx="7" cy="7" r="2"></circle>
            <circle id="椭圆形" fill="#FED253" opacity="0.8" cx="12" cy="7" r="2"></circle>
            <circle id="椭圆形" fill="#8CCF4D" opacity="0.8" cx="17" cy="7" r="2"></circle>
            <rect id="矩形" fill="#3F3D56" x="233" y="113" width="96" height="83"></rect>
            <rect id="矩形" fill="#FFFFFF" x="247" y="124" width="68" height="5"></rect>
            <rect id="矩形" fill="#FFFFFF" x="247" y="136" width="68" height="13"></rect>
            <rect id="矩形" fill="#FFFFFF" x="247" y="147" width="68" height="5"></rect>
            <rect id="矩形" fill="#FFFFFF" x="247" y="158" width="68" height="5"></rect>
            <rect id="矩形" fill="#FFFFFF" x="247" y="169" width="68" height="5"></rect>
            <rect id="矩形" fill="#FFFFFF" x="247" y="180" width="68" height="5"></rect>
            <rect id="矩形" fill="#3F3D56" x="137" y="45" width="85" height="65"></rect>
            <rect id="矩形" fill="#3F3D56" x="340" y="46" width="99" height="88"></rect>
            <rect id="矩形" fill="#FFFFFF" x="161" y="52" width="38" height="30"></rect>
            <rect id="矩形" fill="#FFFFFF" x="146" y="88" width="68" height="4"></rect>
            <rect id="矩形" fill="#FFFFFF" x="14" y="25" width="68" height="14"></rect>
            <rect id="矩形备份" fill="#FFFFFF" x="14" y="54" width="55" height="4"></rect>
            <rect id="矩形备份-2" fill="#FFFFFF" x="14" y="74" width="40" height="4"></rect>
            <rect id="矩形备份-3" fill="#FFFFFF" x="14" y="94" width="68" height="4"></rect>
            <rect id="矩形备份-6" fill="#FFFFFF" x="12" y="113" width="55" height="4"></rect>
            <rect id="矩形备份-5" fill="#FFFFFF" x="12" y="133" width="40" height="4"></rect>
            <rect id="矩形备份-4" fill="#FFFFFF" x="12" y="153" width="68" height="4"></rect>
            <ellipse id="椭圆形" fill="#0098F7" opacity="0.1" transform="translate(108.958014, 126.412372) rotate(-53.720287) translate(-108.958014, -126.412372) " cx="108.958014" cy="126.412372" rx="1.00857191" ry="1.60447286"></ellipse>
            <ellipse id="椭圆形" fill="#0098F7" opacity="0.1" transform="translate(104.967019, 105.645287) rotate(-53.720287) translate(-104.967019, -105.645287) " cx="104.967019" cy="105.645287" rx="1.00857191" ry="1.60447286"></ellipse>
            <ellipse id="椭圆形" fill="#0098F7" opacity="0.1" transform="translate(118.147679, 119.452096) rotate(-53.720287) translate(-118.147679, -119.452096) " cx="118.147679" cy="119.452096" rx="1.00857191" ry="1.60447286"></ellipse>
            <rect id="矩形" fill="#3F3D56" x="233" y="45" width="96" height="57"></rect>
            <g id="编组" transform="translate(341.000000, 145.000000)" fill="#3F3D56">
                <rect id="矩形" x="0.0456221198" y="0.136912752" width="98.5437788" height="67.6805369"></rect>
            </g>
        </g>
        <rect id="矩形" fill="#3F3D56" fill-rule="nonzero" x="203" y="163" width="86" height="74"></rect>
        <path d="M231.391841,237 L230,236.97788 C230.029939,235.723847 230.899798,206.168919 245.200783,198 L246,198.926693 C232.276014,206.766079 231.398641,236.698653 231.391841,237 Z" id="路径" fill="#A8DD72" fill-rule="nonzero"></path>
        <circle id="椭圆形" fill="#A8DD72" fill-rule="nonzero" cx="252" cy="192" r="6"></circle>
        <path d="M250.810756,209.012084 C247.95781,210.140213 244.919568,210.305373 242,209.49104 C245.786769,203.421406 252.05123,200.716219 258,202.58175 C256.092153,205.48071 253.613062,207.698104 250.810756,209.012084 Z" id="路径" fill="#A8DD72" fill-rule="nonzero"></path>
        <g id="编组" transform="translate(333.000000, 92.000000)">
            <path d="M4,18 L31,18 L31,39.4386766 C31,40.8532565 29.8806603,42 28.4998847,42 L6.50011529,42 C5.83704349,42 5.20112938,41.7301471 4.73226682,41.2498057 C4.26340425,40.7694644 4,40.1179818 4,39.4386766 L4,18 Z" id="路径" stroke="#FFFFFF"></path>
            <rect id="矩形" stroke="#FFFFFF" x="0" y="11" width="35" height="7" rx="3.5"></rect>
            <rect id="矩形" fill="#A8DD72" fill-rule="nonzero" x="13" y="12" width="7" height="30"></rect>
            <rect id="矩形" stroke="#FFFFFF" x="15" y="11" width="5" height="30"></rect>
            <path d="M15.6428497,4.45403857 C17.4150296,7.46083338 16.9429715,11 16.9429715,11 C16.9429715,11 13.5976373,9.66419041 11.8254627,6.65739303 C10.053288,3.65059565 9.47119546,0.719872696 10.5253409,0.111431598 C11.5794864,-0.497009499 13.8706673,1.44724119 15.6428497,4.45403857 Z" id="路径" fill="#A8DD72" fill-rule="nonzero"></path>
            <path d="M19.3571509,4.45403857 C17.5849685,7.46083338 18.0570291,11 18.0570291,11 C18.0570291,11 21.4023607,9.66419041 23.1745379,6.65739303 C24.9467151,3.65059565 25.5288025,0.719872696 24.4746596,0.111431598 C23.4205168,-0.497009499 21.1293333,1.44724119 19.3571509,4.45403857 Z" id="路径" fill="#A8DD72" fill-rule="nonzero"></path>
            <path d="M15.6428497,4.45403857 C17.4150296,7.46083338 16.9429715,11 16.9429715,11 C16.9429715,11 13.5976373,9.66419041 11.8254627,6.65739303 C10.053288,3.65059565 9.47119546,0.719872696 10.5253409,0.111431598 C11.5794864,-0.497009499 13.8706673,1.44724119 15.6428497,4.45403857 Z" id="路径" stroke="#3F3D56"></path>
            <path d="M18.3571509,4.45403857 C16.5849685,7.46083338 17.0570291,11 17.0570291,11 C17.0570291,11 20.4023607,9.66419041 22.1745379,6.65739303 C23.9467151,3.65059565 24.5288025,0.719872696 23.4746596,0.111431598 C22.4205168,-0.497009499 20.1293333,1.44724119 18.3571509,4.45403857 Z" id="路径" stroke="#FFFFFF"></path>
        </g>
        <g id="undraw_chat_1wo5" transform="translate(456.000000, 130.500000) rotate(-360.000000) translate(-456.000000, -130.500000) translate(424.000000, 107.000000)" fill-rule="nonzero">
            <path d="M61.3477088,11 L29.6396643,11 C26.5251533,11 24,13.6205855 24,16.8530689 L24,37.1121813 C23.9965163,37.8387921 24.2739994,38.5370671 24.7714171,39.0533382 C25.2688348,39.5696093 25.9454248,39.8615693 26.6522912,39.8649669 L46.7885824,39.8649669 C47.4588122,42.2491029 49.140266,45.5352219 53.3762361,47 L52.180552,39.8649669 L61.3477088,39.8649669 C62.0545752,39.8615693 62.7311652,39.5696093 63.2285829,39.0533382 C63.7260006,38.5370671 64.0034837,37.8387921 64,37.1121813 L64,13.7527856 C64.0034837,13.0261749 63.7260006,12.3278999 63.2285829,11.8116287 C62.7311652,11.2953576 62.0545752,11.0033977 61.3477088,11 L61.3477088,11 Z" id="路径" fill="url(#linearGradient-1)"></path>
            <path d="M61.4196379,12 L30.4996023,12 C29.0410171,12 27.6421717,12.582465 26.6107962,13.6192594 C25.5794207,14.6560538 25,16.0622488 25,17.5284975 L25,36.6633778 C25,38.0980089 26.1569198,39.2610072 27.5840526,39.2610072 L47.2206378,39.2610072 C47.874034,41.5127808 49.5160148,44.6165768 53.6438544,46 L52.4751243,39.2632337 L61.4159464,39.2632337 C62.8430793,39.2632337 64,38.1002354 64,36.6656043 L64,14.5998559 C64.0012232,13.1658036 62.8461941,12.0020481 61.4196379,12 Z" id="路径" fill="#FAFAFA"></path>
            <rect id="矩形" fill="#E0E0E0" x="37" y="17" width="16" height="2"></rect>
            <rect id="矩形" fill="#E0E0E0" x="47" y="21" width="6" height="2"></rect>
            <rect id="矩形" fill="#E0E0E0" x="41" y="25" width="12" height="2"></rect>
            <rect id="矩形" fill="#E0E0E0" x="38" y="29" width="15" height="2"></rect>
            <rect id="矩形" fill="#E0E0E0" x="45" y="32" width="7" height="2"></rect>
            <path d="M2.58237404,0 L36.4140307,0 C37.8425121,0 39,1.19794512 39,2.67607261 L39,25.3870236 C39,26.8651511 37.8425121,28.0630962 36.4140307,28.0630962 L16.7807004,28.0630962 C16.1270008,30.3810354 14.4851842,33.5784973 10.3568586,35 L11.5229953,28.0630962 L2.58597768,28.0630962 C1.15749632,28.0630962 0,26.8651511 0,25.3870236 L0,2.67460184 C-0.00359524444,1.19794512 1.15389268,0 2.58237404,0 Z" id="路径" fill="url(#linearGradient-2)"></path>
            <path d="M3.58410251,1 L37.4158984,1 C38.8430583,1 40,2.16299829 40,3.59762939 L40,25.6633778 C40,27.0980089 38.8430583,28.2610072 37.4158984,28.2610072 L17.7833714,28.2610072 C17.1299629,30.5127808 15.4879509,33.6165768 11.3600333,35 L12.5258322,28.2610072 L3.58410251,28.2610072 C2.15694263,28.2610072 1,27.0980089 1,25.6633778 L1,3.59985593 C0.999413182,2.91053609 1.27140646,2.24924674 1.75608323,1.76161507 C2.24076,1.27398339 2.89837223,1 3.58410251,1 Z" id="路径" fill="#FFFFFF"></path>
            <rect id="矩形" fill="#A8DD72" x="12" y="5" width="16" height="2"></rect>
            <rect id="矩形" fill="#A8DD72" x="12" y="9" width="6" height="2"></rect>
            <rect id="矩形" fill="#A8DD72" x="12" y="12" width="12" height="2"></rect>
            <rect id="矩形" fill="#A8DD72" x="12" y="16" width="15" height="2"></rect>
            <rect id="矩形" fill="#A8DD72" x="13" y="19" width="7" height="2"></rect>
        </g>
        <g id="编组" transform="translate(417.000000, 192.000000)">
            <g id="undraw_mail_2_tqip" fill-rule="nonzero">
                <path d="M57.0614633,12.100339 L51.4580777,7.85841717 L53.9007044,4.66530864 L49.8239605,1.44763774 L47.2763008,4.69478349 L41.5141445,0.334962226 C41.063299,-0.00522670619 40.4432336,-0.00522670619 39.9923881,0.334962226 L24.7186435,11.768747 C24.139741,12.2599945 23.5974778,12.8224728 23.5925926,14.1095412 L23.5754942,14.1095412 L23.5364059,31.7256753 L23.5364059,31.7256753 L23.5364059,32.509215 C23.5351149,33.0186374 23.7351174,33.5077133 24.0924213,33.8688506 C24.4497251,34.2299879 24.9350614,34.4336039 25.441661,34.4349051 L26.19399,34.4349051 L40.6763236,34.4668362 L55.9134288,34.5012298 C56.4200283,34.502528 56.906394,34.301411 57.2655302,33.9421163 C57.6246663,33.5828215 57.8271541,33.0947808 57.8284481,32.5853584 L57.8699727,14.2176156 L57.9017269,14.2176156 C57.9017269,12.928091 57.6403658,12.5915865 57.0614633,12.100339 Z" id="路径" fill="#6D7278"></path>
                <path d="M56.3970688,14.4853455 C56.3970688,13.3112641 56.1528062,13.0116031 55.6300841,12.5571992 L41.445751,1.83081076 C41.0339875,1.52009667 40.4676599,1.52009667 40.0558964,1.83081076 L26.1207112,12.2649069 C25.4394932,12.754217 25.0528732,13.5586097 25.094808,14.3993772 L25.0801522,14.3993772 L25.0435111,30.4729943 L25.0435111,30.4729943 L25.0435111,31.1877594 C25.0421614,32.155374 25.8204131,32.9412596 26.782663,32.943969 L27.4690411,32.943969 L40.6836514,32.9734439 L54.5846399,33.0053767 C55.5468927,33.006734 56.3284235,32.2241458 56.3311179,31.256534 L56.3677573,14.4976267 L56.3970688,14.4853455 Z" id="路径" fill="url(#linearGradient-3)"></path>
                <path d="M25.3159942,14.4985902 L56.0515559,14.4989787 L56.0515559,31.5035093 C56.0515559,31.775809 55.9439922,32.0369546 55.752518,32.2294971 C55.5610438,32.4220396 55.3013471,32.5302036 55.0305583,32.5302036 L26.4520341,32.5298423 C26.153389,32.5298385 25.8669741,32.4105366 25.6557975,32.1981818 C25.4446208,31.9858269 25.3259809,31.697814 25.3259771,31.3975026 L25.3257647,14.4985902 L25.3159942,14.4985902 Z" id="路径" fill="#A8DD72" transform="translate(40.683775, 23.514397) rotate(0.130000) translate(-40.683775, -23.514397) "></path>
                <path d="M25.3159942,14.4985902 L56.0515559,14.4989787 L56.0515559,31.5035093 C56.0515559,31.775809 55.9439922,32.0369546 55.752518,32.2294971 C55.5610438,32.4220396 55.3013471,32.5302036 55.0305583,32.5302036 L26.4520341,32.5298423 C26.153389,32.5298385 25.8669741,32.4105366 25.6557975,32.1981818 C25.4446208,31.9858269 25.3259809,31.697814 25.3259771,31.3975026 L25.3257647,14.4985902 L25.3159942,14.4985902 Z" id="路径" fill="#FFFFFF" opacity="0.2" transform="translate(40.683775, 23.514397) rotate(0.130000) translate(-40.683775, -23.514397) "></path>
                <path d="M25.3390707,14.4583269 L25.3048689,30.0775401 C25.3035769,30.7139921 25.5537623,31.3248947 26.000392,31.7758555 C26.4470216,32.2268164 27.0535096,32.4808949 27.6864349,32.4821964 L53.6491138,32.5411461" id="路径" fill="#F5F5F5"></path>
                <path d="M56.0770848,14.5271015 L56.042888,30.1561397 C56.0415937,30.7925917 55.7889231,31.4024592 55.3404611,31.8515775 C54.8919992,32.3006958 54.2844818,32.5522753 53.6515565,32.5509761 L27.6888775,32.4920214" id="路径" fill="#FFFFFF"></path>
                <path d="M40.0534538,2.23854616 L26.3747444,12.3828063 C25.7069278,12.8550406 25.3262038,13.6383443 25.3659396,14.4583269 L56.1161668,14.5565764 C56.1161668,13.414426 55.8719041,13.1147651 55.3638378,12.6824673 L41.4286526,2.24345863 C41.0223184,1.93456172 40.4619601,1.93256001 40.0534538,2.23854616 L40.0534538,2.23854616 Z" id="路径" fill="#A8DD72"></path>
                <path d="M40.0534538,2.23854616 L26.3747444,12.3828063 C25.7069278,12.8550406 25.3262038,13.6383443 25.3659396,14.4583269 L56.1161668,14.5565764 C56.1161668,13.414426 55.8719041,13.1147651 55.3638378,12.6824673 L41.4286526,2.24345863 C41.0223184,1.93456172 40.4619601,1.93256001 40.0534538,2.23854616 L40.0534538,2.23854616 Z" id="路径" fill="#000000" opacity="0.2"></path>
                <polygon id="路径" fill="url(#linearGradient-4)" points="52.7477846 5.7681592 49.0276642 2.83541183 40.0363554 14.2863903 35.2048398 10.5185222 32.1784254 14.387096 39.2107476 19.7883619 39.2107476 19.7883619 40.954783 21.1957859"></polygon>
                <polygon id="路径" fill="#FFFFFF" points="52.4742104 5.69692832 49.1033856 3.09822922 40.1706998 14.8120251 35.2097251 10.9876635 32.6229834 14.3772711 39.2693706 19.4960697 39.2693706 19.4960697 40.974324 20.7806818"></polygon>
                <rect id="矩形" fill="#6D7278" x="0" y="39" width="78" height="14.9830477"></rect>
                <rect id="矩形" fill="#FFFFFF" x="2" y="40.4737424" width="74" height="12.0298507"></rect>
            </g>
            <text id="email@site.com" font-family="HiraginoSansGB-W3, Hiragino Sans GB" font-size="8" font-weight="300" fill="#091E42">
                <tspan x="11" y="49">email@site.com </tspan>
            </text>
        </g>
        <polygon id="形状" fill-opacity="0.5" fill="#EEE1D2" fill-rule="nonzero" points="295 443 128 443 128 194 295 194"></polygon>
        <polygon id="形状备份" fill-opacity="0.5" fill="#EEE1D2" fill-rule="nonzero" points="295 443 128 443 128 194 295 194"></polygon>
        <g id="编组-3" transform="translate(38.000000, 186.000000)" fill-rule="nonzero">
            <g id="undraw_experience_design_eq3j" transform="translate(126.000000, 124.500000) rotate(-360.000000) translate(-126.000000, -124.500000) translate(0.000000, 0.000000)">
                <rect id="矩形" fill="#3F3D56" x="85" y="159" width="167" height="45"></rect>
                <path d="M240.636041,45.4771842 L234.101672,48.4386377 L239.884875,44.2976467 C238.944944,42.8927482 237.889029,41.5621883 236.727255,40.318727 L208.388513,47.0637653 L233.9864,37.713142 C232.816666,36.7248372 231.574425,35.8181311 230.269237,35 L187.087631,41.6604676 C182.502838,47.1505983 180.00353,53.9702886 180,61 L245,61 C244.997365,55.5481199 243.492009,50.1934932 240.636041,45.4771842 L240.636041,45.4771842 Z" id="路径" fill="#F2F2F2"></path>
                <path d="M212.858876,63 L190,30 C190,30 224.617979,41.7457613 220.689217,63 L212.858876,63 Z" id="路径" fill="#3F3D56"></path>
                <path d="M212.141121,63 L235,30 C235,30 200.382017,41.7457613 204.310783,63 L212.141121,63 Z" id="路径" fill="#A8DD72"></path>
                <polygon id="形状" fill="#FFFFFF" points="252 249 85 249 85 0 252 0"></polygon>
                <rect id="矩形" fill="#2F2E41" x="86" y="5" width="165" height="2"></rect>
                <circle id="椭圆形" fill="#A8DD72" cx="89" cy="3" r="2"></circle>
                <circle id="椭圆形" fill="#A8DD72" cx="94" cy="3" r="2"></circle>
                <circle id="椭圆形" fill="#A8DD72" cx="99" cy="3" r="2"></circle>
                <rect id="矩形" fill="#A8DD72" x="91" y="10" width="7" height="4"></rect>
                <rect id="矩形" fill="#A8DD72" x="92" y="41" width="33" height="4"></rect>
                <rect id="矩形" fill="#F2F2F2" transform="translate(229.500000, 12.000000) rotate(-180.000000) translate(-229.500000, -12.000000) " x="213" y="10" width="33" height="4"></rect>
                <rect id="矩形备份-7" fill-opacity="0.8" fill="#A8DD72" opacity="0.7" transform="translate(202.500000, 45.500000) rotate(-180.000000) translate(-202.500000, -45.500000) " x="180" y="31" width="45" height="29"></rect>
                <rect id="矩形" fill="#3F3D56" x="91" y="47" width="59" height="3"></rect>
                <rect id="矩形" fill="#3F3D56" x="91" y="53" width="54" height="3"></rect>
                <rect id="矩形" fill="#3F3D56" x="91" y="58" width="40" height="3"></rect>
                <rect id="矩形" fill="#3F3D56" x="104" y="126" width="23" height="3"></rect>
                <rect id="矩形" fill="#3F3D56" x="104" y="133" width="20" height="3"></rect>
                <rect id="矩形" fill="#3F3D56" x="104" y="137" width="16" height="3"></rect>
                <rect id="矩形" fill="#3F3D56" x="157" y="126" width="23" height="3"></rect>
                <rect id="矩形" fill="#3F3D56" x="157" y="133" width="20" height="3"></rect>
                <rect id="矩形" fill="#3F3D56" x="157" y="137" width="16" height="3"></rect>
                <rect id="矩形" fill="#3F3D56" x="212" y="126" width="23" height="3"></rect>
                <rect id="矩形" fill="#3F3D56" x="212" y="133" width="20" height="3"></rect>
                <rect id="矩形" fill="#3F3D56" x="212" y="137" width="16" height="3"></rect>
                <rect id="矩形" fill="#3F3D56" x="92" y="215" width="154" height="15"></rect>
                <rect id="矩形备份-8" fill="#3F3D56" x="92" y="233" width="154" height="9"></rect>
                <rect id="矩形" fill="#A8DD72" opacity="0.3" x="101" y="83" width="136" height="2"></rect>
                <rect id="矩形" fill="#A8DD72" opacity="0.3" x="100" y="99" width="29" height="25"></rect>
                <rect id="矩形" fill="#3F3D56" x="154" y="99" width="29" height="25"></rect>
                <rect id="矩形" fill="#3F3D56" x="208" y="99" width="29" height="25"></rect>
                <path d="M162.43495,124 L162,123.99206 C162.009356,123.541894 162.281187,112.932432 166.750245,110 L167,110.332659 C162.711254,113.146798 162.437075,123.891824 162.43495,124 Z" id="路径" fill="#A8DD72"></path>
                <circle id="椭圆形" fill="#A8DD72" cx="170" cy="108" r="2"></circle>
                <path d="M169.753361,114.629532 C168.861816,115.05258 167.912365,115.114515 167,114.80914 C168.183365,112.533027 170.14101,111.518582 172,112.218156 C171.403798,113.305266 170.629082,114.136789 169.753361,114.629532 Z" id="路径" fill="#A8DD72"></path>
                <path d="M218.43495,124 L218,123.99206 C218.009356,123.541894 218.281187,112.932432 222.750245,110 L223,110.332659 C218.711254,113.146798 218.437075,123.891824 218.43495,124 Z" id="路径" fill="#A8DD72"></path>
                <circle id="椭圆形" fill="#A8DD72" cx="225" cy="108" r="2"></circle>
                <path d="M223.753361,114.629532 C222.861816,115.05258 221.912365,115.114515 221,114.80914 C222.183365,112.533027 224.14101,111.518582 226,112.218156 C225.403798,113.305266 224.629082,114.136789 223.753361,114.629532 Z" id="路径" fill="#A8DD72"></path>
                <rect id="矩形" fill="#A8DD72" x="92" y="172" width="33" height="4"></rect>
                <rect id="矩形" fill="#3F3D56" x="91" y="178" width="59" height="3"></rect>
                <rect id="矩形" fill="#3F3D56" x="91" y="183" width="54" height="3"></rect>
                <rect id="矩形" fill="#3F3D56" x="91" y="189" width="40" height="3"></rect>
                <circle id="椭圆形" fill="#2F2E41" cx="44.5" cy="204.5" r="30.5"></circle>
                <rect id="矩形" fill="#2F2E41" x="31" y="228" width="9" height="17"></rect>
                <rect id="矩形" fill="#2F2E41" x="49" y="228" width="9" height="17"></rect>
                <ellipse id="椭圆形" fill="#2F2E41" cx="39" cy="244.5" rx="8" ry="3.5"></ellipse>
                <ellipse id="椭圆形" fill="#2F2E41" cx="57" cy="244.5" rx="8" ry="3.5"></ellipse>
                <circle id="椭圆形" fill="#FFFFFF" cx="46" cy="196" r="10"></circle>
                <circle id="椭圆形" fill="#3F3D56" cx="45.5" cy="192.5" r="3.5"></circle>
                <path d="M14.4711689,175.450264 C11.8977752,164.440174 20.1238775,153.31494 32.8446856,150.601361 C45.5654937,147.887781 57.9638858,154.613428 60.5372835,165.623526 C63.1106812,176.633624 54.680136,180.694325 41.959332,183.407904 C29.2385279,186.121483 17.0445626,186.460351 14.4711689,175.450264 Z" id="路径" fill="#EFDBA3"></path>
                <ellipse id="椭圆形" fill="#2F2E41" transform="translate(68.266442, 170.478703) rotate(-65.076830) translate(-68.266442, -170.478703) " cx="68.2664423" cy="170.478703" rx="15.356563" ry="4.82454075"></ellipse>
                <ellipse id="椭圆形" fill="#2F2E41" transform="translate(11.840019, 179.807319) rotate(-27.893290) translate(-11.840019, -179.807319) " cx="11.8400192" cy="179.807319" rx="4.82430881" ry="15.3573045"></ellipse>
                <circle id="椭圆形" fill="#2F2E41" cx="53.5" cy="114.5" r="30.5"></circle>
                <polygon id="矩形" fill="#2F2E41" transform="translate(38.939548, 143.850592) rotate(10.261060) translate(-38.939548, -143.850592) " points="34.2716622 135.494339 43.6108618 135.492426 43.6074342 152.206845 34.2682346 152.208758"></polygon>
                <polygon id="矩形" fill="#2F2E41" transform="translate(57.319894, 147.174078) rotate(10.261060) translate(-57.319894, -147.174078) " points="52.6520084 138.817825 61.9912081 138.815912 61.9877804 155.530331 52.6485808 155.532244"></polygon>
                <ellipse id="椭圆形" fill="#2F2E41" transform="translate(57.432181, 157.464657) rotate(-49.738940) translate(-57.432181, -157.464657) " cx="57.4321806" cy="157.464657" rx="2.91662548" ry="7.77915641"></ellipse>
                <ellipse id="椭圆形" fill="#2F2E41" transform="translate(39.434764, 154.210410) rotate(-49.738940) translate(-39.434764, -154.210410) " cx="39.4347641" cy="154.21041" rx="2.91662548" ry="7.77915641"></ellipse>
                <circle id="椭圆形" fill="#FFFFFF" cx="57" cy="106" r="10"></circle>
                <circle id="椭圆形" fill="#3F3D56" cx="60.5" cy="102.5" r="3.5"></circle>
                <path d="M29.0162009,80.760022 C28.538925,69.7973067 38.6656308,60.5118339 51.634852,60.0203128 C64.6040732,59.5287917 75.5046288,68.0173563 75.9819127,78.9800717 C76.4591966,89.942787 67.443937,92.433599 54.4747118,92.9251201 C41.5054866,93.4166413 29.4934768,91.7227299 29.0162009,80.760022 Z" id="路径" fill="#EFDBA3"></path>
                <ellipse id="椭圆形" fill="#2F2E41" transform="translate(82.304561, 107.981301) rotate(-12.910100) translate(-82.304561, -107.981301) " cx="82.3045609" cy="107.981301" rx="15.3704394" ry="4.82018114"></ellipse>
                <ellipse id="椭圆形" fill="#2F2E41" transform="translate(21.957852, 118.005142) rotate(-12.910100) translate(-21.957852, -118.005142) " cx="21.9578524" cy="118.005142" rx="15.3704394" ry="4.82018114"></ellipse>
                <path d="M45.1132463,125.68111 C44.4240781,129.517901 46.9515407,133.191296 50.758492,133.885866 C54.5654434,134.580436 58.2102686,132.033163 58.8994369,128.196371 C59.5886058,124.35958 56.645193,123.001895 52.838242,122.307324 C49.0312909,121.612753 45.8024151,121.844319 45.1132463,125.68111 Z" id="路径" fill="#FFFFFF"></path>
                <polygon id="矩形" fill="#3F3D56" transform="translate(108.824831, 96.788572) rotate(16.688760) translate(-108.824831, -96.788572) " points="94.4318798 83.9650943 123.226038 83.9558373 123.217782 109.61205 94.4236237 109.621307"></polygon>
                <path d="M101.36872,108 L101,107.888364 C101.131104,107.503482 104.265016,98.4449839 108.878022,97 L109,97.3462657 C104.573105,98.7329661 101.400127,107.907481 101.36872,108 Z" id="路径" fill="#A8DD72"></path>
                <circle id="椭圆形" fill="#A8DD72" cx="113" cy="96" r="2"></circle>
                <path d="M109.540515,100.999418 C108.302164,101.015019 107.081276,100.716716 106,100.134351 C108.075627,98.724115 110.81633,98.6205513 113,99.8698402 C111.969283,100.532012 110.776337,100.921528 109.540515,100.999418 L109.540515,100.999418 Z" id="路径" fill="#A8DD72"></path>
            </g>
            <g id="undraw_chat_1wo5" transform="translate(198.000000, 181.500000) rotate(-360.000000) translate(-198.000000, -181.500000) translate(166.000000, 158.000000)">
                <path d="M61.3477088,11 L29.6396643,11 C26.5251533,11 24,13.6205855 24,16.8530689 L24,37.1121813 C23.9965163,37.8387921 24.2739994,38.5370671 24.7714171,39.0533382 C25.2688348,39.5696093 25.9454248,39.8615693 26.6522912,39.8649669 L46.7885824,39.8649669 C47.4588122,42.2491029 49.140266,45.5352219 53.3762361,47 L52.180552,39.8649669 L61.3477088,39.8649669 C62.0545752,39.8615693 62.7311652,39.5696093 63.2285829,39.0533382 C63.7260006,38.5370671 64.0034837,37.8387921 64,37.1121813 L64,13.7527856 C64.0034837,13.0261749 63.7260006,12.3278999 63.2285829,11.8116287 C62.7311652,11.2953576 62.0545752,11.0033977 61.3477088,11 L61.3477088,11 Z" id="路径" fill="url(#linearGradient-1)"></path>
                <path d="M61.4196379,12 L30.4996023,12 C29.0410171,12 27.6421717,12.582465 26.6107962,13.6192594 C25.5794207,14.6560538 25,16.0622488 25,17.5284975 L25,36.6633778 C25,38.0980089 26.1569198,39.2610072 27.5840526,39.2610072 L47.2206378,39.2610072 C47.874034,41.5127808 49.5160148,44.6165768 53.6438544,46 L52.4751243,39.2632337 L61.4159464,39.2632337 C62.8430793,39.2632337 64,38.1002354 64,36.6656043 L64,14.5998559 C64.0012232,13.1658036 62.8461941,12.0020481 61.4196379,12 Z" id="路径" fill="#FAFAFA"></path>
                <rect id="矩形" fill="#E0E0E0" x="37" y="17" width="16" height="2"></rect>
                <rect id="矩形" fill="#E0E0E0" x="47" y="21" width="6" height="2"></rect>
                <rect id="矩形" fill="#E0E0E0" x="41" y="25" width="12" height="2"></rect>
                <rect id="矩形" fill="#E0E0E0" x="38" y="29" width="15" height="2"></rect>
                <rect id="矩形" fill="#E0E0E0" x="45" y="32" width="7" height="2"></rect>
                <path d="M2.58237404,0 L36.4140307,0 C37.8425121,0 39,1.19794512 39,2.67607261 L39,25.3870236 C39,26.8651511 37.8425121,28.0630962 36.4140307,28.0630962 L16.7807004,28.0630962 C16.1270008,30.3810354 14.4851842,33.5784973 10.3568586,35 L11.5229953,28.0630962 L2.58597768,28.0630962 C1.15749632,28.0630962 0,26.8651511 0,25.3870236 L0,2.67460184 C-0.00359524444,1.19794512 1.15389268,0 2.58237404,0 Z" id="路径" fill="url(#linearGradient-2)"></path>
                <path d="M3.58410251,1 L37.4158984,1 C38.8430583,1 40,2.16299829 40,3.59762939 L40,25.6633778 C40,27.0980089 38.8430583,28.2610072 37.4158984,28.2610072 L17.7833714,28.2610072 C17.1299629,30.5127808 15.4879509,33.6165768 11.3600333,35 L12.5258322,28.2610072 L3.58410251,28.2610072 C2.15694263,28.2610072 1,27.0980089 1,25.6633778 L1,3.59985593 C0.999413182,2.91053609 1.27140646,2.24924674 1.75608323,1.76161507 C2.24076,1.27398339 2.89837223,1 3.58410251,1 Z" id="路径" fill="#FFFFFF"></path>
                <rect id="矩形" fill="#A8DD72" x="12" y="5" width="16" height="2"></rect>
                <rect id="矩形" fill="#A8DD72" x="12" y="9" width="6" height="2"></rect>
                <rect id="矩形" fill="#A8DD72" x="12" y="12" width="12" height="2"></rect>
                <rect id="矩形" fill="#A8DD72" x="12" y="16" width="15" height="2"></rect>
                <rect id="矩形" fill="#A8DD72" x="13" y="19" width="7" height="2"></rect>
            </g>
        </g>
    </g>
</svg>