<?xml version="1.0" encoding="UTF-8"?>
<svg width="570px" height="484px" viewBox="0 0 570 484" version="1.1" xmlns="http://www.w3.org/2000/svg" xmlns:xlink="http://www.w3.org/1999/xlink">
    <!-- Generator: Sketch 56 (81588) - https://sketch.com -->
    <title>personalization</title>
    <desc>Created with Sketch.</desc>
    <defs>
        <linearGradient x1="50%" y1="100%" x2="50%" y2="0%" id="linearGradient-1">
            <stop stop-color="#808080" stop-opacity="0.25" offset="0%"></stop>
            <stop stop-color="#808080" stop-opacity="0.12" offset="54%"></stop>
            <stop stop-color="#808080" stop-opacity="0.1" offset="100%"></stop>
        </linearGradient>
        <rect id="path-2" x="19" y="73" width="133" height="130"></rect>
        <filter x="-1.9%" y="-1.9%" width="107.5%" height="107.7%" filterUnits="objectBoundingBox" id="filter-3">
            <feOffset dx="5" dy="5" in="SourceAlpha" result="shadowOffsetOuter1"></feOffset>
            <feColorMatrix values="0 0 0 0 0.929411765   0 0 0 0 0.870588235   0 0 0 0 0.811764706  0 0 0 1 0" type="matrix" in="shadowOffsetOuter1"></feColorMatrix>
        </filter>
        <linearGradient x1="0.00660851176%" y1="50.0086919%" x2="100%" y2="50.0086919%" id="linearGradient-4">
            <stop stop-color="#808080" stop-opacity="0.25" offset="0%"></stop>
            <stop stop-color="#808080" stop-opacity="0.12" offset="54%"></stop>
            <stop stop-color="#808080" stop-opacity="0.1" offset="100%"></stop>
        </linearGradient>
        <linearGradient x1="50%" y1="100%" x2="50%" y2="0%" id="linearGradient-5">
            <stop stop-color="#808080" stop-opacity="0.25" offset="0%"></stop>
            <stop stop-color="#808080" stop-opacity="0.12" offset="54%"></stop>
            <stop stop-color="#808080" stop-opacity="0.1" offset="100%"></stop>
        </linearGradient>
        <rect id="path-6" x="120" y="110" width="133" height="130"></rect>
        <filter x="-2.6%" y="-2.7%" width="109.8%" height="110.8%" filterUnits="objectBoundingBox" id="filter-7">
            <feOffset dx="6" dy="7" in="SourceAlpha" result="shadowOffsetOuter1"></feOffset>
            <feColorMatrix values="0 0 0 0 0.929411765   0 0 0 0 0.870588235   0 0 0 0 0.811764706  0 0 0 1 0" type="matrix" in="shadowOffsetOuter1"></feColorMatrix>
        </filter>
        <linearGradient x1="0.0114148736%" y1="50.0038141%" x2="100%" y2="50.0038141%" id="linearGradient-8">
            <stop stop-color="#808080" stop-opacity="0.25" offset="0%"></stop>
            <stop stop-color="#808080" stop-opacity="0.12" offset="54%"></stop>
            <stop stop-color="#808080" stop-opacity="0.1" offset="100%"></stop>
        </linearGradient>
        <rect id="path-9" x="81" y="0" width="326" height="220"></rect>
        <filter x="-1.2%" y="-1.8%" width="104.6%" height="107.3%" filterUnits="objectBoundingBox" id="filter-10">
            <feOffset dx="7" dy="8" in="SourceAlpha" result="shadowOffsetOuter1"></feOffset>
            <feColorMatrix values="0 0 0 0 0.929411765   0 0 0 0 0.870588235   0 0 0 0 0.811764706  0 0 0 1 0" type="matrix" in="shadowOffsetOuter1"></feColorMatrix>
        </filter>
        <rect id="path-11" x="70" y="142" width="66" height="86"></rect>
        <filter x="-3.8%" y="-2.9%" width="115.2%" height="110.5%" filterUnits="objectBoundingBox" id="filter-12">
            <feOffset dx="5" dy="4" in="SourceAlpha" result="shadowOffsetOuter1"></feOffset>
            <feColorMatrix values="0 0 0 0 0.929411765   0 0 0 0 0.870588235   0 0 0 0 0.811764706  0 0 0 1 0" type="matrix" in="shadowOffsetOuter1"></feColorMatrix>
        </filter>
        <rect id="path-13" x="0" y="95" width="66" height="86"></rect>
        <filter x="-3.0%" y="-2.3%" width="112.1%" height="109.3%" filterUnits="objectBoundingBox" id="filter-14">
            <feOffset dx="4" dy="4" in="SourceAlpha" result="shadowOffsetOuter1"></feOffset>
            <feColorMatrix values="0 0 0 0 0.929411765   0 0 0 0 0.870588235   0 0 0 0 0.811764706  0 0 0 1 0" type="matrix" in="shadowOffsetOuter1"></feColorMatrix>
        </filter>
    </defs>
    <g id="personalization" stroke="none" stroke-width="1" fill="none" fill-rule="evenodd">
        <rect fill="#F5F2EE" x="0" y="0" width="570" height="484"></rect>
        <g id="undraw_experts3_3njd" transform="translate(24.000000, -44.000000)">
            <g id="编组" opacity="0.5" transform="translate(218.000000, 37.000000)"></g>
            <g id="编组" opacity="0.5" transform="translate(232.000000, 48.000000)"></g>
            <g id="编组" opacity="0.5" transform="translate(263.000000, 58.000000)"></g>
            <g id="编组"></g>
            <g id="编组" opacity="0.05" transform="translate(270.000000, 68.000000)"></g>
            <g id="编组" opacity="0.5" transform="translate(18.000000, 72.000000)" fill="url(#linearGradient-1)" fill-rule="nonzero">
                <rect id="矩形" x="0" y="0.161212121" width="133.809886" height="132.569068"></rect>
            </g>
            <g id="矩形" fill-rule="nonzero">
                <use fill="black" fill-opacity="1" filter="url(#filter-3)" xlink:href="#path-2"></use>
                <use fill="#3F3D56" xlink:href="#path-2"></use>
            </g>
            <g id="编组" opacity="0.5" transform="translate(32.000000, 83.000000)" fill="#EFDBA3" fill-rule="nonzero">
                <rect id="矩形" x="0.0153623188" y="0.237583643" width="105.778783" height="82.4662082"></rect>
            </g>
            <g id="编组" opacity="0.5" transform="translate(65.000000, 89.000000)" fill="url(#linearGradient-4)" fill-rule="nonzero">
                <path d="M45.1911184,62.198008 L46.9103289,62.198008 L46.3723026,56.6665339 L46.3135526,56.6665339 C46.6413158,53.285498 47.1329605,38.3039044 31.1065789,32.3342629 L29.6749342,31.3864542 L29.5667105,31.4827888 L29.5667105,27.4398406 C30.624454,26.4941513 31.4997095,25.3606364 32.1486184,24.0960956 L32.1486184,24.0960956 L32.1486184,24.5094024 C33.5585577,22.9813386 34.726565,21.2446713 35.6117763,19.3601594 C34.7815635,20.9285441 33.7503185,22.3807614 32.5444079,23.6796813 L32.5444079,23.6423904 C34.5573684,21.3334661 42.7885526,10.6154582 29.6718421,2.92422311 C14.8977632,-5.73657371 12.1086842,8.79442231 12.1086842,8.79442231 L13.2867763,10.3792829 C13.2867763,10.3792829 10.4265789,16.134502 10.4265789,18.8505179 C10.4282018,23.7389924 13.4940401,28.0962044 18.0795395,29.727012 L18.0795395,33.1764143 C17.0127632,33.5679681 2.18611842,39.33251 2.18611842,56.6634263 L0.120592105,62.1949004 L0.810131579,62.5056574 L0.810131579,62.5056574 L0.810131579,77.9223108 L34.5140789,77.9223108 C34.5140789,77.9223108 36.5796053,61.4988048 35.8900658,55.9673307 L37.9555921,57.3501992 L37.9555921,62.1917928 L38.4132237,62.1917928 L38.4132237,62.312988 L38.2802632,62.312988 L38.4132237,62.7604781 L38.4132237,77.5773705 L45.17875,77.5773705 L45.17875,62.7666932 L45.2560526,62.3192032 L45.17875,62.3192032 L45.1911184,62.198008 Z M6.95414474,63.4658964 L6.95414474,63.4658964 L7.00361842,62.198008 L6.95414474,63.4658964 Z" id="形状"></path>
            </g>
            <rect id="矩形" fill="#FDA57D" fill-rule="nonzero" x="83" y="117" width="11" height="16"></rect>
            <path d="M84,119.25079 C85.1198073,119.668071 85.6014449,120 86.8567128,120 C89.4955436,120.000674 92.0408116,118.973402 94,117.116965 L94,117 L84,117 L84,119.25079 Z" id="路径" fill="#000000" fill-rule="nonzero" opacity="0.05"></path>
            <circle id="椭圆形" fill="#FDA57D" fill-rule="nonzero" cx="88" cy="108" r="11"></circle>
            <circle id="椭圆形" fill="#FFFF00" fill-rule="nonzero" cx="78" cy="105" r="1"></circle>
            <g id="编组" transform="translate(0.000000, 68.000000)"></g>
            <path d="M88.7566068,102.695636 L97.5267251,106.22284 L97.5267251,113 C97.5267251,113 108.976435,101.130728 95.2397804,92.8933972 C82.8968729,85.5001313 80.6608824,94.4059362 79.1082777,96.1187095 C79.0352091,96.1990189 78.9963339,96.30597 79.0002726,96.4158465 C79.0042113,96.5257229 79.0506385,96.629444 79.1292588,96.7040097 C80.6548877,98.1795824 81.958716,104.094195 88.7566068,102.695636 Z" id="路径" fill="#FFFF00" fill-rule="nonzero"></path>
            <rect id="矩形" fill="#FDA57D" fill-rule="nonzero" x="102" y="150" width="7" height="16"></rect>
            <polygon id="路径" fill="#FFFFFF" fill-rule="nonzero" points="103 145.624267 103 150 111 150 110.512266 145"></polygon>
            <polygon id="路径" fill="#FDA57D" fill-rule="nonzero" points="67 150 67 167 72.3760504 167 73 151.246624"></polygon>
            <path d="M87.3929565,126.868502 L83.509346,122.302752 C83.509346,122.302752 68,127.519878 68,144.477064 L72.6835464,149.69419 L72.0153647,166 L99.4453245,166 C99.4453245,166 101.453007,149.042813 100.784825,143.825688 L102.792507,145.131498 L110.8201,145.131498 C110.8201,145.131498 113.906911,126.868502 94.5076807,121 L87.3929565,126.868502 Z" id="路径" fill="#4D7958" fill-rule="nonzero"></path>
            <polygon id="路径" fill="#FFFFFF" fill-rule="nonzero" points="69.09803 144 67 149.11928 73.8752345 152 74 149.11928"></polygon>
            <polygon id="路径" fill="#000000" fill-rule="nonzero" opacity="0.05" points="81 123.606138 83.8825553 130 88 126.644501 84.0235872 122"></polygon>
            <polygon id="路径" fill="#FFFFFF" fill-rule="nonzero" points="81 123.606823 83.8825553 130 88 126.646482 84.0235872 122"></polygon>
            <polygon id="路径" fill="#000000" fill-rule="nonzero" opacity="0.05" points="94.647482 121 97 122.600629 90.3340185 129 88 126.933962"></polygon>
            <polygon id="路径" fill="#FFFFFF" fill-rule="nonzero" points="94.647482 121 97 122.597484 90.3340185 129 88 126.933962"></polygon>
            <path d="M73,148 C72.9924288,142.950049 74.7476849,138.035308 78,134" id="路径" fill="#000000" fill-rule="nonzero" opacity="0.05"></path>
            <polygon id="路径" fill="#000000" fill-rule="nonzero" opacity="0.05" points="100 145 100 142 103 143.998691 100.998689 143.5"></polygon>
            <polygon id="路径" fill="#000000" fill-rule="nonzero" opacity="0.05" points="102 150 102.132747 151 108.922294 151 109 150"></polygon>
            <polygon id="路径" fill="#000000" fill-rule="nonzero" opacity="0.05" points="67 150 67 150.461538 73 153 72.8459893 152.623815"></polygon>
            <path d="M100,109.132964 C99.1849935,110.621682 98.1726247,112.000252 96.9887509,113.233465 L96.9887509,106.451631 L87.7141036,102.926801 C80.7628727,104.278242 79.6661441,98.8478493 77.7167565,97.1085228 C77.5431054,96.9547171 77.2742307,96.9657122 77.1145067,97.1331505 L77.1145067,97.1331505 C77.0372346,97.2134058 76.996123,97.3202849 77.0002883,97.4300874 C77.0044536,97.5398899 77.0535516,97.6435412 77.1366948,97.7180567 C78.7532602,99.1895577 80.1289255,105.106346 87.3210563,103.702571 L96.5957036,107.227401 L96.5957036,114 C97.9796652,112.555968 99.1277408,110.914594 100,109.132964 Z" id="路径" fill="#000000" fill-rule="nonzero" opacity="0.05"></path>
            <circle id="椭圆形" fill="#FDA57D" fill-rule="nonzero" cx="97.5" cy="108.5" r="1.5"></circle>
            <rect id="矩形" fill="#E0E0E0" fill-rule="nonzero" x="37" y="176" width="93" height="4"></rect>
            <rect id="矩形" fill="#E0E0E0" fill-rule="nonzero" x="52" y="184" width="63" height="4"></rect>
            <g id="编组" opacity="0.5" transform="translate(119.000000, 108.000000)" fill="url(#linearGradient-5)" fill-rule="nonzero">
                <rect id="矩形" x="0.292808219" y="0.303822844" width="134.500685" height="132.569068"></rect>
            </g>
            <g id="矩形" fill-rule="nonzero">
                <use fill="black" fill-opacity="1" filter="url(#filter-7)" xlink:href="#path-6"></use>
                <use fill="#3F3D56" xlink:href="#path-6"></use>
            </g>
            <g id="编组" opacity="0.5" transform="translate(133.000000, 121.000000)" fill="#EFDBA3" fill-rule="nonzero">
                <rect id="矩形" x="0" y="0.0743283582" width="105.778783" height="82.7739179"></rect>
            </g>
            <g id="编组" opacity="0.5" transform="translate(163.000000, 122.000000)" fill="url(#linearGradient-8)" fill-rule="nonzero">
                <path d="M32.67,51.1255224 L32.9768182,50.8932463 L33.4155682,50.5649627 L33.4155682,50.5649627 L53.89875,35.2068657 L46.8572727,6.77936567 C46.8572727,6.77936567 46.8572727,6.74529851 46.8572727,6.68645522 C46.9155682,5.81929104 47.2438636,-0.891940299 43.6510227,0.318992537 C40.1410227,1.49895522 41.4419318,6.45727612 41.6935227,7.29966418 L41.7334091,7.42354478 L46.2129545,31.329403 L31.9765909,39.7099254 L30.0006818,39.4869403 C32.2524011,36.3691872 33.4478306,32.6014863 33.4094318,28.7433955 C33.4094318,19.8239925 27.3927273,12.5924627 19.9677273,12.5924627 C12.5427273,12.5924627 6.52602273,19.8239925 6.52602273,28.7433955 C6.52602273,35.4236567 9.90102273,41.1593284 14.715,43.6090672 L9.61875,46.1826866 L9.61875,46.2105597 C8.15829545,45.9008582 2.61715909,45.9937687 4.86306818,66.5207836 C5.41432741,71.4936924 4.24234313,76.5058391 1.54636364,80.7051119 L0.141136364,82.6779104 L35.2257955,82.8947015 L35.3331818,82.8947015 C35.3331818,82.8947015 30.3657955,74.8579478 32.67,51.1255224 Z" id="路径"></path>
            </g>
            <path d="M172.684867,168.161028 C172.684867,168.161028 165.321373,164.991997 167.468019,186.770921 C168.050949,192.577279 166.634841,198.408569 163.452418,203.306483 L163,204 L169.845554,204 L175,198.557601 L172.684867,168.161028 Z" id="路径" fill="#F7A8A8" fill-rule="nonzero"></path>
            <path d="M208.990893,129.088957 C208.990893,129.088957 208.990893,129.058282 208.990893,129 L203.83254,129.595092 L203.870056,129.717791 L208.343754,152.92638 L193,161.708589 L193.625255,173 L216,156.690184 L208.990893,129.088957 Z" id="路径" fill="#F7A8A8" fill-rule="nonzero"></path>
            <ellipse id="椭圆形" fill="#3F3D56" fill-rule="nonzero" cx="182.5" cy="150" rx="13.5" ry="16"></ellipse>
            <rect id="矩形" fill="#FDA57D" fill-rule="nonzero" x="180" y="156" width="9" height="14"></rect>
            <path d="M182.871191,167.971799 L180.351776,164.166462 L172.793532,167.971799 L172.793532,174.267508 C172.793532,174.267508 170.04928,179.136603 172.285337,184.743815 C171.669343,192.987162 170,203.792211 170,203.792211 L198,204 C198,204 192.96117,195.8652 195.480585,171.767833 L194.864591,161.620267 L189.197448,161 L182.871191,167.971799 Z" id="路径" fill="#F7A8A8" fill-rule="nonzero"></path>
            <polygon id="路径" fill="#000000" fill-rule="nonzero" opacity="0.05" points="194 161 195.002445 161.622296 196 171.460067 194.836186 172"></polygon>
            <path d="M180,158.266504 C181.005938,158.680929 181.442892,159 182.571429,159 C184.946233,159.000461 187.236793,157.973349 189,156.117359 L189,156 L180,156 L180,158.266504 Z" id="路径" fill="#000000" fill-rule="nonzero" opacity="0.05"></path>
            <circle id="椭圆形" fill="#FDA57D" fill-rule="nonzero" cx="183.5" cy="148.5" r="9.5"></circle>
            <ellipse id="椭圆形" fill="#FDA57D" fill-rule="nonzero" cx="193" cy="148.5" rx="1" ry="1.5"></ellipse>
            <circle id="椭圆形" fill="#FFFF00" fill-rule="nonzero" cx="174" cy="146" r="1"></circle>
            <g id="编组" transform="translate(0.000000, 70.000000)"></g>
            <polygon id="路径" fill="#000000" fill-rule="nonzero" opacity="0.05" points="174.229342 146 174.229342 146.5 191 146.5 191 147 174 147"></polygon>
            <rect id="矩形" fill="#3F3D56" fill-rule="nonzero" x="174" y="139" width="17" height="8"></rect>
            <path d="M205.551816,122.142879 C201.822374,123.303315 203.203033,128.171561 203.469184,129 L208.958551,128.398063 C209.031743,127.544801 209.381066,120.954519 205.551816,122.142879 Z" id="路径" fill="#FDA57D" fill-rule="nonzero"></path>
            <g id="编组" opacity="0.05" transform="translate(170.000000, 160.000000)" fill="#000000" fill-rule="nonzero">
                <path d="M0.71826087,42.6314286 C0.71826087,42.6314286 2.35565217,31.9305714 2.97652174,23.7667143 C0.782173913,18.2381429 3.49086957,13.3914286 3.49086957,13.3914286 L3.49086957,7.15642857 L10.4573913,3.63964286 L10.29,3.38778571 L2.82434783,7.15642857 L2.82434783,13.3914286 C2.82434783,13.3914286 0.115652174,18.2289286 2.31,23.7667143 C1.70130435,31.9305714 0.0517391304,42.6314286 0.0517391304,42.6314286 L27.72,42.8372143 L27.72,42.8372143 L0.71826087,42.6314286 Z" id="路径"></path>
                <polygon id="路径" points="13.4491304 7.14107143 19.6121739 0.301 19.0065217 0.233428571 13.166087 6.71414286"></polygon>
            </g>
            <polygon id="路径" fill="#000000" fill-rule="nonzero" opacity="0.05" points="178 165.521118 182.588407 177 191 161.323617 188.675129 161 182.909683 167.259766 180.348236 164.131469"></polygon>
            <polygon id="路径" fill="#FFFFFF" fill-rule="nonzero" points="178 164.520222 182.588407 176 191 160.326725 188.675129 160 182.909683 166.261697 180.348236 163.130849"></polygon>
            <rect id="矩形" fill="#E0E0E0" fill-rule="nonzero" x="140" y="212" width="93" height="4"></rect>
            <rect id="矩形" fill="#E0E0E0" fill-rule="nonzero" x="155" y="221" width="63" height="4"></rect>
        </g>
        <g id="undraw_landing_page_q6hh" transform="translate(139.000000, 225.000000)">
            <ellipse id="椭圆形" fill="#F2F2F2" fill-rule="nonzero" cx="221" cy="237.5" rx="68" ry="4.5"></ellipse>
            <ellipse id="椭圆形" fill="#F2F2F2" fill-rule="nonzero" cx="356" cy="227.5" rx="68" ry="4.5"></ellipse>
            <g id="矩形" fill-rule="nonzero">
                <use fill="black" fill-opacity="1" filter="url(#filter-10)" xlink:href="#path-9"></use>
                <use fill="#FFFFFF" xlink:href="#path-9"></use>
            </g>
            <path d="M81,16 L407,16" id="路径" stroke="#2F2E41" stroke-width="2"></path>
            <circle id="椭圆形" fill="#A8DD72" fill-rule="nonzero" cx="91" cy="8" r="4"></circle>
            <circle id="椭圆形" fill="#A8DD72" fill-rule="nonzero" cx="103" cy="8" r="4"></circle>
            <circle id="椭圆形" fill="#A8DD72" fill-rule="nonzero" cx="115" cy="9" r="4"></circle>
            <rect id="矩形" fill="#A8DD72" fill-rule="nonzero" opacity="0.3" x="101" y="31" width="275" height="53"></rect>
            <path d="M101,84 L376,31" id="路径" stroke="#A8DD72" stroke-width="2" opacity="0.3"></path>
            <path d="M376,84 L101,31" id="路径" stroke="#A8DD72" stroke-width="2" opacity="0.3"></path>
            <rect id="矩形" fill="#DFE3EF" fill-rule="nonzero" opacity="0.3" x="101" y="118" width="66" height="86"></rect>
            <rect id="矩形" fill="#A8DD72" fill-rule="nonzero" opacity="0.3" x="310" y="118" width="66" height="86"></rect>
            <rect id="矩形" fill="#A8DD72" fill-rule="nonzero" opacity="0.3" x="206" y="118" width="66" height="86"></rect>
            <path d="M101,118 L167,204" id="路径" stroke="#DFE3EF" stroke-width="2" opacity="0.3"></path>
            <path d="M167,118 L101,204" id="路径" stroke="#DFE3EF" stroke-width="2" opacity="0.3"></path>
            <path d="M206,118 L272,204" id="路径" stroke="#A8DD72" stroke-width="2" opacity="0.3"></path>
            <path d="M272,118 L206,204" id="路径" stroke="#A8DD72" stroke-width="2" opacity="0.3"></path>
            <path d="M310,118 L376,204" id="路径" stroke="#A8DD72" stroke-width="2" opacity="0.3"></path>
            <path d="M376,118 L310,204" id="路径" stroke="#A8DD72" stroke-width="2" opacity="0.3"></path>
            <rect id="矩形" fill="#DFE3EF" fill-rule="nonzero" x="102" y="31" width="275" height="53"></rect>
            <g id="编组-2" transform="translate(310.000000, 118.000000)" fill-rule="nonzero">
                <rect id="矩形" fill="#DFE3EF" x="0" y="0" width="66" height="86"></rect>
                <rect id="矩形" fill="#3F3D56" x="10" y="11" width="46" height="5"></rect>
                <rect id="矩形" fill="#3F3D56" x="10" y="23" width="46" height="5"></rect>
                <rect id="矩形" fill="#3F3D56" x="10" y="35" width="46" height="5"></rect>
                <rect id="矩形" fill="#3F3D56" x="10" y="46" width="46" height="5"></rect>
                <rect id="矩形" fill="#3F3D56" x="10" y="58" width="46" height="5"></rect>
                <rect id="矩形" fill="#3F3D56" x="10" y="69" width="46" height="5"></rect>
            </g>
            <g id="矩形" fill-rule="nonzero">
                <use fill="black" fill-opacity="1" filter="url(#filter-12)" xlink:href="#path-11"></use>
                <use fill="#F7A8A8" xlink:href="#path-11"></use>
            </g>
            <rect id="矩形" fill="#FFFFFF" fill-rule="nonzero" x="80" y="171" width="46" height="5"></rect>
            <rect id="矩形" fill="#FFFFFF" fill-rule="nonzero" x="80" y="183" width="46" height="5"></rect>
            <rect id="矩形" fill="#FFFFFF" fill-rule="nonzero" x="80" y="194" width="46" height="5"></rect>
            <g id="矩形备份-5" fill-rule="nonzero">
                <use fill="black" fill-opacity="1" filter="url(#filter-14)" xlink:href="#path-13"></use>
                <use fill="#4D7958" xlink:href="#path-13"></use>
            </g>
            <rect id="矩形备份-4" fill="#FFFFFF" fill-rule="nonzero" x="10" y="124" width="46" height="5"></rect>
            <rect id="矩形备份-3" fill="#FFFFFF" fill-rule="nonzero" x="10" y="136" width="46" height="5"></rect>
            <rect id="矩形备份" fill="#FFFFFF" fill-rule="nonzero" x="10" y="147" width="46" height="5"></rect>
            <path d="M248,61.5877611 C248,71.5289163 241.956133,75 234.5,75 C234.327272,75 234.15482,74.9981225 233.982641,74.9943676 C233.63718,74.9871292 233.295009,74.9710462 232.956955,74.9485257 C226.227936,74.4828764 221,70.8332563 221,61.5877611 C221,52.0197748 233.504754,39.9465896 234.444066,39.0530804 L234.445713,39.0514743 C234.481913,39.0168926 234.500014,39 234.500014,39 C234.500014,39 248,51.6466059 248,61.5877611 Z" id="路径" fill="#3F3D56" fill-rule="nonzero"></path>
            <path d="M234.273382,73.4845811 L239.071933,66.7376115 L234.26139,74.2254019 L234.248606,75 C233.912872,74.9927604 233.580335,74.976675 233.251799,74.9541509 L233.768994,65.0066252 L233.764992,64.9294017 L233.773787,64.914927 L233.822548,63.9754341 L229,56.4691376 L233.837725,63.2708111 L233.84893,63.470293 L234.239806,55.9543497 L230.111119,48.1978944 L234.290168,54.6351778 L234.697039,39.0531019 L234.69864,39 L234.69864,39.0514823 L234.630696,51.3388966 L238.74101,46.4676781 L234.61391,52.3974662 L234.5052,59.126744 L238.34293,52.668534 L234.489215,60.1169183 L234.428466,63.8579947 L240,54.8692645 L234.40766,65.1634751 L234.273382,73.4845811 Z" id="路径" fill="#A8DD72" fill-rule="nonzero"></path>
            <rect id="矩形" fill="#DFE3EF" fill-rule="nonzero" x="206" y="118" width="66" height="86"></rect>
            <rect id="矩形" fill="#3F3D56" fill-rule="nonzero" x="225" y="132" width="29" height="29"></rect>
            <rect id="矩形" fill="#3F3D56" fill-rule="nonzero" x="213" y="167" width="52" height="4"></rect>
            <rect id="矩形" fill="#3F3D56" fill-rule="nonzero" x="213" y="177" width="52" height="4"></rect>
            <rect id="矩形" fill="#3F3D56" fill-rule="nonzero" x="213" y="187" width="52" height="4"></rect>
        </g>
    </g>
</svg>