<?xml version="1.0" encoding="UTF-8"?>
<svg width="176px" height="60px" viewBox="0 0 176 60" version="1.1" xmlns="http://www.w3.org/2000/svg" xmlns:xlink="http://www.w3.org/1999/xlink">
    <!-- Generator: Sketch 56 (81588) - https://sketch.com -->
    <title>画板备份 4</title>
    <desc>Created with Sketch.</desc>
    <g id="画板备份-4" stroke="none" stroke-width="1" fill="none" fill-rule="evenodd">
        <g id="image2VectorSplit" transform="translate(13.000000, 7.000000)" fill="#1C649C">
            <path d="M20.999,0.096147541 C20.7565574,0.201344262 16.2753279,4.64939344 16.2768357,4.7832459 C16.2772131,4.83113115 17.7194262,6.31067213 19.481377,8.0714918 L22.685541,11.2726393 L25.008541,8.95114754 C26.2863607,7.67445902 27.3681148,6.54481967 27.4126066,6.44113115 C27.5287377,6.16927869 27.5091311,5.41819672 27.3790492,5.17122951 C27.2003279,4.8322623 22.5882623,0.257901639 22.287377,0.121409836 C21.9695246,-0.023 21.3032787,-0.0361967213 20.999,0.096147541 L20.999,0.096147541 Z M84.003541,5.34655738 C83.9428361,5.38162295 83.8934426,5.44647541 83.8934426,5.48983607 C83.8934426,5.53357377 83.8417869,5.62444262 83.7791967,5.69193443 C83.7162295,5.75942623 83.5827541,5.95586885 83.482459,6.12818033 C83.3821639,6.30011475 83.252082,6.49354098 83.1932623,6.55801639 C83.1344426,6.62211475 83.0522459,6.75634426 83.0107705,6.8562623 C82.9692951,6.95655738 82.9157541,7.03837705 82.891623,7.03837705 C82.8671148,7.03837705 82.7837869,7.16544262 82.7061148,7.32116393 C82.6284426,7.4765082 82.5436066,7.60395082 82.5172131,7.60395082 C82.4908197,7.60395082 82.4293607,7.68162295 82.3803443,7.77663934 C82.2909836,7.95121311 81.8313607,8.66006557 81.657541,8.89195082 C81.6058852,8.96132787 81.4384754,9.21583607 81.2853934,9.45752459 C81.1326885,9.69959016 80.9784754,9.93109836 80.9434098,9.97219672 C80.9079672,10.0132951 80.8197377,10.1524262 80.7477213,10.281377 C80.6753279,10.4103279 80.5452459,10.6082787 80.4592787,10.7213934 C80.2786721,10.9578033 80.2752787,11.2662295 80.4524918,11.2997869 C80.5128197,11.3110984 80.6444098,11.3963115 80.745082,11.4886885 C81.0742459,11.7918361 81.3031148,11.9400164 81.4414918,11.9400164 C81.6100328,11.9400164 83.5503279,10.0344098 83.4866066,9.93147541 C83.4632295,9.89377049 83.4711475,9.87077049 83.5035738,9.88019672 C83.5605082,9.89678689 85.291541,8.17593443 86.3944098,7.00632787 C87.0372787,6.325 87.0433115,6.25034426 86.4698197,6.0727541 C86.2450984,6.003 86.0475246,5.92721311 86.0301803,5.90421311 C86.0128361,5.88121311 85.7866066,5.7982623 85.5271967,5.71945902 C85.2681639,5.64065574 85.0276066,5.55581967 84.9932951,5.53055738 C84.7482131,5.35259016 84.1758525,5.2462623 84.003541,5.34655738 L84.003541,5.34655738 Z M73.2730984,5.44345902 C72.8756885,5.48983607 71.7162623,5.60445902 70.6967213,5.69796721 C69.6771803,5.79185246 68.8288197,5.88611475 68.8114754,5.90798361 C68.7941311,5.92947541 67.9600984,6.01355738 66.9575246,6.09462295 C65.9553279,6.17606557 65.1212951,6.26052459 65.1039508,6.28239344 C65.0866066,6.30463934 64.1108033,6.40040984 62.935918,6.49580328 C61.7606557,6.59119672 60.742623,6.693 60.673623,6.72240984 C60.6042459,6.75144262 59.999459,6.82044262 59.3290656,6.8754918 C58.6586721,6.93016393 58.0719836,7.00708197 58.0248525,7.04591803 C57.9547213,7.10398361 57.9396393,7.89880328 57.9396393,11.5546721 C57.9388852,16.9559016 57.8321803,19.9538197 57.6259344,20.3542459 C57.5976557,20.4096721 57.5135738,20.7618361 57.4396721,21.136623 C57.3653934,21.5114098 57.2794262,21.865082 57.2481311,21.9220164 C57.2168361,21.9793279 57.1218197,22.2523115 57.0366066,22.5286885 C56.9517705,22.8050656 56.8205574,23.1587377 56.7455246,23.314082 C56.2399016,24.3603934 56.0845574,24.6691967 56.0494918,24.6967213 C55.7433279,24.9372787 55.7463443,25.4108525 56.0547705,25.583918 C56.1927705,25.6615902 56.3058852,25.7490656 56.3058852,25.7780984 C56.3058852,25.8071311 56.3696066,25.8584098 56.4472787,25.8919672 C56.5253279,25.9259016 56.633918,25.9858525 56.6889672,26.0254426 C56.9144426,26.1879508 57.124459,26.013 58.1794426,24.7826885 C58.6311475,24.2563279 58.9131803,23.8773934 59.0383607,23.628541 C59.0990656,23.5075082 59.1850328,23.3661148 59.2287705,23.314082 C59.2725082,23.2624262 59.3739344,23.0644754 59.4534918,22.8744426 C59.5334262,22.6844098 59.6201475,22.5136066 59.6461639,22.4951311 C59.6725574,22.4766557 59.7366557,22.363541 59.7886885,22.2440164 C59.8754098,22.0438033 59.8833279,22.194623 59.8855902,24.0715738 C59.8874754,25.575623 59.9078361,26.1370492 59.9632623,26.1924754 C60.0563934,26.2852295 63.0098197,26.2984262 63.1557377,26.2064262 C63.2198361,26.1657049 63.2601803,26.0009344 63.2812951,25.6887377 L63.3129672,25.231 L67.6803279,25.1993279 L72.0476885,25.1680328 L72.0476885,24.5394918 L72.0476885,23.9113279 L67.6637377,23.8951148 L63.2801639,23.8789016 L63.296377,21.3500328 L63.3129672,18.8211639 L67.6803279,18.7894918 L72.0476885,18.7581967 L72.0657869,18.1454918 C72.0755902,17.8084098 72.0755902,17.526 72.0657869,17.518082 C72.0559836,17.5097869 69.5591639,17.4886721 66.5178852,17.4709508 L60.9877049,17.4385246 L60.9669672,17.0927705 C60.9556557,16.9027377 60.965082,16.514 60.988459,16.2285738 L61.0303115,15.7097541 L66.7904918,15.7255902 L72.5506721,15.7418033 L72.5683934,16.1818197 C72.5812131,16.5026885 72.6143934,16.6429508 72.6901803,16.7002623 C72.8613607,16.8292131 75.7457869,16.8107377 75.876623,16.6799016 C76.0270656,16.529459 76.0266885,9.61211475 75.8762459,9.46167213 C75.7865082,9.37193443 75.0580492,9.36401639 68.4608197,9.37872131 L61.1449344,9.39493443 L61.1449344,9.00016393 C61.1449344,8.5122623 60.9092787,8.57447541 63.3442623,8.42139344 C64.4674918,8.3512623 66.6449508,8.21439344 68.1829344,8.1182459 C69.720918,8.02172131 71.0217377,7.92595082 71.0737705,7.90521311 C71.1254262,7.88447541 72.0163934,7.8222623 73.0532787,7.76721311 C74.0901639,7.71254098 75.1877541,7.65372131 75.4920328,7.63713115 C76.0892787,7.60432787 76.1639344,7.58245902 76.1639344,7.44181967 C76.1639344,7.35509836 75.8781311,6.85437705 75.7899016,6.78688525 C75.7672787,6.76954098 75.6805574,6.64247541 75.5972295,6.50409836 C75.5135246,6.36572131 75.3947541,6.19793443 75.3332951,6.13081967 C75.2718361,6.06408197 75.2213115,5.98603279 75.2213115,5.95813115 C75.2213115,5.93022951 75.171918,5.85708197 75.1112131,5.796 C75.0508852,5.73491803 74.9513443,5.60785246 74.8898852,5.51321311 C74.7582951,5.31036066 74.504918,5.29942623 73.2730984,5.44345902 L73.2730984,5.44345902 Z M117.493426,5.68514754 C117.440262,5.73831148 117.382197,5.97095082 117.35618,6.23488525 C117.331295,6.4867541 117.28982,6.72090164 117.263803,6.75559016 C117.237787,6.78990164 117.136738,7.35547541 117.039459,8.01229508 C116.941803,8.66911475 116.844148,9.22036066 116.821902,9.23770492 C116.746492,9.29614754 116.523656,11.0924098 116.586623,11.1331311 C116.595295,11.1387869 118.10123,11.1599016 119.932934,11.1802623 L123.263787,11.2172131 L123.26077,14.0858033 C123.258885,16.0441967 123.236262,16.981541 123.189885,17.0396066 C123.152557,17.0859836 123.10241,17.2941148 123.078279,17.5014918 C123.025869,17.9516885 122.858459,18.7329344 122.795492,18.8211639 C122.770984,18.8554754 122.670311,19.1099836 122.572279,19.3867377 C122.474246,19.6631148 122.373951,19.9036721 122.34982,19.9206393 C122.325311,19.9379836 122.241984,20.1004918 122.163934,20.2822295 C122.086262,20.4635902 121.990869,20.6106393 121.952033,20.6095082 C121.87323,20.6064918 121.284279,19.4202951 121.284279,19.2649508 C121.284279,19.2110328 121.261279,19.166541 121.233,19.166541 C121.205098,19.166541 121.117623,18.9052459 121.03882,18.5855082 C120.960016,18.2657705 120.869902,17.947541 120.838984,17.878541 C120.713803,17.6006557 120.656869,16.5121148 120.656115,14.3836721 C120.656115,13.1529836 120.637639,12.0146721 120.61577,11.8544262 L120.575803,11.5629672 L118.99182,11.5629672 L117.407836,11.5629672 L117.367869,12.7412459 C117.305279,14.5737049 117.457607,17.4226885 117.63859,17.8155738 C117.670639,17.8845738 117.742656,18.1956393 117.798459,18.5067049 C117.854262,18.8177705 117.937967,19.1571148 117.984344,19.2608033 C118.030344,19.3644918 118.131393,19.6472787 118.208689,19.8893443 C118.285984,20.1314098 118.367803,20.3433115 118.390426,20.3606557 C118.412672,20.378 118.482803,20.5333443 118.545393,20.7064098 C118.672836,21.0566885 119.092115,21.9242787 119.273852,22.2146066 C119.44277,22.4834426 119.6,22.8778361 119.531,22.8589836 C119.498951,22.8499344 119.420902,22.877082 119.35718,22.9185574 C119.153574,23.0520328 118.421721,23.5312623 118.29541,23.6138361 C118.228295,23.6579508 118.050705,23.7710656 117.901016,23.8653279 C117.750951,23.9595902 117.568082,24.0881639 117.494557,24.150377 C117.420656,24.2129672 117.267574,24.3079836 117.154459,24.3619016 C117.040967,24.4158197 116.948213,24.4818033 116.948213,24.5089508 C116.948213,24.5357213 116.799656,24.6352623 116.618295,24.7295246 C116.436557,24.8241639 116.274049,24.9203115 116.256705,24.9436885 C116.239361,24.9670656 116.115689,25.0526557 115.981836,25.1344754 L115.737885,25.2826557 L115.779361,25.7279508 C115.86118,26.6117541 115.876262,26.6592623 116.061393,26.6132623 C116.151508,26.5910164 116.233705,26.549541 116.244262,26.5208852 C116.254443,26.4926066 116.438443,26.404377 116.652607,26.3251967 C116.867148,26.2463934 117.056803,26.1608033 117.074525,26.135541 C117.091869,26.1099016 117.261541,26.028082 117.451197,25.9534262 C117.640852,25.8787705 117.824475,25.7939344 117.859164,25.7656557 C117.893852,25.737 118.112918,25.637459 118.346311,25.5443279 C118.579705,25.4508197 118.770492,25.3493934 118.770492,25.3184754 C118.770492,25.2875574 118.810459,25.2622951 118.859475,25.2622951 C118.967689,25.2622951 119.540426,25.0213607 119.586049,24.9565082 C119.604148,24.9312459 119.760246,24.8580984 119.932934,24.794377 C120.106,24.7306557 120.360508,24.6152787 120.498508,24.5379836 C120.636885,24.4606885 120.883852,24.3483279 121.047115,24.287623 C121.210754,24.2272951 121.332541,24.1590492 121.318213,24.1356721 C121.303885,24.1122951 121.389475,24.0870328 121.508246,24.0787377 C121.627016,24.0708197 121.723918,24.0915574 121.723918,24.1251148 C121.723918,24.1582951 121.787639,24.2054262 121.865311,24.2295574 C121.943361,24.2536885 122.261213,24.3931967 122.572279,24.5387377 C122.883344,24.6846557 123.201574,24.8241639 123.279246,24.8490492 C123.357295,24.8735574 123.420639,24.9142787 123.420639,24.939541 C123.420639,24.9648033 123.526967,25.0228689 123.656295,25.0681148 C123.786,25.1133607 124.146459,25.2717213 124.457525,25.4199016 C125.561525,25.9458852 125.859016,26.0793607 125.927639,26.0793607 C125.966098,26.0793607 125.997393,26.1038689 125.997393,26.1336557 C125.997393,26.1634426 126.172344,26.2520492 126.386508,26.3300984 C126.601049,26.4081475 126.814836,26.511082 126.862344,26.5585902 C127.110443,26.8063115 127.317066,26.2920164 127.317066,25.4278197 C127.317066,25.3256393 126.165934,24.1443443 124.997459,23.0471311 L124.478639,22.5599836 L124.586852,22.2771967 C124.646049,22.1218525 124.714672,21.9944098 124.738803,21.9944098 C124.763311,21.9944098 124.862852,21.796459 124.960508,21.5547705 C125.057787,21.3127049 125.156574,21.1147541 125.180328,21.1147541 C125.203705,21.1147541 125.260639,20.9944754 125.306262,20.8478033 C125.351885,20.7007541 125.455197,20.4447377 125.535508,20.278459 C125.61582,20.1121803 125.726672,19.8011148 125.782098,19.5873279 C125.837525,19.3731639 125.906902,19.1688033 125.936311,19.1329836 C125.966098,19.097541 126.052443,18.7438689 126.12823,18.3475902 C126.204393,17.9513115 126.289607,17.5704918 126.317508,17.5014918 C126.503016,17.0422459 126.652328,9.4552623 126.485672,8.93908197 L126.440426,8.79768852 L124.94618,8.79881967 C123.224197,8.79995082 123.279623,8.78411475 123.301869,9.26485246 C123.313557,9.52313115 123.29282,9.64039344 123.228344,9.6814918 C123.120131,9.7497377 120.298295,9.76104918 120.258705,9.69318033 C120.220623,9.62832787 120.337131,8.79504918 120.405754,8.64083607 C120.645934,8.10052459 120.706639,6.72014754 120.500393,6.48939344 C120.414803,6.394 120.229672,6.17418033 120.088656,6.0014918 C119.948016,5.82842623 119.805869,5.69419672 119.773066,5.70286885 C119.739885,5.71154098 119.713115,5.69042623 119.713115,5.6557377 C119.713115,5.54601639 117.604279,5.57391803 117.493426,5.68514754 L117.493426,5.68514754 Z M93.0365082,5.7944918 C93.0202951,5.83936066 92.9995574,6.24318033 92.9905082,6.69262295 L92.973918,7.50968852 L90.1460492,7.54098361 L87.3181803,7.57227869 L87.300459,8.21590164 L87.2823607,8.85952459 L90.1283279,8.8757377 L92.973918,8.89195082 L92.9916393,9.72485246 L93.0089836,10.557377 L91.6878033,10.557377 L90.3662459,10.557377 L90.3583279,10.2432951 C90.3432459,9.64340984 90.4265738,9.67772131 88.9851148,9.67772131 C88.2985082,9.67772131 87.6922131,9.69468852 87.637541,9.71580328 C87.5489344,9.7497377 87.538377,10.0992623 87.538377,13.0149836 L87.538377,16.276082 L94.6005082,16.276082 L101.663016,16.276082 L101.700721,16.1346885 C101.766328,15.8907377 101.74559,10.0132951 101.678852,9.83759016 L101.617016,9.67508197 L100.280377,9.69204918 L98.9441148,9.70901639 L98.9124426,10.1173607 L98.8811475,10.526082 L97.5437541,10.5430492 L96.2067377,10.5600164 L96.224082,9.72598361 L96.2418033,8.89195082 L99.1326393,8.86065574 L102.023098,8.82936066 L102.023098,8.20081967 L102.023098,7.57227869 L99.1326393,7.54098361 L96.2418033,7.50968852 L96.2248361,7.2894918 C96.1927869,6.87398361 96.1464098,6.79593443 95.6151475,6.26354098 L95.0827541,5.73001639 L94.0745246,5.72172131 C93.3027049,5.71568852 93.0591311,5.73265574 93.0365082,5.7944918 L93.0365082,5.7944918 Z M108.368836,5.79713115 C108.352623,5.8404918 108.332639,6.39890164 108.32359,7.03837705 L108.307377,8.20081967 L107.081967,8.23211475 L105.856557,8.26378689 L105.838836,8.93795082 L105.820738,9.61211475 L107.064246,9.62908197 L108.307377,9.64604918 L108.324344,11.0128525 L108.341311,12.3796557 L106.706049,12.3796557 L105.071164,12.3796557 L105.071164,13.0394918 L105.071164,13.6993279 L107.744066,13.6993279 C110.271049,13.6993279 110.413574,13.7053607 110.355885,13.8094262 C110.220148,14.0545082 108.978148,15.2550328 108.44877,15.6524426 C108.353754,15.724082 108.276082,15.824377 108.276082,15.8756557 C108.276082,15.9273115 108.25082,15.9537049 108.220656,15.9348525 C108.173902,15.9061967 107.88018,16.0894426 107.773098,16.2138689 C107.755754,16.2342295 107.642639,16.3186885 107.521984,16.4016393 C107.400951,16.4845902 107.287836,16.5709344 107.270492,16.5935574 C107.253148,16.6158033 107.111754,16.713459 106.95641,16.8099836 C106.800689,16.9068852 106.659295,17.0056721 106.641951,17.0301803 C106.624607,17.0543115 106.54618,17.1078525 106.467377,17.1493279 C106.388951,17.1908033 106.340689,17.2515082 106.360672,17.2839344 C106.380656,17.3163607 106.356902,17.3272951 106.307885,17.3084426 C106.258492,17.2895902 106.177803,17.3148525 106.127656,17.364623 C106.077885,17.4147705 105.91877,17.5158197 105.773984,17.5897213 C105.629197,17.663623 105.510803,17.7446885 105.510803,17.7699508 C105.510803,17.7955902 105.425967,17.8540328 105.321902,17.9000328 C105.218213,17.9460328 105.148836,18.009 105.168066,18.0402951 C105.187295,18.0715902 105.164672,18.0821475 105.117918,18.0640492 C105.028557,18.0297377 104.75482,18.2295738 104.759289,18.3257213 C104.760852,18.3562623 104.967475,18.6043607 105.218967,18.8769672 L105.676328,19.3724098 L106.065066,19.1982131 C106.278852,19.1024426 106.453426,18.9995082 106.453426,18.9697213 C106.453426,18.9395574 106.491508,18.9154262 106.537885,18.9154262 C106.584639,18.9154262 106.797672,18.8023115 107.011459,18.6639344 C107.225246,18.5255574 107.422443,18.4124426 107.449213,18.4124426 C107.475984,18.4124426 107.553279,18.3630492 107.620393,18.3027213 C107.687508,18.2420164 107.866607,18.1247541 108.018557,18.0421803 C108.170131,17.9592295 108.339803,17.8517705 108.39523,17.8035082 C108.450656,17.7552459 108.722131,17.5686066 108.998508,17.3887541 C109.275262,17.2085246 109.510918,17.0403607 109.52223,17.0143443 C109.553148,16.9449672 111.858049,16.9559016 111.858049,17.0256557 C111.858049,17.0577049 111.822607,17.1214262 111.779246,17.1674262 C111.736262,17.2134262 111.615984,17.4132623 111.512295,17.6115902 C111.408607,17.809918 111.306049,17.9724262 111.28418,17.9724262 C111.262689,17.9724262 111.209902,18.0565082 111.167672,18.1590656 L111.090377,18.3457049 L110.390197,18.3634262 L109.690016,18.3811475 L109.658344,19.3867377 L109.627049,20.3919508 L108.998508,20.4488852 C108.653131,20.4801803 108.356016,20.5261803 108.338672,20.5514426 C108.303984,20.6023443 106.050738,20.7524098 105.520984,20.7392131 L105.185033,20.730918 L105.228393,20.9382951 C105.252148,21.052541 105.308328,21.2222131 105.353197,21.3149672 C105.397689,21.4077213 105.499492,21.7542295 105.579426,22.0845246 C105.658984,22.4151967 105.746836,22.685918 105.774738,22.685918 C105.802262,22.685918 105.825262,22.7292787 105.825262,22.7820656 C105.825262,22.9645574 106.867426,22.8397541 109.485656,22.3446885 L109.658344,22.3118852 L109.658344,23.3061639 C109.658344,24.6605246 109.689262,24.6390328 107.607574,24.7389508 L106.767885,24.778918 L106.767885,25.5292459 L106.767885,26.2795738 L109.077311,26.2573279 C110.666197,26.2418689 111.425951,26.212459 111.512295,26.1626885 C111.581295,26.1230984 111.772082,26.0431639 111.935721,25.9854754 C112.126131,25.9187377 112.283361,25.8090164 112.372721,25.6815738 C112.449262,25.5718525 112.531459,25.4681639 112.555967,25.4508197 C112.671721,25.3682459 112.737705,24.5372295 112.737705,23.1564754 L112.737705,21.6392295 L113.365115,21.5295082 C113.710492,21.4691803 114.009115,21.3933934 114.028721,21.3613443 C114.048705,21.3292951 114.132033,21.3032787 114.214607,21.3032787 C114.296803,21.3032787 114.382016,21.274623 114.403508,21.2395574 C114.425377,21.2041148 114.46723,21.190541 114.496639,21.2086393 C114.562246,21.2493607 115.584426,21.0506557 115.628541,20.9888197 C115.645508,20.9643115 115.851,20.9088852 116.08477,20.8651475 C116.433541,20.8002951 116.514607,20.7622131 116.539115,20.6517377 C116.579082,20.4718852 116.758934,19.3988033 116.759312,19.3396066 C116.759689,19.2728689 116.482557,19.2807869 116.410918,19.3497869 C116.356623,19.4018197 115.230377,19.5971311 114.371459,19.703459 C114.181426,19.7272131 113.997803,19.7675574 113.963115,19.7939508 C113.928426,19.8199672 113.716525,19.8614426 113.491803,19.8859508 C113.267082,19.910459 113.00541,19.9459016 112.910393,19.9647541 L112.737705,19.9994426 L112.737705,19.5202131 C112.737705,19.2427049 112.764098,19.0409836 112.800672,19.0409836 C112.834984,19.0409836 112.863262,19.0017705 112.863262,18.9538852 C112.863262,18.905623 112.90323,18.8701803 112.951492,18.875082 C113.077426,18.8875246 113.937852,18.1594426 113.88959,18.0813934 C113.867721,18.0455738 113.879033,18.0342623 113.914852,18.0565082 C113.986115,18.100623 114.577705,17.5478689 114.953246,17.0863607 L115.188525,16.7971639 L115.188525,16.1908689 L115.188525,15.5845738 L113.256148,15.5834426 L111.32377,15.5819344 L111.70082,15.2316557 C111.908197,15.0393607 112.129525,14.8448033 112.192492,14.7999344 C112.255459,14.7550656 112.314656,14.6657049 112.324082,14.6016066 C112.333508,14.5375082 112.373852,14.4813279 112.41382,14.4771803 C112.453787,14.4726557 112.507705,14.4654918 112.533344,14.4609672 C112.559361,14.4564426 112.720361,14.283 112.890787,14.076 L113.201098,13.6993279 L114.540377,13.6993279 L115.879656,13.6993279 L115.879656,13.0394918 L115.879656,12.3796557 L115.15723,12.3796557 C114.497393,12.3796557 114.314525,12.335541 114.499656,12.220918 C114.584869,12.1685082 115.137246,11.3405082 115.232262,11.1229508 C115.254885,11.0712951 115.291836,11.0143607 115.314459,10.9973934 C115.446049,10.8955902 116.222016,9.25052459 116.329475,8.84481967 C116.372836,8.68080328 116.42977,8.54657377 116.45541,8.54657377 C116.481426,8.54657377 116.521393,8.44590164 116.544393,8.32260656 C116.598689,8.03340984 116.466721,7.90483607 115.894738,7.68954098 C115.661721,7.60206557 115.443033,7.50818033 115.408344,7.48103279 C115.374033,7.4542623 115.190033,7.37432787 115,7.30344262 C114.809967,7.23293443 114.56941,7.13037705 114.465721,7.07570492 C114.21423,6.94298361 114.120344,6.94977049 114.120344,7.10096721 C114.120344,7.17034426 114.097721,7.22690164 114.070574,7.22690164 C114.043049,7.22690164 113.952557,7.48140984 113.868852,7.79247541 C113.785148,8.10354098 113.698803,8.35804918 113.676934,8.35804918 C113.655443,8.35804918 113.601902,8.47606557 113.558918,8.62047541 C113.515557,8.76488525 113.387361,9.08311475 113.273869,9.32744262 C113.16,9.57177049 113.048016,9.83532787 113.023885,9.913 C113.000131,9.99029508 112.947344,10.089459 112.906246,10.1328197 C112.865148,10.1761803 112.763344,10.3601803 112.679639,10.541541 C112.595934,10.7232787 112.506951,10.871459 112.481689,10.871459 C112.441721,10.871459 112.328984,11.1270984 112.307869,11.2654754 C112.303721,11.2922459 112.232082,11.3880164 112.148,11.4785082 C112.064295,11.569 111.957967,11.7168033 111.911967,11.806918 C111.799984,12.0259836 111.523984,12.3796557 111.465164,12.3796557 C111.381459,12.3796557 111.408984,9.77462295 111.493443,9.69016393 C111.540574,9.64303279 111.772836,9.6147541 112.109541,9.6147541 L112.649852,9.6147541 L112.767115,9.28483607 C112.83159,9.10347541 112.90323,8.94059016 112.926607,8.92362295 C112.985803,8.87913115 113.114754,8.487 113.114754,8.3505082 C113.114754,8.24644262 113.039344,8.23437705 112.28223,8.21854098 L111.449328,8.20081967 L111.431607,7.52514754 C111.421426,7.14470492 111.387115,6.84985246 111.35318,6.84985246 C111.319623,6.84985246 111.292475,6.81327869 111.292475,6.76840984 C111.292475,6.72354098 111.066623,6.46903279 110.791,6.20283607 L110.289902,5.71870492 L109.343885,5.71870492 C108.644082,5.71870492 108.390328,5.73906557 108.368836,5.79713115 L108.368836,5.79713115 Z M138.481492,5.76583607 C138.466033,5.79147541 138.448689,6.16022951 138.443787,6.58516393 C138.438508,7.00972131 138.418148,7.39845902 138.398918,7.44860656 C138.368754,7.52740984 137.733426,7.5424918 133.861508,7.55644262 L129.359164,7.57227869 L129.341443,8.21552459 L129.323344,8.85839344 L130.818344,8.87536066 L132.312967,8.89195082 L132.29223,9.07972131 C132.281295,9.18303279 132.248869,9.29614754 132.220967,9.33121311 C132.192689,9.36627869 132.104459,9.706 132.024902,10.0860656 C131.945344,10.4661311 131.853344,10.7956721 131.820918,10.817918 C131.788115,10.8401639 131.775295,10.9310328 131.792262,11.0200164 C131.809607,11.109 131.802066,11.1689508 131.776049,11.1527377 C131.75041,11.1369016 131.678393,11.3921639 131.616557,11.7201967 C131.554721,12.0486066 131.486098,12.3170656 131.463852,12.3170656 C131.361295,12.3170656 131.184836,13.5172131 131.278344,13.5767869 C131.333393,13.6114754 134.847492,13.6352295 140.026639,13.6356066 L148.682934,13.6367377 L148.682934,13.4523607 C148.682934,13.2136885 148.50723,12.3777705 148.438984,12.2902951 C148.409951,12.2529672 148.336426,12.0105246 148.275344,11.7514918 C148.214639,11.492082 148.129049,11.1953443 148.085689,11.0916557 C148.041951,10.9879672 147.939393,10.6908525 147.857574,10.4318197 L147.709016,9.9605082 L146.247951,9.94354098 L144.786885,9.92657377 L144.786885,10.1791967 C144.786885,10.3179508 144.808754,10.4318197 144.835525,10.4318197 C144.862295,10.4318197 144.935443,10.7779508 144.997656,11.201377 C145.059869,11.6248033 145.124721,12.0207049 145.141689,12.0814098 C145.170721,12.1854754 144.89359,12.1911311 139.952361,12.1911311 C137.081131,12.1911311 134.732115,12.1768033 134.732115,12.1587049 C134.732115,12.044459 135.005098,10.8914426 135.044311,10.8401639 C135.070705,10.8054754 135.15818,10.480459 135.238492,10.1173607 C135.318426,9.75463934 135.40477,9.44357377 135.429656,9.42622951 C135.454541,9.40888525 135.494508,9.28860656 135.519016,9.15890164 C135.543148,9.02957377 135.567279,8.91683607 135.571803,8.90854098 C135.576705,8.9002459 139.002197,8.8787541 143.184426,8.86140984 L150.788377,8.82936066 L150.788377,8.20081967 L150.788377,7.57227869 L146.216656,7.55644262 L141.644934,7.54022951 L141.644934,7.2932623 C141.644934,6.90490164 141.555197,6.75295082 141.009984,6.21867213 L140.499459,5.71870492 L139.504803,5.71870492 C138.957705,5.71870492 138.497328,5.73981967 138.481492,5.76583607 L138.481492,5.76583607 Z M11.7514918,9.21621311 C10.1098197,10.8605246 8.77355738,12.2310984 8.78222951,12.2616393 C8.79090164,12.2921803 8.76262295,12.3174426 8.7192623,12.3178197 C8.62236066,12.3193279 2.64462295,18.307623 2.47834426,18.5696721 C2.41236066,18.6733607 2.30867213,18.7951475 2.24759016,18.8403934 C2.1865082,18.8856393 2.1367377,18.9542623 2.1367377,18.9934754 C2.1367377,19.0323115 2.08281967,19.1228033 2.01683607,19.1940656 C1.86488525,19.3588361 1.56060656,19.8520164 1.3362623,20.2976885 C1.24086885,20.4877213 1.14359016,20.6577705 1.12021311,20.6754918 C1.07383607,20.7109344 0.888704918,21.190541 0.835918033,21.413377 C0.817442623,21.4910492 0.780491803,21.5547705 0.753721311,21.5547705 C0.72695082,21.5547705 0.644377049,21.7877869 0.57047541,22.0732131 C0.49657377,22.3582623 0.410229508,22.6384098 0.378180328,22.6960984 C0.209262295,23 -0.014704918,25.1201475 0.0343114754,25.9534262 C0.115754098,27.3368197 0.250360656,28.3424098 0.375163934,28.4985082 C0.402688525,28.5331967 0.44604918,28.6602623 0.471311475,28.7812951 C0.49657377,28.9023279 0.539934426,29.0297705 0.567459016,29.064082 C0.594983607,29.0987705 0.618360656,29.1553279 0.619114754,29.1900164 C0.622508197,29.3649672 0.703196721,29.6613279 0.746934426,29.6613279 C0.774459016,29.6613279 0.831393443,29.7755738 0.873245902,29.915082 C1.00785246,30.3649016 1.8185082,31.8297377 1.99496721,31.9424754 C2.03832787,31.97 2.07377049,32.0269344 2.07377049,32.0687869 C2.07377049,32.1106393 2.1374918,32.215082 2.21516393,32.3010492 C2.29283607,32.3873934 2.44101639,32.5706393 2.54395082,32.7090164 C2.93834426,33.2380164 4.51214754,34.6885246 4.692,34.6885246 C4.72103279,34.6885246 4.82019672,34.7537541 4.91257377,34.8333115 C5.00532787,34.9128689 5.18819672,35.0331475 5.31940984,35.1002623 C5.45062295,35.1677541 5.6112459,35.2699344 5.67609836,35.3272459 C5.80504918,35.4418689 6.08972131,35.5323607 6.14552459,35.4761803 C6.18398361,35.4380984 5.98640984,34.7597869 5.90722951,34.6572295 C5.84803279,34.5799344 5.59277049,33.549082 5.59277049,33.3858197 C5.59277049,33.3213443 5.55770492,33.2331148 5.51434426,33.1897541 C5.40839344,33.0838033 5.40198361,30.6646557 5.50755738,30.5349508 C5.54714754,30.4863115 5.61388525,30.2774262 5.6564918,30.0704262 C5.69909836,29.8634262 5.80995082,29.524082 5.90345902,29.3163279 C5.99696721,29.1085738 6.11196721,28.8393607 6.15872131,28.7187049 C6.20585246,28.5976721 6.30991803,28.4185738 6.38985246,28.320918 C6.47016393,28.2232623 6.53539344,28.113918 6.53539344,28.0780984 C6.53539344,28.0422787 6.63455738,27.8778852 6.75559016,27.7131148 C6.8762459,27.5483443 6.97540984,27.3831967 6.97540984,27.346623 C6.97540984,27.3096721 7.01236066,27.2568852 7.05722951,27.2293607 C7.10209836,27.201459 7.20201639,27.0883443 7.27931148,26.9774918 C7.43503279,26.7542787 7.62959016,26.5137213 7.82867213,26.2991803 C7.90031148,26.2215082 8.02285246,26.0767213 8.10014754,25.9771803 C8.38519672,25.6121967 9.82552459,24.1251148 11.9554754,21.9970492 C13.1567541,20.7972787 14.1393443,19.7826393 14.1393443,19.7422951 C14.1393443,19.7023279 14.1642295,19.6763115 14.1947705,19.6849836 C14.2739508,19.7076066 21.1743279,12.8060984 21.1762131,12.7027869 C21.1773443,12.6334098 14.8172787,6.21565574 14.7550656,6.22394279 C14.7448852,6.22508197 13.3931639,7.57190164 11.7514918,9.21621311 L11.7514918,9.21621311 Z M30.3211639,9.30481967 C30.191459,9.34365574 28.3733279,11.1210656 24.495377,15.0020328 C21.3945246,18.1047705 18.6797705,20.8165082 18.4625902,21.0280328 C18.2450328,21.2395574 17.9795902,21.5080164 17.8725082,21.6249016 C17.7654262,21.7417869 17.5818033,21.9257869 17.4641639,22.033623 C17.3461475,22.141459 16.9905902,22.4947541 16.6738689,22.8190164 C16.3567705,23.1432787 15.9186393,23.5814098 15.6999508,23.7929344 C15.4808852,24.004459 15.2120492,24.2732951 15.1019508,24.3901803 C14.9918525,24.5066885 14.306377,25.1951803 13.577918,25.9194918 C12.8498361,26.6441803 12.2540984,27.278 12.2540984,27.3281475 C12.2540984,27.3786721 12.2348689,27.400918 12.2114918,27.377541 C12.1636066,27.3292787 11.8770492,27.5781311 11.8770492,27.6678689 C11.8770492,27.699918 11.806541,27.7821148 11.7198197,27.8499836 C11.6334754,27.9178525 11.5629672,28.0038197 11.5629672,28.0411475 C11.5629672,28.0780984 11.5041475,28.1678361 11.4321311,28.2406066 C11.2601967,28.4148033 11.0415082,28.7390656 10.8345082,29.1270492 C10.7421311,29.2997377 10.6456066,29.455459 10.6199672,29.4728033 C10.5943279,29.4897705 10.5076066,29.6594426 10.4272951,29.8498525 C10.3469836,30.0398852 10.2621475,30.2095574 10.2391475,30.2269016 C10.2161475,30.2438689 10.1320656,30.4561475 10.0525082,30.6982131 C9.97295082,30.9399016 9.88698361,31.1661311 9.86096721,31.2008197 C9.798,31.2852787 9.57177049,32.1913279 9.51634426,32.583459 C9.49183607,32.7561475 9.44885246,32.9122459 9.42132787,32.9303443 C9.23091803,33.0543934 9.23091803,36.6348525 9.42095082,36.7611639 C9.44772131,36.7792623 9.48844262,36.9349836 9.51106557,37.1080492 C9.56611475,37.5224262 9.80252459,38.4722131 9.87265574,38.5589344 C9.90281967,38.5966393 9.98539344,38.8077869 10.0555246,39.0276066 C10.1260328,39.2474262 10.2052131,39.4427377 10.2323607,39.4615902 C10.2591311,39.4804426 10.3469836,39.6512459 10.4272951,39.8416557 C10.5076066,40.0316885 10.5931967,40.2013607 10.6173279,40.2187049 C10.6418361,40.2356721 10.7274262,40.3830984 10.8081148,40.5459836 C10.8884262,40.7088689 10.9777869,40.8276393 11.0064426,40.809918 C11.0350984,40.7921967 11.0418852,40.8216066 11.0211475,40.8751475 C11.0007869,40.9286885 11.0132295,40.9728033 11.0490492,40.9728033 C11.0852459,40.9728033 11.1312459,41.0259672 11.1519836,41.0911967 C11.1727213,41.1568033 11.2526557,41.2782131 11.3291967,41.361918 C11.4057377,41.4452459 11.553541,41.637541 11.6572295,41.7887377 C11.9124918,42.1616393 13.2370656,43.4862131 13.3543279,43.4862131 C13.4059836,43.4862131 13.4482131,43.5107213 13.4482131,43.5401311 C13.4482131,43.5951803 14.1129508,44.1147541 14.183082,44.1147541 C14.2041967,44.1147541 14.3093934,44.1811148 14.4160984,44.2625574 C14.842541,44.5864426 16.3484754,45.3054754 16.6452131,45.3269672 C16.7466393,45.3341311 16.8182787,45.3582623 16.8047049,45.3805082 C16.7907541,45.402377 16.8857705,45.440459 17.0147213,45.4645902 C17.1440492,45.4887213 17.2797869,45.5328361 17.3159836,45.563 C17.6760656,45.8601148 22.2127213,46.0542951 22.4830656,45.7835738 C22.5332131,45.7334262 22.1900984,45.4521475 21.9159836,45.3190492 C21.7519672,45.2394918 21.6173607,45.1523934 21.6173607,45.125623 C21.6173607,45.0988525 21.4902951,45.0117541 21.3345738,44.9318197 C21.1792295,44.8518852 21.0517869,44.7632787 21.0517869,44.735 C21.0517869,44.7067213 20.9741148,44.6422459 20.8790984,44.5913443 C20.784082,44.5408197 20.6325082,44.4337377 20.5423934,44.3541803 C20.4519016,44.2742459 20.2437705,44.0959016 20.079377,43.9575246 C19.9146066,43.8195246 19.6491639,43.5672787 19.4892951,43.3976066 C19.3290492,43.2279344 19.1201639,43.0115082 19.0251475,42.9168689 C18.9301311,42.8222295 18.852459,42.7253279 18.852459,42.7019508 C18.852459,42.6781967 18.7570656,42.5413279 18.6401803,42.3972951 C18.5236721,42.2532623 18.3785082,42.036082 18.3174262,41.9154262 C18.2563443,41.7943934 18.185459,41.6812787 18.1594426,41.6639344 C18.1119344,41.6322623 17.8114262,41.0108852 17.6379836,40.5859508 C17.5863279,40.4596393 17.5101639,40.1908033 17.4686885,39.9887049 C17.4272131,39.7869836 17.3612295,39.5818689 17.3216393,39.5336066 C17.2126721,39.399377 17.2047541,37.1559344 17.3125902,36.9508197 C17.3582131,36.8644754 17.472459,36.4896885 17.5667213,36.1182951 C17.6606066,35.7465246 17.7586393,35.442623 17.7846557,35.442623 C17.8106721,35.442623 17.8951311,35.2729508 17.9728033,35.0655738 C18.0500984,34.8581967 18.1364426,34.6885246 18.1647213,34.6885246 C18.192623,34.6885246 18.2329672,34.6342295 18.2537049,34.5678689 C18.2951803,34.4381639 18.7902459,33.7526885 19.0292951,33.4944098 C19.1092295,33.4080656 22.4743934,30.0319672 26.5073115,25.9922623 C30.5406066,21.9521803 33.833,18.622459 33.8243279,18.5926721 C33.8156557,18.5628852 33.840541,18.538377 33.8797541,18.538377 C33.9970164,18.538377 36.5092951,15.9910328 36.6476721,15.7312459 C36.8339344,15.3820984 36.8316721,14.8191639 36.6431475,14.4587049 C36.4542459,14.0982459 31.8025902,9.44809836 31.5077377,9.32480328 C31.2773607,9.22865574 30.6152623,9.21772131 30.3211639,9.30481967 L30.3211639,9.30481967 Z M84.0623607,11.0117213 C83.9009836,11.2632131 83.7252787,11.5252623 83.6713607,11.5942623 C83.6174426,11.6632623 83.5111148,11.8465082 83.4349508,12.0007213 C83.3587869,12.1553115 83.2539672,12.327623 83.2023115,12.3838033 C83.1502787,12.4399836 83.0594098,12.5678033 82.9998361,12.6684754 C82.8708852,12.8860328 82.8060328,12.9885902 82.4953443,13.462918 C82.3656393,13.6612459 82.2596885,13.8471311 82.2596885,13.8754098 C82.2596885,13.9036885 82.201623,13.9892787 82.1307377,14.0654426 C82.0594754,14.1416066 81.9365574,14.344459 81.857,14.5160164 C81.7774426,14.6875738 81.696,14.811623 81.6760164,14.7920164 C81.6564098,14.7720328 81.5791148,14.8749672 81.504459,15.0208852 C81.4301803,15.1668033 81.2869016,15.3998197 81.1858525,15.5389508 C81.0851803,15.678082 81.0026066,15.8304098 81.0026066,15.8767869 C81.0026066,15.923541 80.975082,15.961623 80.9407705,15.961623 C80.9068361,15.961623 80.8042787,16.1101803 80.7126557,16.291541 C80.6214098,16.4732787 80.5252623,16.6357869 80.499623,16.6531311 C80.0965574,16.9242295 80.116541,17.3913934 80.5471311,17.7631639 C81.1926393,18.3208197 81.5681803,18.4886066 81.5681803,18.2197705 C81.5681803,18.1911148 81.6319016,18.0957213 81.7095738,18.0074918 C81.787623,17.9192623 81.9784098,17.6756885 82.1337541,17.4656721 L82.416541,17.0840984 L82.431623,21.5344098 C82.4425574,24.8079508 82.4663115,26.0224262 82.5209836,26.1264918 C82.6193934,26.3138852 85.4808197,26.3534754 85.552082,26.1683443 C85.5728197,26.1136721 85.5901639,23.4038197 85.5901639,20.1468689 L85.5901639,14.2245574 L85.7854754,13.8640984 C85.8929344,13.6657705 85.9641967,13.4866721 85.9438361,13.4663115 C85.9234754,13.4459508 85.9611803,13.3822295 86.027541,13.324541 C86.0942787,13.2668525 86.2066393,13.071918 86.2779016,12.8909344 C86.3491639,12.7103279 86.4362623,12.5285902 86.4713279,12.4867377 C86.5063934,12.4452623 86.6919016,12.1006393 86.8841967,11.7205738 C87.0764918,11.3408852 87.262,10.9958852 87.2963115,10.9544098 C87.331,10.9125574 87.3502295,10.8133934 87.338918,10.7338361 L87.3181803,10.5886721 L85.8367541,10.572082 L84.3553279,10.5551148 L84.0623607,11.0117213 L84.0623607,11.0117213 Z M72.5672623,12.4976721 C72.5789508,13.7144098 72.5631148,14.2434098 72.5125902,14.3044918 C72.4009836,14.4390984 61.2576721,14.4323115 61.1460656,14.2977049 C61.0721639,14.2090984 61.111377,10.9231148 61.187541,10.7926557 C61.203,10.7666393 63.7658033,10.7523115 66.8828689,10.7613607 L72.5506721,10.7771967 L72.5672623,12.4976721 L72.5672623,12.4976721 Z M91.4031311,13.4482131 L91.4031311,14.9247377 L91.0287213,14.9439672 C90.8224754,14.9545246 90.589459,14.9469836 90.5102787,14.927377 L90.3662459,14.8911803 L90.3662459,13.4572623 C90.3662459,11.8050328 90.3194918,11.9298361 90.9288033,11.9532131 L91.4031311,11.9713115 L91.4031311,13.4482131 L91.4031311,13.4482131 Z M95.2298033,12.0391803 C95.250541,12.0938525 95.2678852,12.7408689 95.2678852,13.4768689 C95.2678852,15.0589672 95.304459,14.9797869 94.583541,14.9469836 C94.2626721,14.9326557 94.0982787,14.9469836 94.1212787,14.9873279 C94.1408852,15.0220164 94.1359836,15.0321967 94.1107213,15.0095738 C94.0594426,14.9631967 94.0594426,12.0768852 94.1110984,11.9931803 C94.1759508,11.8879836 95.1875738,11.9298361 95.2298033,12.0391803 L95.2298033,12.0391803 Z M98.8743607,12.0391803 C98.9607049,12.2642787 98.9158361,14.812377 98.8242131,14.888541 C98.7687869,14.934541 98.5523607,14.9549016 98.2428033,14.9432131 L97.75,14.9247377 L97.7330328,13.5123115 C97.7236066,12.7355902 97.7300164,12.0636885 97.7466066,12.0199508 C97.796,11.8917541 98.8245902,11.9094754 98.8743607,12.0391803 L98.8743607,12.0391803 Z M131.682541,14.5322295 C131.666705,14.5752131 131.660295,17.2405738 131.668967,20.454918 L131.684426,26.2991803 L133.25559,26.2991803 L134.826377,26.2991803 L134.842967,24.3668033 L134.859557,22.4344262 L139.629607,22.4344262 C142.253115,22.4344262 144.444148,22.417082 144.49882,22.3963443 C144.580262,22.3650492 144.598361,22.2459016 144.598361,21.7432951 C144.598361,21.2403115 144.580262,21.1211639 144.49882,21.0898689 C144.444148,21.0691311 142.252738,21.0517869 139.628852,21.0517869 L134.858049,21.0517869 L134.858049,20.3293607 L134.858049,19.6065574 L139.64959,19.6054262 C142.285164,19.6050492 144.477705,19.5816721 144.522197,19.5533934 C144.581393,19.5156885 144.598361,19.335082 144.585164,18.8788525 L144.567066,18.2555902 L139.728016,18.223918 L134.889344,18.192623 L134.872754,16.406918 C134.861443,15.2177049 134.832787,14.5933115 134.78641,14.5375082 C134.688377,14.4191148 131.726656,14.4142131 131.682541,14.5322295 L131.682541,14.5322295 Z M145.294016,14.5122459 C145.238213,14.5476885 145.193721,14.7135902 145.176377,14.9511311 L145.148852,15.333459 L140.364852,15.3353443 C134.816574,15.3376066 135.360656,15.2580492 135.360656,16.0660656 C135.360656,16.8571148 134.816574,16.7786885 140.306787,16.7786885 L145.102098,16.7786885 L145.085885,20.8790984 L145.069672,24.9795082 L144.006016,24.9968525 C142.743279,25.0172131 142.776082,25.000623 142.776082,25.6197377 C142.776082,26.3941967 142.578508,26.3304754 144.984836,26.3304754 L147.063885,26.3304754 L147.71618,25.6891148 C148.075131,25.3361967 148.368852,24.9968525 148.368852,24.9350164 C148.368852,24.8731803 148.397131,24.8222787 148.43182,24.8222787 C148.552475,24.8222787 148.514393,14.7935246 148.392984,14.6083934 L148.291557,14.4534262 L146.837656,14.4545574 C146.037934,14.4549344 145.34341,14.4809508 145.294016,14.5122459 L145.294016,14.5122459 Z M142.760246,15.4431803 C141.455656,15.4526066 139.320426,15.4526066 138.015836,15.4431803 C136.710869,15.4337541 137.778295,15.4262131 140.387852,15.4262131 C142.99741,15.4262131 144.064836,15.4337541 142.760246,15.4431803 L142.760246,15.4431803 Z M87.3287377,17.134623 C87.3057377,17.158 87.2868852,17.4547377 87.2868852,17.794459 L87.2868852,18.4124426 L94.6706393,18.4124426 L102.05477,18.4124426 L102.05477,17.7906885 C102.05477,17.2820492 102.036672,17.1621475 101.95523,17.1308525 C101.819115,17.0788197 87.3811475,17.0825902 87.3287377,17.134623 L87.3287377,17.134623 Z M72.6603934,17.5116721 C72.5484098,17.556918 72.5453934,26.0804918 72.657377,26.1924754 C72.8032951,26.3383934 75.830623,26.2954098 75.9101803,26.1460984 C76.0097213,25.9605902 75.999541,17.6451475 75.9,17.5452295 C75.8245902,17.4698197 72.841,17.4389016 72.6603934,17.5116721 L72.6603934,17.5116721 Z M39.6372951,18.5157541 C39.5769672,18.5330984 39.5271967,18.5738197 39.5271967,18.6058689 C39.5271967,18.637541 39.4864754,18.6639344 39.4367049,18.6639344 C39.3103934,18.6639344 30.4101475,27.5287377 30.4584098,27.6064098 C30.4799016,27.6410984 30.4697213,27.6524098 30.4361639,27.6316721 C30.3543443,27.5811475 29.4547049,28.4898361 29.5180492,28.5592131 C29.5448197,28.589 29.5365246,28.5957869 29.4995738,28.5750492 C29.4147377,28.5264098 28.0057049,29.9328033 28.0724426,29.999541 C28.0995902,30.0266885 28.0792295,30.0391311 28.0271967,30.0278197 C27.9751639,30.0161311 27.9408525,30.0440328 27.9502787,30.0900328 C27.9597049,30.1356557 27.9423607,30.1575246 27.9114426,30.1386721 C27.8356557,30.091918 27.6377049,30.3177705 27.6972787,30.383377 C27.7232951,30.4120328 27.714623,30.4184426 27.6776721,30.3977049 C27.5905738,30.3479344 23.6707705,34.2684918 23.736,34.3401311 C23.7631475,34.369918 23.7556066,34.377459 23.7194098,34.3570984 C23.6832131,34.3363607 23.4709344,34.4868033 23.2480984,34.6911639 C23.0252623,34.8955246 22.7862131,35.1145902 22.7172131,35.1779344 C22.6482131,35.2412787 22.4853279,35.3574098 22.356,35.4358361 C22.2262951,35.5142623 22.1199672,35.5975902 22.1195902,35.6205902 C22.1192131,35.6435902 21.9989344,35.718623 21.8522623,35.7868689 C21.7059672,35.8551148 21.5155574,35.9595574 21.4288361,36.0187541 C21.3424918,36.0779508 21.1162623,36.1756066 20.9262295,36.2351803 C20.7361967,36.2951311 20.5657705,36.3660164 20.5476721,36.3924098 C20.5220328,36.4304918 19.6182459,36.5737705 19.404082,36.5737705 C19.3773115,36.5737705 19.3550656,36.6446557 19.3550656,36.731 C19.3550656,36.8173443 19.3267869,36.8878525 19.2924754,36.8878525 C19.2148033,36.8878525 19.2057541,38.3112131 19.2830492,38.3590984 C19.312459,38.3771967 19.3554426,38.5838197 19.3780656,38.8183443 C19.4308525,39.3639344 19.6118361,40.0343279 19.8199672,40.4539836 C19.910082,40.6353443 19.9836066,40.809918 19.9836066,40.8423443 C19.9836066,40.8743934 20.0190492,40.9388689 20.0620328,40.9848689 C20.1053934,41.0312459 20.2109672,41.2031803 20.2965574,41.3664426 C20.3821475,41.530082 20.470377,41.6639344 20.4922459,41.6639344 C20.5144918,41.6639344 20.6046066,41.7698852 20.6928361,41.8995902 C20.991082,42.3373443 21.6535574,42.948918 22.4268852,43.5001639 C22.6557541,43.6634262 22.9136557,43.8470492 23,43.9085082 C23.0863443,43.9699672 23.2842951,44.0879836 23.4400164,44.1709344 C23.5953607,44.2535082 23.7427869,44.3522951 23.7672951,44.39 C23.7989672,44.4393934 23.8340328,44.4367541 23.8898361,44.3813279 C23.9328197,44.3383443 24.0255738,44.3032787 24.096459,44.3032787 C24.2781967,44.3029016 25.5333934,43.9940984 25.5741148,43.9394262 C25.5925902,43.914541 25.7211639,43.8572295 25.8591639,43.8119836 C26.1140492,43.7286557 27.1528197,43.2392459 27.2105082,43.1755246 C27.2274754,43.1562951 27.3760328,43.0748525 27.5404262,42.994918 C27.7044426,42.9146066 27.8386721,42.8248689 27.8386721,42.795082 C27.8386721,42.764918 27.8929672,42.7234426 27.9593279,42.7023279 C28.0799836,42.6642459 28.7141803,42.2076393 29.0561639,41.913541 C29.2680656,41.7310492 45.6798852,25.323 45.7967705,25.1767049 C46.0946393,24.8038033 46.0788033,23.8838033 45.7677377,23.4965738 C45.5558361,23.2326393 45.1516393,22.8450328 45.1045082,22.8597377 C45.0784918,22.8676557 45.064541,22.8514426 45.0732131,22.823541 C45.0935738,22.7571803 41.2012951,18.8690492 40.9120984,18.6673279 C40.6919016,18.5138689 39.9498689,18.4256393 39.6372951,18.5157541 L39.6372951,18.5157541 Z M87.8015574,19.4979672 C87.7638525,19.5432131 87.7246393,19.7347541 87.714082,19.9232787 C87.7039016,20.1121803 87.6639344,20.2946721 87.6254754,20.3293607 C87.5870164,20.3636721 87.4935082,20.7878525 87.4180984,21.2719836 C87.3423115,21.7557377 87.2552131,22.2081967 87.2242951,22.2771967 C87.1937541,22.3465738 87.108541,22.7847049 87.0353934,23.2514918 C86.962623,23.7179016 86.8777869,24.1564098 86.8472459,24.2254098 C86.763541,24.4139344 86.641377,25.2528689 86.6820984,25.3584426 C86.7115082,25.4349836 86.9151148,25.4508197 87.8796066,25.4508197 C89.1506393,25.4508197 89.1721311,25.4444098 89.1721311,25.0590656 C89.1721311,24.9772459 89.1966393,24.8833607 89.2260492,24.8505574 C89.2558361,24.8177541 89.3433115,24.3102459 89.4202295,23.7228033 C89.4971475,23.1349836 89.585377,22.5976885 89.6162951,22.5286885 C89.6472131,22.4596885 89.730918,21.9506721 89.8029344,21.397541 C89.8745738,20.8444098 89.9594098,20.3353934 89.9918361,20.2663934 C90.0238852,20.1973934 90.0574426,19.9851148 90.0668689,19.795082 L90.083459,19.4493279 L88.9768197,19.4323607 C88.1224262,19.4191639 87.8547213,19.4338689 87.8015574,19.4979672 L87.8015574,19.4979672 Z M90.5547705,21.4936885 L90.5547705,23.5719836 L91.0140164,24.0874098 C91.2666393,24.3705738 91.5565902,24.6895574 91.6580164,24.7955082 C91.7598197,24.9018361 91.9984918,25.1672787 92.1885246,25.3852131 C92.3785574,25.6031475 92.6424918,25.8908361 92.7748361,26.0246885 L93.0157705,26.2678852 L95.0031967,26.2678852 L96.991,26.2678852 L98.1244098,25.1303279 L99.2581967,23.9923934 L99.2796885,23.3732787 C99.3057049,22.6206885 99.4127869,22.6746066 97.9389016,22.6991148 L96.8714754,22.7172131 L96.8141639,23.0297869 C96.7772131,23.2333934 96.707082,23.3815738 96.6131967,23.4554754 C96.5340164,23.5176885 96.4521967,23.6221311 96.4318361,23.6869836 C96.3111803,24.0662951 94.2622951,24.1462295 94.2622951,23.7714426 C94.2622951,23.7201639 94.0643443,23.4860164 93.6740984,23.0750328 L93.4769016,22.8676557 L93.4452295,21.1584918 L93.4139344,19.4493279 L91.9841639,19.4327377 L90.5547705,19.4157705 L90.5547705,21.4936885 L90.5547705,21.4936885 Z M94.5137869,19.5703607 C94.5137869,19.7619016 94.6514098,20.3813934 94.7030656,20.423623 C94.7245574,20.4405902 94.821082,20.8364918 94.9176066,21.3032787 C95.1570328,22.4593115 95.0303443,22.3774918 96.5513607,22.3571311 L97.8129672,22.3401639 L97.834459,22.187459 C97.8563279,22.0321148 97.612,21.0095574 97.5252787,20.8949344 C97.4992623,20.8602459 97.420082,20.6049836 97.3491967,20.3278525 C97.2783115,20.0503443 97.175,19.7324918 97.1191967,19.6208852 L97.0181475,19.4180328 L95.7659672,19.4180328 L94.5137869,19.4180328 L94.5137869,19.5703607 L94.5137869,19.5703607 Z M99.2517869,19.5062623 C99.2099344,19.6159836 99.3973279,21.0378361 99.4761311,21.2090164 C99.5081803,21.2780164 99.5937705,21.8013607 99.666541,22.371459 C99.7393115,22.9419344 99.8241475,23.4649016 99.8550656,23.5342787 C99.8856066,23.6032787 99.9595082,24.0229344 100.019082,24.4670984 C100.08318,24.9448197 100.163492,25.3101803 100.215902,25.3625902 C100.346361,25.4934262 102.545689,25.491918 102.595836,25.361082 C102.635803,25.2562623 102.330016,23.2805246 102.244803,23.0942623 C102.213508,23.0252623 102.128295,22.5867541 102.055902,22.1203443 C101.983131,21.6535574 101.901311,21.229377 101.87341,21.1777213 C101.845508,21.1256885 101.770098,20.7471311 101.706,20.3365246 C101.641525,19.925918 101.550279,19.5511311 101.503148,19.504 C101.376459,19.3769344 99.3004262,19.3791967 99.2517869,19.5062623 L99.2517869,19.5062623 Z M71.8693443,31.4854918 C71.6672459,31.5171639 71.384459,31.5978525 71.2408033,31.6649672 C71.0971475,31.7317049 70.870918,31.8338852 70.7381967,31.8919508 C70.4629508,32.0126066 70.4316557,32.0367377 69.8902131,32.5483934 C69.6715246,32.7550164 69.5105246,32.9537213 69.5327705,32.989541 C69.5550164,33.0253607 69.528623,33.0547705 69.4743279,33.0547705 C69.4181475,33.0547705 69.3148361,33.1833443 69.2349016,33.3530164 C69.1576066,33.5174098 69.0599508,33.6878361 69.0184754,33.7319508 C68.976623,33.7764426 68.892541,33.9743934 68.831459,34.1719672 C68.770377,34.369541 68.7025082,34.545623 68.6802623,34.5629672 C68.4491311,34.7428197 68.4540328,37.5793607 68.6851639,37.5793607 C68.7123115,37.5793607 68.7534098,37.6792787 68.7764098,37.8018197 C68.8687869,38.2934918 69.5048689,39.383541 69.6481475,39.2953115 C69.682459,39.2738197 69.6922623,39.2862623 69.6700164,39.322459 C69.5667049,39.4898689 70.7189672,40.3442623 71.047377,40.3442623 C71.0963934,40.3442623 71.1367377,40.3695246 71.1367377,40.4008197 C71.1367377,40.6345902 73.2727213,40.641 73.7014262,40.4083607 C73.7598689,40.3766885 73.9506557,40.3065574 74.1256066,40.2522623 C74.4442131,40.1534754 74.9947049,39.8393934 75.2782459,39.5950656 C75.3615738,39.5230492 75.4539508,39.4646066 75.4833607,39.4646066 C75.5429344,39.4646066 75.478082,38.9488033 75.4120984,38.8990328 C75.3894754,38.8816885 75.3057705,38.4857869 75.2262131,38.019 C75.0701148,37.1023934 75.0463607,37.0435738 74.857459,37.1039016 C74.7662131,37.1325574 74.7205902,37.221918 74.688918,37.4334426 C74.6647869,37.5929344 74.6206721,37.7686393 74.5908852,37.8240656 C74.5607213,37.8794918 74.474377,38.1441803 74.3982131,38.4118852 C74.3224262,38.6795902 74.2394754,38.8990328 74.2142131,38.8990328 C74.1587869,38.8990328 73.990623,39.2855082 74.014,39.3590328 C74.0230492,39.3876885 74.0057049,39.3956066 73.9751639,39.3767541 C73.944623,39.3579016 73.8522459,39.4159672 73.7692951,39.506082 C73.0770328,40.2567869 71.6468852,39.6961148 71.2962295,38.5366885 C71.2724754,38.4582623 71.2294918,38.4088689 71.2008361,38.4265902 C71.1718033,38.4446885 71.162377,38.4050984 71.1797213,38.3394918 C71.1970656,38.2735082 71.1665246,38.1249508 71.1122295,38.0091967 C70.8384918,37.4270328 70.8117213,34.3578525 71.0798033,34.2590656 C71.1110984,34.2477541 71.1367377,34.1893115 71.1367377,34.1297377 C71.1367377,33.993623 71.3927541,33.2225574 71.4519508,33.1803279 C71.476082,33.1629836 71.5409344,33.0641967 71.5956066,32.9605082 C72.066541,32.0676557 73.1132295,31.8523607 73.7421475,32.5186066 C74.1169344,32.9160164 74.5301803,34.2021311 74.5301803,34.9720656 C74.5301803,35.0968689 74.6629016,35.1862295 74.8540656,35.190377 C74.8766885,35.1907541 74.9147705,35.0497377 74.9385246,34.8770492 C74.9622787,34.7043607 75.0018689,34.5629672 75.0267541,34.5629672 C75.0512623,34.5629672 75.1379836,34.1942131 75.2194262,33.7432623 C75.3004918,33.2926885 75.3909836,32.9092295 75.4200164,32.8915082 C75.6500164,32.7489836 75.3694918,32.2701311 74.9845246,32.1479672 C74.9072295,32.123459 74.8442623,32.0804754 74.8442623,32.0525738 C74.8442623,32.0246721 74.6957049,31.9402131 74.5143443,31.8651803 C74.3329836,31.7897705 74.1278689,31.7026721 74.0588689,31.6717541 C73.6297869,31.4787049 72.5140984,31.3840656 71.8693443,31.4854918 L71.8693443,31.4854918 Z M108.011016,31.4888852 C107.813443,31.517541 107.530656,31.5963443 107.382475,31.663082 C107.234672,31.7301967 107.007311,31.8286066 106.877607,31.8825246 C106.748279,31.9360656 106.641951,32.0095902 106.641951,32.0457869 C106.641951,32.0823607 106.602361,32.1121475 106.553344,32.1121475 C105.956852,32.1121475 104.698639,34.3114754 104.694869,35.3604262 C104.694492,35.5052131 104.665836,35.6413279 104.631148,35.6624426 C104.596459,35.6839344 104.56818,35.8818852 104.56818,36.102459 C104.56818,36.3230328 104.596459,36.5209836 104.631148,36.5424754 C104.665836,36.5635902 104.694492,36.685377 104.694869,36.8131967 C104.700525,38.187541 106.220033,40.3359672 107.192066,40.3435082 C107.235049,40.3438852 107.270492,40.3695246 107.270492,40.4008197 C107.270492,40.4826393 107.994049,40.5957541 108.52041,40.5957541 C109.025279,40.5957541 109.846869,40.4773607 109.846869,40.4045902 C109.846869,40.3789508 109.924918,40.3397377 110.019934,40.3174918 C110.317426,40.2477377 110.852459,40.0181148 110.852459,39.9600492 C110.852459,39.9295082 110.887902,39.9034918 110.930885,39.9027377 C111.28041,39.8959508 111.884443,39.0245902 111.53982,39.0245902 C111.503246,39.0245902 111.491934,38.9944262 111.514934,38.9574754 C111.560557,38.8835738 111.429344,38.088 111.354689,37.9877049 C111.329049,37.9530164 111.277016,37.7441311 111.238934,37.5231803 C111.200852,37.3022295 111.160885,37.1125738 111.149951,37.1016393 C111.08623,37.0382951 110.846803,37.1751639 110.823426,37.2882787 C110.807967,37.3618033 110.747639,37.6555246 110.689197,37.9405738 C110.630754,38.225623 110.558738,38.4590164 110.529328,38.4590164 C110.499541,38.4590164 110.475033,38.494459 110.474656,38.5374426 C110.474279,38.5808033 110.407918,38.7580164 110.32723,38.931459 C109.725459,40.2239836 108.207459,40.1459344 107.568738,38.7900656 C107.491066,38.6252951 107.410377,38.4763607 107.389262,38.4590164 C107.308197,38.3922787 107.138902,37.5869016 107.101951,37.0899508 C107.080459,36.8037705 107.038984,36.554541 107.009574,36.5364426 C106.940197,36.493459 106.940197,35.8370164 107.009951,35.7940328 C107.039361,35.7759344 107.079328,35.4984262 107.098934,35.1775574 C107.134,34.6029344 107.30782,33.6814262 107.393033,33.6203443 C107.416787,33.603 107.478246,33.4819672 107.529525,33.3515082 C107.822869,32.6026885 108.381279,32.1449508 108.998508,32.1475902 C109.376311,32.1490984 109.909836,32.3496885 109.909836,32.4903279 C109.909836,32.5242623 109.95923,32.6019344 110.019934,32.6626393 C110.167361,32.8111967 110.262754,33.0351639 110.381148,33.5083607 C110.435443,33.725541 110.505951,33.9596885 110.538377,34.0286885 C110.570426,34.0976885 110.624344,34.362 110.657525,34.6161311 C110.725393,35.1330656 110.709934,35.098 110.894689,35.1545574 C111.053049,35.2031967 111.049279,35.2122459 111.201607,34.4057377 C111.260426,34.0946721 111.329803,33.8118852 111.355443,33.7771967 C111.431607,33.6750164 111.612967,32.5785574 111.571492,32.4707213 C111.534164,32.3734426 110.816262,31.9092951 110.569672,31.8233279 C110.500672,31.7991967 110.330623,31.7294426 110.192623,31.6683607 C109.713016,31.4568361 108.762098,31.3787869 108.011016,31.4888852 L108.011016,31.4888852 Z M115.884557,31.6879672 C115.841574,31.8346393 115.723934,32.1317541 115.623262,32.3478033 C115.522213,32.5638525 115.440016,32.7591639 115.440016,32.7817869 C115.440016,32.8040328 115.35518,33.0019836 115.251492,33.2214262 C115.147803,33.4408689 115.062967,33.6516393 115.062967,33.6897213 C115.062967,33.7278033 114.99623,33.8914426 114.915164,34.0535738 C114.833721,34.2153279 114.73041,34.4589016 114.685918,34.5942623 C114.641049,34.729623 114.541885,34.9690492 114.464967,35.1259016 C114.388426,35.2827541 114.272672,35.5666721 114.20782,35.7567049 C114.142967,35.9467377 114.070574,36.1167869 114.047197,36.1345082 C114.02382,36.1518525 113.941623,36.3498033 113.864705,36.5741475 C113.787787,36.7984918 113.705967,36.9964426 113.683344,37.0137869 C113.661098,37.0307541 113.590213,37.1864754 113.526492,37.3591639 C113.46277,37.5322295 113.30177,37.9062623 113.168672,38.1905574 C113.035197,38.4752295 112.92623,38.7365246 112.92623,38.7719672 C112.92623,38.8070328 112.902098,38.8360656 112.873066,38.8360656 C112.843656,38.8360656 112.765984,38.9559672 112.7,39.1026393 C112.634393,39.2489344 112.408541,39.544541 112.198148,39.759082 C111.609197,40.3604754 111.580918,40.3443047 113.219574,40.3443047 C114.581098,40.3443047 114.622951,40.3404918 114.622951,40.2187049 C114.622951,40.1493279 114.581475,40.0927705 114.530951,40.0927705 C114.028721,40.0927705 113.750836,38.7670656 114.113557,38.1015738 C114.147492,38.0389836 114.236852,37.7758033 114.311508,37.5163934 C114.480803,36.9289508 114.434803,36.953082 115.388361,36.9519508 L116.185066,36.9508197 L116.289885,37.3120328 C116.347197,37.5107377 116.41959,37.7037869 116.450131,37.7411148 C116.480672,37.7784426 116.565508,38.0046721 116.639033,38.2440984 C116.712557,38.4831475 116.801918,38.7146557 116.837361,38.7583934 C117.128066,39.115459 116.861115,40.0927705 116.472754,40.0927705 C116.423361,40.0927705 116.382639,40.1485738 116.382639,40.2164426 C116.382639,40.3367213 116.436934,40.3401148 118.424738,40.342377 C120.331852,40.3446393 120.467213,40.3374754 120.465717,40.234541 C120.464574,40.1678033 120.364279,40.0784426 120.211574,40.0079344 C120.072443,39.9438361 119.917852,39.8235574 119.867328,39.7406066 C119.81718,39.6580328 119.727066,39.5124918 119.667492,39.4174754 C119.607918,39.322459 119.511393,39.1105574 119.452574,38.946541 C119.393754,38.7829016 119.299115,38.5566721 119.241803,38.4439344 C119.184492,38.3311967 119.079672,38.0834754 119.00841,37.8934426 C118.937525,37.7034098 118.854951,37.5163934 118.824787,37.4783115 C118.794623,37.4398525 118.713557,37.244918 118.644934,37.045082 C118.575934,36.8452459 118.493361,36.6495574 118.460557,36.6103443 C118.428131,36.5711311 118.354607,36.3984426 118.297672,36.2265082 C118.240361,36.0545738 118.14723,35.8434262 118.090672,35.7567049 C118.034492,35.6703607 117.985098,35.5855246 117.981328,35.5681803 C117.935328,35.3528852 117.845213,35.1036557 117.72041,34.8457541 C117.637082,34.6726885 117.510016,34.361623 117.437623,34.1542459 C117.365607,33.9468689 117.28718,33.7632459 117.263803,33.7459016 C117.240426,33.7285574 117.154459,33.5234426 117.073016,33.2904262 C116.991574,33.0570328 116.906361,32.8662459 116.883738,32.8662459 C116.860738,32.8662459 116.806443,32.7459672 116.762705,32.598918 C116.718967,32.4522459 116.601328,32.1562623 116.50141,31.9417213 C116.401492,31.7271803 116.319672,31.5220656 116.319672,31.4862459 C116.319672,31.2656721 115.958836,31.4327049 115.884557,31.6879672 L115.884557,31.6879672 Z M135.894934,31.5137705 C135.652869,31.5590164 135.370082,31.6412131 135.266393,31.6962623 C135.162705,31.7516885 135.048082,31.7973115 135.011508,31.7973115 C134.78,31.7988197 133.673361,32.7889508 133.522541,33.1305574 C133.479557,33.227082 133.421869,33.3058852 133.393967,33.3058852 C133.366066,33.3058852 133.299705,33.4122131 133.246164,33.541541 C133.193,33.6712459 133.107787,33.8661803 133.057262,33.9743934 C132.66023,34.8246393 132.622902,37.2558525 132.997689,37.8621475 C133.040295,37.9311475 133.140213,38.1502131 133.21977,38.348918 C133.299328,38.547623 133.390197,38.7105082 133.421492,38.7105082 C133.452787,38.7105082 133.502934,38.7746066 133.532721,38.8526557 C133.614541,39.0679508 134.16918,39.6587869 134.244967,39.6120328 C134.282295,39.5890328 134.293607,39.6003443 134.27023,39.6380492 C134.215557,39.7262787 134.92177,40.1957049 135.256967,40.2933607 C135.400246,40.3352131 135.531836,40.3895082 135.54918,40.4136393 C135.709426,40.6387377 137.937033,40.6266721 137.937033,40.4008197 C137.937033,40.3695246 137.972475,40.3438852 138.015836,40.3435082 C138.113492,40.3427541 138.714885,40.0652459 138.858541,39.9547705 C139.549672,39.4227541 140.200459,38.5638361 140.409721,37.9066393 C140.483623,37.6747541 140.562803,37.4707705 140.58618,37.4530492 C140.799967,37.2924262 140.795066,34.6429016 140.580525,34.500377 C140.554508,34.4830328 140.51341,34.3838689 140.489656,34.2801803 C140.42141,33.9823115 140.189902,33.4318197 140.133721,33.4318197 C140.105443,33.4318197 140.064344,33.3756393 140.042475,33.3070164 C139.982148,33.1162295 139.444475,32.4820328 139.378115,32.5231311 C139.346066,32.5431148 139.319672,32.5159672 139.319672,32.4628033 C139.319672,32.4096393 139.242,32.3172623 139.146984,32.2576885 C139.051967,32.1977377 138.897,32.0865082 138.802738,32.0099672 C138.708475,31.9338033 138.524852,31.8365246 138.394393,31.7942951 C138.263934,31.7516885 138.140262,31.6909836 138.119902,31.6593115 C137.995098,31.4685246 136.622262,31.3784098 135.894934,31.5137705 L135.894934,31.5137705 Z M56.1177377,31.7449016 C56.1181148,31.8259672 56.2097377,31.9899836 56.3220984,32.1098852 L56.526082,32.3274426 L56.526082,35.6236066 C56.526082,38.2048852 56.5087377,38.9254262 56.4472787,38.9461639 C56.4042951,38.9604918 56.3688525,39.0227049 56.3688525,39.084918 C56.3688525,39.3088852 56.1795738,39.7262787 55.9933115,39.912541 C55.5412295,40.364623 55.4137869,40.3472787 59.0553279,40.3291803 L62.307377,40.3129672 L62.3292459,40.1557377 C62.3416885,40.0693934 62.3729836,39.9845574 62.399377,39.9672131 C62.4253934,39.9498689 62.5109836,39.5822459 62.5894098,39.1501475 C62.6678361,38.7184262 62.7530492,38.3364754 62.7790656,38.3017869 C62.8869016,38.1577541 62.9773934,37.3731148 62.8921803,37.3191967 C62.7432459,37.2245574 62.6527541,37.2622623 62.5309672,37.4692623 C62.4646066,37.581623 62.3718525,37.7158525 62.3247213,37.7678852 C62.2772131,37.819541 62.1882295,37.942082 62.1267705,38.0401148 C61.4454426,39.1245082 59.7600328,40.0369672 59.2955082,39.5724426 C59.2363115,39.5128689 59.1646721,39.4646066 59.1363934,39.4646066 C59.1084918,39.4646066 59.0379836,39.3582787 58.979541,39.2289508 C58.9214754,39.0992459 58.8422951,38.9284426 58.803459,38.8496393 C58.7589672,38.7583934 58.7318197,38.2297705 58.7291803,37.4040328 L58.7254098,36.102459 L59.2344262,36.1122623 C60.083918,36.1288525 60.6981311,36.5356885 60.9047541,37.2177705 C60.965459,37.4187377 61.0027869,37.4534262 61.1558689,37.4534262 L61.3353443,37.4534262 L61.3187541,35.772541 L61.3017869,34.0916557 L61.1366393,34.0724262 C61.0012787,34.0565902 60.9639508,34.0848689 60.9277541,34.2296557 C60.8640328,34.4860492 60.4726557,35.0508689 60.3271148,35.0972459 C60.2584918,35.1191148 60.2023115,35.1620984 60.2023115,35.1930164 C60.2023115,35.2940656 59.5601967,35.442623 59.1224426,35.442623 L58.6941148,35.442623 L58.6941148,33.7998197 L58.6941148,32.1566393 L59.1450656,32.1988689 C59.6570984,32.246377 60.2649016,32.4062459 60.2649016,32.4933443 C60.2649016,32.5257705 60.2954426,32.5517869 60.3323934,32.5517869 C60.5250656,32.5517869 61.2818033,33.2221803 61.8398361,33.8872951 C62.0487213,34.1361475 62.2749508,34.201377 62.2772131,34.0128525 C62.2794754,33.7960492 62.0019672,32.2056557 61.9567213,32.1747377 C61.931082,32.1573934 61.900541,32.0582295 61.8888525,31.954541 L61.8673607,31.7663934 L59.9508197,31.7237869 C58.8965902,31.7004098 57.6029344,31.6623279 57.0758197,31.6393279 L56.1173607,31.5978525 L56.1177377,31.7449016 L56.1177377,31.7449016 Z M64.0353934,31.7641311 C64.0353934,31.8568852 64.0708361,31.969623 64.1141967,32.0152459 C64.4358197,32.3542131 64.4169672,32.1095082 64.3864262,35.5546066 C64.3570164,38.8496393 64.3445738,39.2802295 64.2804754,39.2406393 C64.2597377,39.2278197 64.208082,39.3322623 64.1662295,39.4729016 C64.124,39.613541 64.0067377,39.8096066 63.9053115,39.9087705 C63.4694426,40.3348361 63.5052623,40.3442623 65.5435902,40.3442623 C67.5540164,40.3442623 67.6030328,40.3329508 67.2007213,39.9623115 C67.0133279,39.789623 66.8040656,39.3744918 66.8018033,39.1712623 C66.8010492,39.0962295 66.7652295,39.023459 66.7218689,39.0087541 C66.6604098,38.9883934 66.6434426,38.2614426 66.6434426,35.6552787 L66.6434426,32.3278197 L66.8474262,32.1098852 C67.2305082,31.7007869 67.1486885,31.5888033 66.5020492,31.6389508 C65.7992295,31.6932459 65.2061311,31.6932459 64.5538361,31.6389508 L64.0353934,31.5959672 L64.0353934,31.7641311 L64.0353934,31.7641311 Z M79.4944098,31.7716721 C79.4944098,31.8749836 79.5615246,32.0024262 79.6674754,32.1008361 L79.8401639,32.261082 L79.8401639,35.627 C79.8401639,38.7825246 79.833,39.008377 79.7229016,39.237623 C79.6584262,39.3722295 79.6018689,39.5468033 79.5973443,39.6252295 C79.5924426,39.7040328 79.5747213,39.7639836 79.557377,39.7587049 C79.4838525,39.7368361 79.1803279,40.1089836 79.1803279,40.2213443 C79.1803279,40.341623 79.2474426,40.3442623 82.4436885,40.3442623 L85.7070492,40.3442623 L85.7711475,40.0143443 C85.8065902,39.8329836 85.8804918,39.4438689 85.935918,39.1501475 C85.9909672,38.8564262 86.0614754,38.5596885 86.0927705,38.4903115 C86.1236885,38.4213115 86.1802459,38.195082 86.2179508,37.9877049 C86.2556557,37.7803279 86.2990164,37.5503279 86.3148525,37.4764262 C86.3355902,37.3780164 86.3061803,37.3323934 86.2047541,37.306 C86.0614754,37.2686721 85.8416557,37.4123279 85.8416557,37.543541 C85.8416557,37.582377 85.7568197,37.7068033 85.6531311,37.8202951 C85.5494426,37.9341639 85.4638525,38.0465246 85.4634754,38.0702787 C85.4619672,38.1208033 84.7663115,38.8500164 84.4725902,39.1086721 C83.551459,39.9197049 82.3746885,39.8420328 82.2291475,38.9604918 C82.2035082,38.8055246 82.1567541,38.6471639 82.125459,38.6079508 C82.0937869,38.5691148 82.0760656,37.9892131 82.0854918,37.3199508 L82.102459,36.102459 L82.3539508,36.0817213 C83.237,36.0093279 83.988082,36.4493443 84.2403279,37.1864754 C84.3017869,37.367082 84.3590984,37.4266557 84.4842787,37.4421148 L84.647541,37.4617213 L84.647541,35.7608525 L84.647541,34.0599836 L84.4955902,34.0599836 C84.3726721,34.0599836 84.3225246,34.1161639 84.2312787,34.354459 C83.9628197,35.0576557 83.3301311,35.442623 82.4433115,35.442623 L82.0711639,35.442623 L82.0711639,33.8088689 L82.0711639,32.1747377 L82.2751475,32.1754918 C82.7641803,32.176623 83.306377,32.3127377 83.6623115,32.5235082 C83.8636557,32.6430328 84.0533115,32.7403115 84.0842295,32.7403115 C84.1151475,32.7403115 84.1675574,32.7912131 84.2007377,32.8530492 C84.233541,32.9148852 84.3266721,33.0008525 84.4069836,33.0442131 C84.4872951,33.0871967 84.7369016,33.3462295 84.961623,33.6192131 C85.4272787,34.1844098 85.9057541,34.3416393 85.6640656,33.8499672 C85.6274918,33.7753115 85.5381311,33.3469836 85.4653607,32.897541 C85.3925902,32.4480984 85.3002131,32.0046885 85.2594918,31.9115574 L85.1859672,31.7426393 L83.2041967,31.7071967 C82.1145246,31.6872131 80.8336885,31.655918 80.3586066,31.6366885 L79.4944098,31.602377 L79.4944098,31.7716721 L79.4944098,31.7716721 Z M87.2868852,31.7464098 C87.2868852,31.8813934 87.5165082,32.1573934 87.6062459,32.1302459 C87.7159672,32.0966885 87.737459,39.0012131 87.6277377,39.0739836 C87.5907869,39.0988689 87.5240492,39.2504426 87.4799344,39.4114426 C87.4312951,39.5890328 87.315918,39.7847213 87.1862131,39.9106557 C86.7627869,40.3212623 86.824623,40.3506721 88.0881148,40.3404918 C88.7015738,40.3355902 89.7723934,40.3355902 90.4672951,40.3408689 C91.9049836,40.3510492 92.421918,40.2711148 92.9064262,39.9638197 C93.0670492,39.8620164 93.2159836,39.7786885 93.2374754,39.7786885 C93.3445574,39.7786885 94.1209016,38.8918689 94.2291148,38.6464098 C94.2973607,38.4914426 94.3772951,38.3477869 94.4067049,38.3266721 C94.4719344,38.2802951 94.7023115,37.4236393 94.7023115,37.2271967 C94.7023115,37.1502787 94.737,37.0752459 94.7799836,37.060918 C94.8844262,37.0262295 94.8927213,34.8125738 94.7890328,34.6824918 C94.7501967,34.6338525 94.6981639,34.4819016 94.6736557,34.3446557 C94.6174754,34.0339672 94.4598689,33.5637869 94.3803115,33.4706557 C94.3475082,33.4318197 94.2411803,33.2719508 94.1442787,33.1150984 C93.9429344,32.7897049 93.3871639,32.2984098 93.0840164,32.1781311 C92.9716557,32.1332623 92.8796557,32.0763279 92.8796557,32.0514426 C92.8796557,31.9869672 92.4328525,31.8599016 91.8114754,31.747541 C91.3152787,31.6581803 90.8820492,31.6457377 89.2034262,31.6728852 C88.8580492,31.678541 88.2853115,31.6638361 87.9308852,31.640459 L87.2868852,31.5974754 L87.2868852,31.7464098 L87.2868852,31.7464098 Z M96.0061475,31.6457377 C95.9077377,31.7445246 95.9669344,31.9074098 96.1878852,32.1468361 C96.5777541,32.5695082 96.6015082,32.7414426 96.6328033,35.3483607 C96.6478852,36.6356066 96.6859672,37.7000164 96.7180164,37.7331967 C96.7500656,37.766 96.776459,37.8934426 96.7772131,38.0159836 C96.7821148,39.0671967 97.6214262,40.3442623 98.3072787,40.3442623 C98.3578033,40.3442623 98.4087049,40.3710328 98.4203934,40.403459 C98.5025902,40.6364754 100.767525,40.6436393 101.080475,40.4117541 C101.115164,40.3861148 101.24223,40.3272951 101.363262,40.280918 C101.888869,40.0795738 102.341705,39.5735738 102.523443,38.9861311 C102.586033,38.7825246 102.661066,38.586082 102.689721,38.5491311 C102.795672,38.4137705 102.870705,37.3199508 102.871082,35.9048852 C102.871459,34.3778361 102.95818,33.1807049 103.072803,33.1094426 C103.110508,33.0864426 103.12559,33.0080164 103.106361,32.9352459 C103.087508,32.8624754 103.095426,32.8176066 103.124459,32.8357049 C103.153115,32.8534262 103.212311,32.7700984 103.255672,32.6501967 C103.301672,32.5231311 103.44759,32.3478033 103.605951,32.2290328 C103.754885,32.1174262 103.877049,32.0012951 103.877049,31.9711311 C103.877049,31.9405902 103.90759,31.9349344 103.944541,31.9579344 C103.988656,31.985082 104.005246,31.9364426 103.991672,31.8203115 C103.972066,31.6487541 103.958492,31.6415902 103.688525,31.6615738 C103.117295,31.7038033 101.700344,31.6924918 101.410393,31.6434754 C100.95077,31.5658033 100.968492,31.8896885 101.440557,32.192082 C101.53482,32.2524098 101.659246,32.3934262 101.716557,32.5054098 C101.773869,32.6173934 101.842115,32.7229672 101.867754,32.7403115 C102.14677,32.9265738 102.298344,37.4564426 102.057033,38.394918 C101.964279,38.7561311 101.602311,39.3017213 101.361754,39.4438689 C101.25882,39.5045738 101.174738,39.5747049 101.174738,39.5992131 C101.174738,39.6240984 101.023541,39.675377 100.838787,39.7138361 C99.8852295,39.9117869 99.1688361,39.283623 98.9784262,38.0819672 C98.8242131,37.1091803 98.9263934,32.6882787 99.1047377,32.6253115 C99.1371639,32.613623 99.1639344,32.5634754 99.1639344,32.5137049 C99.1639344,32.4639344 99.2793115,32.2980328 99.4203279,32.1449508 C99.8241475,31.7071967 99.7653279,31.6378197 99.0059508,31.6544098 C97.6859016,31.6838197 97.2281639,31.6808033 96.6501475,31.640459 C96.3221148,31.617459 96.0321639,31.6197213 96.0061475,31.6457377 L96.0061475,31.6457377 Z M128.198607,31.7441475 C128.199361,31.8255902 128.280426,31.970377 128.378082,32.0665246 C128.614492,32.2980328 128.636361,32.560459 128.633344,35.128541 C128.629574,38.6969344 128.551148,39.4578197 128.142049,39.8955738 C127.721639,40.3453934 127.717492,40.3442623 129.767885,40.3442623 C131.794902,40.3442623 131.807721,40.3412459 131.401262,39.9423279 C131.299082,39.8424098 131.197279,39.7010164 131.174656,39.6282459 C131.152033,39.5554754 131.109049,39.4800656 131.078885,39.4608361 C130.913738,39.3541311 130.873016,38.5815574 130.870377,35.4935246 L130.867361,32.3078361 L131.071721,32.0970656 C131.455934,31.7004098 131.371852,31.5891803 130.725967,31.6389508 C130.423574,31.6623279 129.978279,31.6811803 129.736213,31.6811803 C129.494525,31.6811803 129.048852,31.6623279 128.746459,31.6389508 C128.198607,31.5967213 128.196721,31.5970984 128.198607,31.7441475 L128.198607,31.7441475 Z M141.770492,31.7449016 C141.770492,31.8478361 141.86023,31.9583115 142.069115,32.1121475 C142.261787,32.2542951 142.388852,32.4043607 142.427689,32.5363279 C142.460869,32.6486885 142.510262,32.7403115 142.53741,32.7403115 C142.607918,32.7403115 142.6,37.9997705 142.529492,38.2346721 C142.497443,38.340623 142.439377,38.6068197 142.400164,38.8258852 C142.298738,39.3925902 142.18223,39.5943115 141.796131,39.874082 C141.18041,40.3205082 141.23659,40.3442623 142.901639,40.3442623 C144.585918,40.3442623 144.573098,40.3510492 143.975098,39.7850984 C143.596918,39.4269016 143.404246,39.0227049 143.404246,38.5857049 C143.404246,38.4952131 143.372574,38.3896393 143.334115,38.3508033 C143.232311,38.249377 143.169344,33.871459 143.269262,33.871459 C143.30923,33.871459 143.341656,33.8959672 143.341656,33.9257541 C143.341656,33.9804262 143.880082,34.753377 144.056164,34.9513279 C144.10782,35.0093934 144.200197,35.1368361 144.261279,35.2341148 C144.322361,35.3313934 144.409836,35.4535574 144.455459,35.5055902 C144.501082,35.5572459 144.677541,35.7978033 144.847213,36.0394918 C145.017262,36.2815574 145.194475,36.5228689 145.240852,36.5760328 C145.287607,36.6291967 145.38941,36.7754918 145.467082,36.9014262 C145.544754,37.0273607 145.629967,37.1393443 145.655984,37.1506557 C145.682,37.1615902 145.768344,37.2769672 145.847525,37.4066721 C145.926705,37.5367541 146.018328,37.6264918 146.050754,37.6065082 C146.08318,37.5861475 146.102033,37.5933115 146.092607,37.6215902 C146.073754,37.6800328 146.345607,38.1422951 146.455705,38.2391967 C146.494918,38.2735082 146.590311,38.4081148 146.667607,38.5374426 C146.744902,38.6671475 146.827475,38.7730984 146.85123,38.7730984 C146.875361,38.7730984 146.964344,38.900541 147.04918,39.0558852 C147.134016,39.2116066 147.224885,39.3386721 147.250525,39.3386721 C147.276164,39.3386721 147.337623,39.4167213 147.387016,39.5117377 C147.436033,39.6067541 147.542738,39.7609672 147.62418,39.8544754 C147.705246,39.9476066 147.87077,40.1666721 147.991803,40.3404918 C148.179197,40.610082 148.242164,40.6572131 148.415984,40.6579672 L148.620344,40.6583443 L148.620344,37.5137541 C148.620344,33.1539344 148.693492,32.6739508 149.437033,32.1705902 C149.77977,31.9383279 149.883836,31.6061475 149.594262,31.6672295 C149.307328,31.7283115 147.170213,31.7369836 147.059738,31.6777869 C146.978672,31.6344262 146.92023,31.6374426 146.870459,31.6875902 C146.73359,31.824459 146.798066,31.9617049 147.085377,32.1430656 C147.243361,32.2429836 147.416803,32.4111475 147.471098,32.5167213 C147.525016,32.6226721 147.589869,32.7229672 147.614377,32.7403115 C147.784803,32.859459 147.928836,34.1071148 147.928836,35.4671311 L147.928836,36.339623 L147.756148,36.1194262 C147.571016,35.8833934 147.183787,35.3566557 147.080475,35.2001803 C146.969246,35.0316393 146.175557,33.9691148 146.087705,33.871459 C146.041328,33.8198033 145.939148,33.6712459 145.861098,33.541541 C145.783049,33.4122131 145.693311,33.3058852 145.661639,33.3058852 C145.629967,33.3058852 145.603951,33.2764754 145.603951,33.2406557 C145.603951,33.1675082 145.394311,32.8639836 145.181656,32.629082 C145.105115,32.5442459 145.02518,32.4217049 145.004443,32.3564754 C144.983705,32.2912459 144.94223,32.2377049 144.912443,32.2377049 C144.882279,32.2377049 144.797443,32.1302459 144.723164,31.9986557 C144.538033,31.6687377 144.382311,31.579377 144.157213,31.6728852 C143.983016,31.7449016 142.964984,31.7268033 142.131705,31.6366885 C141.783689,31.5989836 141.770492,31.6031311 141.770492,31.7449016 L141.770492,31.7449016 Z M120.18782,32.4733607 C120.124852,32.8794426 120.052836,33.2399016 120.027574,33.2745902 C120.002311,33.3092787 119.96423,33.4506721 119.943492,33.5886721 C119.922377,33.7270492 119.886557,33.9321639 119.863934,34.0445246 C119.808885,34.3190164 120.168213,34.3586066 120.29,34.0916557 C120.32959,34.0053115 120.384639,33.9344262 120.412918,33.9344262 C120.44082,33.9344262 120.504164,33.8567541 120.553557,33.7617377 C120.850295,33.1897541 122.016885,32.2867213 122.312115,32.4002131 C122.434656,32.4469672 122.474246,38.3523115 122.352459,38.4277213 C122.31777,38.4488361 122.289492,38.5868361 122.289492,38.7342623 C122.289492,39.1576885 122.112279,39.6561475 121.874361,39.9012295 C121.440754,40.3476557 121.428689,40.3442632 123.514902,40.3442632 C125.579246,40.3442632 125.564918,40.3476557 125.161098,39.9438361 C125.046475,39.8292131 124.883967,39.5547213 124.799508,39.3330164 L124.646049,38.9303279 L124.646049,35.6635738 C124.646049,31.9202295 124.598918,32.1687049 125.232361,32.5879836 C125.612803,32.8390984 126.273016,33.4985574 126.611984,33.9649672 C126.829541,34.2639672 127.173787,34.385 127.107049,34.1387869 C127.090836,34.078082 127.01241,33.6116721 126.93323,33.1019016 C126.854049,32.5921311 126.766574,32.1747377 126.739049,32.1747377 C126.711148,32.1747377 126.688525,32.0759508 126.688525,31.954918 L126.688525,31.7350984 L123.495295,31.7350984 L120.301689,31.7350984 L120.18782,32.4733607 L120.18782,32.4733607 Z M137.057377,32.0367377 C137.057377,32.0642623 137.156541,32.1227049 137.277574,32.1664426 C137.58977,32.2791803 137.899705,32.713541 138.034689,33.227459 C138.096148,33.4608525 138.167787,33.679918 138.193803,33.7146066 C138.428705,34.0279344 138.427951,37.789 138.193049,38.3017869 C138.161377,38.3711639 138.076164,38.6313279 138.00377,38.8805574 C137.931377,39.1297869 137.836738,39.3560164 137.793377,39.383541 C137.749639,39.4106885 137.665934,39.5087213 137.607492,39.6010984 C137.548672,39.6938525 137.400869,39.805459 137.279082,39.8495738 C137.156918,39.8936885 137.057377,39.9521311 137.057377,39.9796557 C137.057377,40.0780656 136.51141,40.0282951 136.261426,39.9072623 C135.950738,39.7571967 135.650607,39.4265246 135.551066,39.1241311 C135.509967,39.000459 135.453033,38.8990328 135.424377,38.8990328 C135.051098,38.8990328 135.040164,33.4016557 135.412689,33.1181148 C135.436066,33.1003934 135.520148,32.9473115 135.600082,32.7776393 C135.826311,32.2984098 136.260295,32.0046885 136.758754,31.993 C136.923148,31.9892295 137.057377,32.0088361 137.057377,32.0367377 L137.057377,32.0367377 Z M91.3446885,32.4284918 C91.4973934,32.5023934 91.6787541,32.6381311 91.7477541,32.7301311 C91.8167541,32.8221311 91.9053607,32.935623 91.9449508,32.982377 C92.0516557,33.1086885 92.230377,33.6120492 92.2827869,33.9344262 C92.3076721,34.0897705 92.360459,34.2568033 92.4000492,34.3054426 C92.498082,34.4268525 92.5003443,37.5650328 92.4023115,37.6287541 C92.3642295,37.6532623 92.314082,37.796541 92.2903279,37.9473607 C92.2394262,38.2738852 92.0237541,38.9073279 91.946459,38.9574754 C91.9166721,38.977082 91.8442787,39.0864262 91.7858361,39.2002951 C91.7273934,39.3137869 91.6105082,39.4385902 91.5256721,39.4774262 C91.4408361,39.5158852 91.371459,39.5682951 91.371459,39.5939344 C91.371459,39.6787705 90.9808361,39.7786885 90.6494098,39.7786885 C90.267459,39.7786885 90.129459,39.667459 90.0721475,39.3137869 C90.0517869,39.1874754 90.0106885,39.069082 89.9805246,39.0506066 C89.9507377,39.0321311 89.9262295,37.5058361 89.9262295,35.6586721 L89.9262295,32.3006721 L90.0872295,32.3006721 C90.175459,32.3006721 90.2339016,32.2780492 90.2165574,32.2501475 C90.1558525,32.1513607 91.0717049,32.2961475 91.3446885,32.4284918 L91.3446885,32.4284918 Z M115.627787,35.4113279 C115.655311,35.4456393 115.734492,35.665082 115.804246,35.8980984 L115.930557,36.3222787 L115.335197,36.3222787 C114.708918,36.3222787 114.642934,36.270623 114.882361,35.9697377 C114.912902,35.9312787 115.012443,35.6628197 115.103311,35.3728689 C115.306541,34.7232131 115.378934,34.6636393 115.492049,35.0527541 C115.53918,35.2152623 115.600262,35.3766393 115.627787,35.4113279 L115.627787,35.4113279 Z" id="path0"></path>
        </g>
    </g>
</svg>