<?xml version="1.0" encoding="UTF-8"?>
<svg width="176px" height="60px" viewBox="0 0 176 60" version="1.1" xmlns="http://www.w3.org/2000/svg" xmlns:xlink="http://www.w3.org/1999/xlink">
    <!-- Generator: Sketch 56 (81588) - https://sketch.com -->
    <title>画板备份 3</title>
    <desc>Created with Sketch.</desc>
    <g id="画板备份-3" stroke="none" stroke-width="1" fill="none" fill-rule="evenodd">
        <g id="vipkid" transform="translate(30.000000, 13.000000)" fill-rule="nonzero">
            <path d="M41.7540943,19.9458827 C41.2958365,20.9733902 40.4669658,21.6371451 39.5028716,22.1533989 C38.4073099,22.7409032 37.236624,23.0909058 35.9995783,23.1934065 C34.3468453,23.3309075 32.690356,23.4346583 31.0351188,23.5546592 C30.8635852,23.5671592 30.6907995,23.5796593 30.5192658,23.6046595 C29.7968211,23.7134103 29.4124355,24.1296634 29.4011668,24.8659188 C29.3823858,26.127178 29.3898982,27.3896873 29.3761254,28.6509465 C29.3723692,28.9246985 29.3661089,29.2134507 29.2784639,29.4672025 C29.1144427,29.939706 28.6536808,30.1272074 28.0501828,30.0247066 C27.6470161,29.9572061 27.3277381,29.5934534 27.2926801,29.1497002 C27.2776553,28.9609488 27.2789074,28.7709474 27.2789074,28.579696 C27.272647,24.6134169 27.2776553,20.6471378 27.2525034,16.6796087 C27.2476056,15.8283525 27.5794043,15.2295981 28.2918324,14.7933449 C28.8602724,14.4458424 29.475039,14.1983405 30.1198553,14.0845897 C31.1891235,13.8958383 32.2709124,13.7795875 33.3013664,13.6408364 C34.5747221,13.7808375 35.7867263,13.9020884 36.9949744,14.0545895 C38.0654946,14.1895905 39.0871842,14.5095928 40.043766,15.0120965 C40.8463432,15.4345996 41.5500068,15.9721035 41.9181155,16.8383599 C42.3676088,17.8958677 42.2060918,18.9333753 41.7540943,19.9458827 M23.950904,21.9196472 L23.9471478,21.9196472 C23.9471478,24.3134147 23.9458957,26.7071823 23.9483999,29.1021998 C23.9496519,29.5109528 23.7931431,29.8272052 23.4300427,30.0184566 C22.7464122,30.3784592 21.996422,29.9197058 21.9300622,29.1096999 C21.9238019,29.0321993 21.926306,28.9534487 21.926306,28.8759482 C21.926306,24.217164 21.926306,19.5571298 21.9275581,14.8983457 C21.9275581,14.4170921 22.0878231,14.0133392 22.5535933,13.7958376 C23.1921493,13.4958354 23.9358792,13.9520887 23.9433916,14.6583439 C23.9559123,15.7908522 23.9496519,16.9233605 23.950904,18.0558688 C23.950904,19.3433783 23.950904,20.6308877 23.950904,21.9196472 M18.7811049,15.0058465 C18.6734269,15.3770992 18.5194222,15.7346018 18.3704258,16.0933544 C17.3512404,18.5558725 16.3295509,21.0183906 15.3041052,23.4796586 C14.6930948,24.9446693 14.1121341,26.4234302 13.4410243,27.8609407 C13.1417795,28.4996954 12.6997986,29.0871997 12.2415408,29.6309537 C11.7269398,30.2409582 11.0132596,30.1622076 10.5199438,29.5259529 C9.87011926,28.6884468 9.37054313,27.76094 8.91478947,26.809683 C7.8317485,24.5446664 6.75747202,22.2746498 5.67943933,20.0058831 C5.16609042,18.9233752 4.65399359,17.8383672 4.14189676,16.7533593 C3.96535482,16.3771065 3.90525544,15.9983537 4.13438434,15.6171009 C4.34974046,15.2570983 4.67152258,15.0958471 5.18236734,15.0983471 C5.56800505,15.1195973 5.93360964,15.345849 6.14896576,15.7683521 C6.4231692,16.305856 6.66857501,16.85836 6.92024118,17.4071141 C7.77790947,19.2733778 8.63056947,21.1421415 9.48823776,23.0084051 C9.9064293,23.9184118 10.3221167,24.8284185 10.754081,25.7309251 C10.8442301,25.9209265 10.9832099,26.0946778 11.1297022,26.2496789 C11.2949755,26.4259302 11.5291127,26.4334303 11.6868735,26.267179 C11.8821965,26.0571775 12.068755,25.8159257 12.1801893,25.5534238 C12.778679,24.1396634 13.3508752,22.715903 13.9380963,21.2971426 C14.360044,20.2758851 14.7920084,19.2596277 15.2152082,18.2396202 C15.7185405,17.0283613 16.2093522,15.8121024 16.7227011,14.6070935 C16.8216146,14.3733418 16.9731152,14.1495902 17.147153,13.9645888 C17.4426416,13.6508365 17.8996473,13.6120862 18.266504,13.8220878 C18.7147452,14.0783397 18.923841,14.5170929 18.7811049,15.0058465 M46.0925186,21.0283906 C46.11756,18.9096251 46.0261588,16.7946096 45.8621376,14.6845941 C45.8308358,14.2808411 45.7769968,13.8745882 45.6830915,13.4808353 C45.3500408,12.080825 44.4748435,11.1108179 43.2290333,10.4295629 C42.0095167,9.76455802 40.6685492,9.50580612 39.3313379,9.24080418 C38.4761738,9.07205294 37.6147493,8.93455193 36.7533248,8.79705093 C35.7904826,8.64204979 34.8263883,8.48954867 33.8610419,8.35954772 C33.0471961,8.24954691 32.2308462,8.15954625 31.4132441,8.0845457 C30.1311239,7.96704484 28.8464996,7.85954405 27.5631274,7.76829338 C26.7430212,7.70954295 25.9204109,7.6582135 25.0990526,7.6582135 C23.0656902,7.6582135 21.0323277,7.65454255 19.0002173,7.71954302 C17.7493989,7.75829331 16.5023366,7.91204444 15.2540224,8.03079531 C14.4113789,8.11079589 13.5674834,8.19954654 12.7298483,8.32204744 C11.7820309,8.46079846 10.8367177,8.62329965 9.89641274,8.80830101 C8.77956586,9.02830262 7.66021484,9.24955424 6.55588867,9.53080631 C5.2437188,9.86705877 3.93530513,10.2245614 2.64942874,10.6483145 C1.31847781,11.0870677 0.472078155,12.0370747 0.272998947,13.4308349 C0.111481853,14.5558432 0.0388617649,15.7008516 0.0150724255,16.8383599 C-0.055043522,20.1933845 0.116490135,23.538409 0.592276922,26.8634334 C0.74127331,27.9071911 0.96915014,28.9321986 1.3059571,29.9322059 C1.60269781,30.8097124 2.14234019,31.4909674 3.00126055,31.85597 C3.80133359,32.1972225 4.6114232,32.5447251 5.44905836,32.7647267 C6.95905537,33.1609796 8.48658137,33.5034821 10.0203677,33.7959843 C11.2398844,34.029736 12.4781821,34.1809871 13.7127236,34.3247381 C14.9410047,34.4684892 16.1730421,34.5972401 17.4063315,34.6597406 C19.333268,34.7584913 21.2627087,34.8359919 23.1908972,34.845992 C24.8160847,34.854742 26.4425243,34.7684914 28.0677118,34.6984909 C28.800173,34.6672406 29.5326342,34.58224 30.2638434,34.5097395 C31.2179211,34.4159888 32.1732509,34.3297382 33.1235724,34.2022372 C34.1502702,34.0634862 35.1732118,33.890985 36.1936493,33.7122336 C36.9148419,33.5859827 37.6360345,33.4434817 38.3484626,33.2697304 C39.4302515,33.0059785 40.5082842,32.7259764 41.5788044,32.4197242 C42.0984137,32.2709731 42.6305437,32.1072219 43.0975659,31.84597 C44.0253502,31.3259661 44.6138233,30.4747099 45.0833497,29.5447031 C45.639269,28.447195 45.8658938,27.2571863 45.9522867,26.0496775 C46.0662251,24.4409157 46.100031,22.8246538 46.1688949,21.212142 C46.1438534,21.210892 46.11756,21.210892 46.0925186,21.209642 C46.0925186,21.1483915 46.0925186,21.0883911 46.0925186,21.0283906" id="Fill-1" fill="#FF6602"></path>
            <path d="M75.536083,9.90980909 C74.7109686,9.61480692 73.8670731,9.63355706 73.0870331,10.1010605 C72.6124984,10.3848126 72.1479803,10.6873148 71.6847142,10.988567 C68.6471912,12.9623315 65.6109202,14.937346 62.5733972,16.9123604 C62.3830825,17.0361113 62.1840033,17.1511122 61.9198164,17.3136134 C61.9360933,17.121112 61.9348413,17.0186112 61.9536223,16.9186105 C62.1514495,15.8436026 62.4819961,14.7885949 62.4895085,13.6848368 C62.4920126,13.176083 62.5107937,12.6523292 62.3993594,12.1635756 C62.1915157,11.2485689 61.6017905,10.5660639 60.7779281,10.1448108 C60.1994716,9.84855864 59.5696801,9.63605708 58.9423928,9.45355574 C57.9732902,9.17355369 56.992919,8.92230184 56.0062875,8.7123003 C55.1548796,8.52979897 54.2859426,8.42729821 53.4270223,8.27854712 C52.1686914,8.05979552 50.9141168,7.81104369 49.6520298,7.61854228 C49.3077104,7.5660419 48.9158123,7.60854221 48.5852657,7.72104303 C47.6562294,8.03604534 47.4321088,9.46730584 48.0493795,10.04106 C48.3448682,10.3160621 48.6653982,10.5685639 48.9959448,10.7985656 C49.4216488,11.0935678 49.887419,11.3323195 50.3056106,11.6348217 C51.4199533,12.4410777 52.5355481,13.2485836 53.4195099,14.3210914 C54.1081486,15.1573476 54.6315141,16.0836044 54.6690762,17.1898625 C54.7492087,19.5211296 54.7780063,21.8548967 54.8481223,24.1861638 C54.9069696,26.1361781 54.8819282,28.0886924 55.0935281,30.0349567 C55.1899375,30.9262132 55.2062145,31.8274698 55.2813387,32.7224764 C55.3176487,33.1574796 55.3614712,33.5949828 55.5956084,33.9912357 C56.0713952,34.7924916 56.9966753,34.9599928 57.880637,34.8162417 C58.6832142,34.6862408 59.1314554,34.1812371 59.3079974,33.4287316 C59.4582458,32.7924769 59.5809487,32.1462222 59.6698458,31.4987174 C59.8864539,29.9087058 60.0755166,28.3149441 60.2758479,26.7236824 C60.3121579,26.4399303 60.4361129,26.3711798 60.6765104,26.538681 C60.9719991,26.7461826 61.2612273,26.9699342 61.5279184,27.213686 C62.8876669,28.4549451 64.2136096,29.7337045 65.6009037,30.9437133 C67.028264,32.1874725 68.5207321,33.356231 70.1847337,34.2837378 C70.79324,34.6237403 71.4255356,34.8962423 72.1479803,34.857492 C72.7051516,34.8274918 73.1346118,34.4699892 73.1947112,33.9262352 C73.227265,33.6387331 73.2410378,33.3237308 73.1584012,33.0537288 C72.9693385,32.4374743 72.7589907,31.8199698 72.4797789,31.2412155 C71.7110077,29.6499539 70.7168637,28.1911932 69.7152073,26.7411825 C69.0453496,25.7749254 68.3291653,24.8424186 67.685601,23.8599114 C67.1033883,22.9724049 67.1572273,22.0811483 67.8471181,21.2761424 C68.448112,20.5748873 69.1317425,19.9461327 69.7690463,19.2761278 C71.3491593,17.6186156 72.9280202,15.9573534 74.4981166,14.2898412 C75.0790773,13.6735867 75.6700546,13.0623322 76.1984283,12.4035774 C76.8607736,11.5785713 76.512698,10.2598117 75.536083,9.90980909" id="Fill-3" fill="#74BA00"></path>
            <path d="M103.15801,25.5611739 C102.535731,26.5686813 101.644257,27.2774365 100.613803,27.8286905 C99.5620637,28.3911946 98.4452168,28.7624473 97.2795392,29.0099492 C96.0838118,29.264951 94.8805721,29.4287022 93.6560472,29.4187022 C93.0625657,29.4137021 93.0112309,29.3674518 93.0099788,28.7586973 C93.0074746,26.528681 93.0087267,24.2986646 93.0087267,22.0686483 L93.0087267,22.0686483 L93.0087267,15.6123509 C93.0087267,15.5261003 93.0074746,15.4385996 93.0087267,15.352349 C93.013735,14.8198451 93.0800947,14.7648447 93.6047123,14.7498446 C94.7353319,14.7160943 95.8434143,14.8798455 96.9502446,15.084847 C98.3563198,15.346099 99.6960352,15.7848522 100.931829,16.5061075 C102.395499,17.3623637 103.481044,18.5561225 103.860422,20.2311348 C104.277361,22.0723983 104.188464,23.8911616 103.15801,25.5611739 M109.73138,18.621123 C108.970121,16.2773558 107.478905,14.4910927 105.449299,13.1260827 C103.332048,11.7035722 100.98692,10.8285658 98.5103245,10.2935619 C97.4322918,10.0598102 96.3379821,9.87855886 95.2424205,9.75355794 C93.7487004,9.5848067 92.2462158,9.49355603 90.7474874,9.36980513 C90.7449833,9.39230529 90.7437312,9.41480546 90.7412271,9.43855563 C90.4995775,9.43855563 90.2566758,9.42730555 90.0150262,9.44105565 C89.5392394,9.46605583 89.0659567,9.51730621 88.6352445,9.74605789 C87.5947739,10.2998119 87.0551315,11.1698183 87.0538795,12.3435769 C87.0501232,16.8898603 87.0538795,21.4361436 87.063896,25.982427 C87.0664002,26.941184 87.1315078,27.899941 87.1365161,28.8586981 C87.1402723,29.7562046 87.1753303,30.6637113 87.0689043,31.5512178 C86.8760855,33.1762297 88.0567879,34.57374 89.6356488,34.6887408 C90.7024129,34.7662414 91.7804456,34.713741 92.8509658,34.6749907 C93.6022081,34.6474905 94.3534504,34.57374 95.0984324,34.4712392 C96.0625266,34.3387382 97.027873,34.1824871 97.9832028,33.9874857 C98.8446273,33.8112344 99.6997914,33.5974828 100.543687,33.348731 C101.864621,32.9587281 103.120448,32.4099741 104.327444,31.7412192 C106.266901,30.6662113 107.868299,29.2499509 108.960105,27.2949366 C109.581132,26.1811784 109.993063,24.9961697 110.168353,23.7374105 C110.289804,22.854904 110.316097,21.9723975 110.214679,21.077391 C110.119522,20.2411349 109.989307,19.4161288 109.73138,18.621123" id="Fill-5" fill="#74BA00"></path>
            <path d="M84.5854225,16.8257348 C84.5854225,16.4632321 84.5453562,16.1007295 84.5428521,15.7382268 C84.5365917,14.675719 84.433922,13.5994611 84.5628852,12.5532035 C84.8132993,10.5294386 82.890119,9.04067771 80.9857198,9.53943137 C79.5383263,9.91818415 78.8496876,10.9019414 78.8572,12.4007024 C78.8609562,13.2569586 78.8834935,14.1119649 78.8847455,14.9669712 C78.8885018,17.3444886 78.8859976,19.720756 78.8859976,22.0982735 L78.8559479,22.0982735 C78.8559479,25.304547 78.8546959,28.5120705 78.8597041,31.718344 C78.8597041,32.0283463 78.8672166,32.3458486 78.9335763,32.6458508 C79.1451762,33.6021078 79.7649511,34.2158623 80.6614336,34.5608649 C82.5533121,35.2871202 84.6142201,33.9408603 84.5991953,31.9183455 C84.5616331,26.8870586 84.5879266,21.8557717 84.5854225,16.8257348" id="Fill-7" fill="#74BA00"></path>
            <path d="M64.7761648,6.57728465 C65.8930117,5.36602576 66.1133761,3.6122629 65.3571255,2.0435014 C64.4856845,0.230988105 62.1530772,-0.540267551 60.3788933,0.407239398 C58.9853388,1.15224486 58.3004563,2.32475346 58.3079687,4.08101634 C58.2553817,4.65727057 58.4757461,5.33727555 58.8613838,5.97228021 C60.2386614,8.24604689 63.2223454,8.26354701 64.7761648,6.57728465" id="Fill-9" fill="#FF6602"></path>
            <path d="M113.225408,34.4009887 C112.020916,34.4272389 110.996723,33.4972321 110.98921,32.2272228 C110.981698,30.9759636 111.900718,30.0672069 113.106461,30.0084565 C114.325978,29.948456 115.393994,30.8709628 115.409019,32.1972225 C115.42154,33.4647318 114.372305,34.4122388 113.225408,34.4009887 M113.185342,29.4209355 C111.636531,29.4359523 110.398233,30.6497112 110.408249,32.2147227 C110.417014,33.7759841 111.596464,34.9772429 113.22666,34.9997431 C114.734153,35.0209932 115.998744,33.7209837 116.000004,32.2147227 C116.0025,30.6797114 114.730397,29.4172021 113.185342,29.4209355" id="Fill-12" fill="#020202"></path>
            <path d="M38.8568032,17.0016111 C38.622666,16.8441099 38.3647395,16.711609 38.1055609,16.5991081 C37.2929671,16.2441055 36.4215261,16.1366048 35.5513371,16.0978545 C34.803851,16.0653542 34.0463484,16.1028545 33.3013664,16.1828551 C32.3322639,16.2878559 31.3669175,16.447857 30.4065794,16.6178583 C29.8819619,16.711609 29.6115147,17.0416114 29.6027502,17.5578652 C29.5877253,18.4741219 29.5827171,19.3903786 29.6102626,20.3066353 C29.6290437,20.9653902 30.0384707,21.3291428 30.700816,21.3366429 C31.2454667,21.3428929 31.7913694,21.3378929 32.4599751,21.3378929 C33.9361662,21.3903933 35.513775,21.2466422 37.060082,20.812889 C37.8676675,20.5878874 38.5951205,20.2353848 39.1535439,19.5891301 C39.8922655,18.7366238 39.7695626,17.6128656 38.8568032,17.0016111" id="Fill-14" fill="#FF6602"></path>
            <path d="M113.367769,31.9302206 C113.308921,31.9739709 113.199991,31.9489707 113.11485,31.9552208 C112.923283,31.9552208 112.710432,31.990221 112.742985,31.6814688 C112.75801,31.5502178 112.709179,31.4027167 112.9333,31.3914666 C113.315182,31.3752165 113.594393,31.4639672 113.58062,31.6552186 C113.573108,31.7527193 113.460422,31.8627201 113.367769,31.9302206 M113.747146,32.3252235 C113.799733,32.2864732 113.847312,32.2527229 113.893638,32.2164727 C114.159077,32.0077211 114.254234,31.7402192 114.170346,31.442717 C114.097726,31.1852151 113.843555,30.9939637 113.519269,30.9789636 C113.191227,30.9639635 112.863184,30.9677135 112.535142,30.9664635 C112.333558,30.9664635 112.188318,31.0602142 112.185814,31.2677157 C112.175797,31.8964703 112.175797,32.5252249 112.18957,33.1539796 C112.193326,33.3164807 112.302257,33.487732 112.482555,33.4364816 C112.596493,33.4039814 112.711684,33.2452302 112.753002,33.1189793 C112.800581,32.9702282 112.765523,32.7939769 112.775539,32.6314757 C112.786808,32.4339743 112.923283,32.3602237 113.088557,32.4702245 C113.179958,32.530225 113.262595,32.6152256 113.323946,32.7064763 C113.444145,32.8852276 113.540554,33.078979 113.656997,33.2602303 C113.758415,33.4164815 113.896142,33.5289823 114.090213,33.4227315 C114.284284,33.3152307 114.230445,33.1414795 114.150313,32.9939784 C114.02761,32.7689767 113.886126,32.5552252 113.747146,32.3252235" id="Fill-16" fill="#000000"></path>
        </g>
    </g>
</svg>