<?xml version="1.0" encoding="UTF-8"?>
<svg width="176px" height="60px" viewBox="0 0 176 60" version="1.1" xmlns="http://www.w3.org/2000/svg" xmlns:xlink="http://www.w3.org/1999/xlink">
    <!-- Generator: Sketch 56 (81588) - https://sketch.com -->
    <title>画板备份 2</title>
    <desc>Created with Sketch.</desc>
    <g id="画板备份-2" stroke="none" stroke-width="1" fill="none" fill-rule="evenodd">
        <g id="yuanfudao" transform="translate(15.000000, 14.000000)" fill-rule="nonzero">
            <path d="M34.2017326,2.86499759 C34.1568684,2.21483699 33.8355827,1.85508145 33.1901168,1.78139659 C32.5866206,1.71204612 31.98023,1.66292288 31.3738394,1.62824765 C26.4243028,1.35373539 21.4747661,1.08211274 16.5252294,0.811934893 C11.5945068,0.543201845 6.6637841,0.280248003 1.73450869,0.0100701536 C0.363979086,-0.0650595157 0.00217084942,0.261465585 0.000723616473,1.62535804 C-0.000723616473,6.57524741 0.000723616473,11.5251368 0.000723616473,16.4750261 C0.000723616473,21.5043796 -0.00217084942,26.5322882 0.00361808237,31.5601968 C0.00361808237,32.6033434 0.433446268,33.0454526 1.40453957,32.9963294 C4.28163867,32.8475148 7.15729054,32.6900315 10.0329424,32.5296585 C15.5309804,32.2248055 21.0275711,31.9170628 26.5241618,31.6064305 C28.7152725,31.4821776 30.9063832,31.3535903 33.0945994,31.2091101 C33.8486078,31.1599869 34.1713407,30.7930073 34.2046271,30.0417106 C34.2089688,29.9434642 34.2089688,29.8452177 34.2089688,29.748416 C34.2089688,20.904787 34.2089688,12.0611581 34.2075215,3.21752911 C34.2075215,3.0990554 34.210416,2.98202649 34.2017326,2.86499759" id="Path" fill="#FF7301"></path>
            <path d="M17.0722835,27.7358077 C10.7609006,27.7358077 5.64348488,22.6269902 5.64348488,16.3262116 C5.64348488,10.0239882 10.7609006,4.91661548 17.0722835,4.91661548 C23.3851136,4.91661548 28.501082,10.0239882 28.501082,16.3262116 C28.501082,22.6269902 23.3851136,27.7358077 17.0722835,27.7358077" id="Path" fill="#030104"></path>
            <path d="M63.1322087,18.5907932 C60.9396508,18.5907932 58.7456456,18.5936828 56.5530877,18.5907932 C55.4575324,18.5893484 55.1116437,18.199252 55.2230806,17.1098718 C55.2737338,16.614305 55.5458136,16.3311239 56.0364255,16.2574391 C56.1522042,16.2401014 56.2708773,16.2401014 56.3881031,16.2401014 C60.8918921,16.2386566 65.395681,16.2372118 69.9009172,16.2415462 C70.7982016,16.242991 71.1411958,16.6128602 71.1122511,17.5028578 C71.0876482,18.2469305 70.7186038,18.5864588 69.8878921,18.5893484 C67.6359976,18.5951276 65.3841031,18.5907932 63.1322087,18.5907932 M71.1498792,26.6860151 C70.844513,26.3941652 70.850302,26.1861138 71.1802711,25.9347184 C71.4899789,25.697771 71.7852145,25.4391515 72.0717666,25.1718633 C72.6882878,24.5997219 72.7620967,23.7068347 72.2555652,23.1173558 C71.7403502,22.5177632 70.8734577,22.4498576 70.1947054,22.9772101 C69.8242138,23.2647255 69.4638528,23.5695786 69.1237531,23.8917693 C68.8415426,24.1590575 68.6230105,24.1836192 68.3364583,23.8845453 C67.644681,23.1650342 66.923959,22.4729744 66.222051,21.7621321 C66.1265336,21.6653304 66.0700916,21.5295191 65.9412878,21.3272469 L66.7010851,21.3272469 C68.4450008,21.3258021 70.1889165,21.3301365 71.9342795,21.3243573 C73.0631211,21.3200229 73.5957029,20.7926704 73.602939,19.6772838 C73.6101752,18.192028 73.608728,16.7038827 73.602939,15.2171821 C73.6000446,13.996325 73.0819352,13.4863101 71.8387621,13.4819757 C69.937098,13.4776413 68.0368811,13.4805309 66.135217,13.4805309 C62.214663,13.4805309 58.2955562,13.4776413 54.3750021,13.4834205 C53.1434069,13.4848653 52.6383226,14.003549 52.6368753,15.2388541 C52.6354281,16.7457819 52.6310864,18.2527097 52.6383226,19.7596375 C52.6426643,20.7695536 53.1810349,21.3012405 54.2013342,21.3243573 C54.5616952,21.3315813 54.9220562,21.3258021 55.4662157,21.3258021 C55.21295,21.617652 55.101513,21.7650217 54.9712621,21.8950539 C53.8641289,23.0032165 52.7512067,24.1027103 51.646968,25.2137625 C50.9479545,25.9173808 50.9001958,26.7914856 51.5123753,27.3983021 C52.1216604,28.0036739 52.9900002,27.9545506 53.7049333,27.2552668 C54.5588007,26.4201716 55.3981958,25.5706284 56.2477215,24.7297541 C56.3953393,24.5823843 56.5574294,24.4494626 56.7108361,24.3093169 C56.7658309,24.3338785 56.8193786,24.3569953 56.8729262,24.3815569 C56.8729262,25.1776425 56.8396398,25.9766176 56.8801623,26.7712583 C56.9727852,28.6509449 57.8773058,30.0292854 59.5633322,30.8730493 C60.8368972,31.5087619 62.2045323,31.3686162 63.5461173,31.2501425 C64.1915832,31.1937952 64.6416726,30.4800634 64.6040446,29.8197892 C64.5620748,29.0988333 64.0208097,28.5136888 63.2986405,28.4660103 C62.7515864,28.4313351 62.2016379,28.4616759 61.6531366,28.4486727 C60.5763953,28.4226663 59.8122563,27.7219376 59.7905478,26.6585638 C59.7572614,25.0562792 59.7760755,23.4511049 59.7862061,21.8459306 C59.7876533,21.6870025 59.8469899,21.4702823 59.959874,21.3821494 C60.263793,21.1408676 61.8832466,21.3662566 62.1784822,21.6595512 C63.3594242,22.8327299 64.5389191,24.0059086 65.7184139,25.1805321 C67.5896861,27.0472154 69.4595111,28.9138987 71.3322305,30.7791372 C72.1224197,31.5651092 73.093513,31.4726419 73.584125,30.5710859 C73.8981746,29.9960549 73.7968683,29.3386703 73.2729699,28.7983146 C72.5782981,28.0816932 71.8720484,27.3751853 71.1498792,26.6860151" id="Fill-7" fill="#030303"></path>
            <path d="M119.63363,7.24606867 C119.655339,6.16535727 119.969388,5.84894578 121.054813,5.84894578 C126.797433,5.84605617 132.538606,5.84605617 138.282674,5.84894578 C139.350732,5.84894578 139.695173,6.1942533 139.705304,7.24606867 C139.707993,7.44256165 139.709646,7.63760983 139.705304,7.83410281 C139.682148,8.72699003 139.295737,9.11419679 138.395558,9.11564159 C135.475042,9.12142079 132.554526,9.11853119 129.635457,9.11853119 C126.77283,9.11853119 123.911651,9.11997599 121.050471,9.11708639 C119.985308,9.11708639 119.645208,8.77611328 119.63363,7.7156291 C119.630736,7.55959055 119.630736,7.40210721 119.63363,7.24606867 M120.947718,18.0517378 C124.004274,18.0517378 127.06083,18.0517378 130.118833,18.0517378 C133.19565,18.0517378 136.272467,18.0632962 139.349285,18.0474034 C141.326205,18.035845 143.065779,17.352454 144.568007,16.0738048 C145.307543,15.4453162 145.401613,14.5683218 144.831403,13.897934 C144.261193,13.2304358 143.45219,13.1683093 142.692393,13.7910187 C141.582365,14.7012435 140.323272,15.0971191 138.890512,15.0927847 C133.149339,15.0754471 127.406718,15.0855607 121.664098,15.0855607 C119.766776,15.0855607 119.63363,14.9511942 119.632183,13.0512804 C119.632183,12.0644811 119.632183,12.0875979 120.61196,12.0890427 C126.646921,12.0962667 132.68333,12.1020459 138.719738,12.0861531 C140.42892,12.0803739 141.94562,10.9620977 142.405841,9.32224818 C142.608453,8.60418192 142.627267,7.81820999 142.627267,7.0640237 C142.627267,4.52261815 140.970185,2.86976543 138.434633,2.86687583 C132.574787,2.85965182 126.716388,2.85820702 120.856542,2.86687583 C118.360065,2.87121023 116.685617,4.55295898 116.682494,7.03368287 C116.681275,9.30346576 116.692853,11.5732487 116.698642,13.8415867 C116.704431,16.3902163 118.377432,18.050293 120.947718,18.0517378" id="Fill-4" fill="#030303"></path>
            <path d="M106.625466,10.6133227 C105.716604,10.3749304 104.726697,10.4182745 103.770076,10.3893784 C102.567425,10.3518136 102.720832,10.4832905 102.681756,9.31878066 C102.66439,8.78564897 102.82648,8.59204559 103.379323,8.6021592 C104.966937,8.63250002 106.554552,8.63683443 108.140719,8.59493519 C108.544497,8.58482158 108.994587,8.43745184 109.328897,8.21350764 C109.806484,7.89420654 109.919368,7.21948432 109.710967,6.67623902 C109.464937,6.03330243 108.974325,5.72700454 108.302809,5.72122534 C106.61823,5.70966693 104.932204,5.70677733 103.247625,5.72267014 C102.843847,5.72555974 102.675968,5.59119322 102.687545,5.18231444 C102.703465,4.57694268 102.707807,3.96868132 102.677415,3.36330957 C102.636892,2.55133122 102.001557,1.96040747 101.22584,1.97434606 C100.442887,1.9878587 99.8379437,2.58889605 99.8104463,3.403764 C99.7930795,3.91088927 99.8061046,4.42090414 99.8046574,4.92947421 C99.8032101,5.71400133 99.8032101,5.71400133 99.0419656,5.71544613 C97.4934264,5.71544613 95.9463343,5.71111173 94.3977951,5.71689094 C93.3528929,5.72122534 92.6857185,6.28614266 92.6753661,7.15735786 C92.6654572,8.02279386 93.3427623,8.6064936 94.3804283,8.610828 C95.7900332,8.61805201 97.2010853,8.6079384 98.6121374,8.61371761 C99.9696419,8.62094161 99.7800544,8.45912386 99.8104463,9.86347076 C99.8176825,10.2448983 99.6787481,10.3937128 99.3010203,10.385044 C98.7134437,10.370596 98.1258672,10.3807096 97.5382906,10.3821544 C94.5584379,10.3879336 92.6799296,12.2575066 92.6799296,15.2179045 C92.6799296,17.5657067 92.6799296,19.9135088 92.6799296,22.2598662 C92.6799296,24.6669052 92.6784823,27.0739442 92.682824,29.4795384 C92.6842713,29.7511611 92.6958491,30.0300078 92.7595274,30.2929616 C92.9071451,30.908447 93.4411741,31.3346634 94.0692732,31.3794522 C94.6452719,31.4184618 95.2502153,31.0673751 95.4600641,30.4908994 C95.571501,30.1889359 95.5989984,29.8450732 95.5989984,29.5185481 C95.6076818,24.6856876 95.6033401,19.854272 95.6076818,15.0214115 C95.6076818,13.978265 96.2126252,13.3078771 97.1952964,13.3020979 C99.9001747,13.2876499 102.605053,13.2890947 105.308484,13.3020979 C106.228924,13.3078771 106.872943,13.9421449 106.875838,14.858149 C106.89031,18.8674727 106.887415,22.8782412 106.877285,26.8890097 C106.875838,27.6215239 106.448904,28.1979997 105.784624,28.391603 C105.527016,28.4667327 105.243359,28.4522847 104.971279,28.4710671 C104.237532,28.52308 103.670217,29.0562117 103.602197,29.7656091 C103.526941,30.5183506 103.978477,31.1540632 104.733933,31.3129913 C104.998776,31.3693386 105.280987,31.380897 105.550172,31.3621146 C107.965604,31.1872936 109.776092,29.3653991 109.802143,26.9453569 C109.848454,22.8955788 109.842665,18.8458006 109.80359,14.7960225 C109.784776,12.7978623 108.521341,11.1074447 106.625466,10.6133227" id="Fill-9" fill="#030303"></path>
            <path d="M83.8972517,9.23902762 C83.9696134,8.73912636 84.1693315,8.59753583 84.6541545,8.60331504 C86.5543714,8.62643186 88.4560355,8.60909424 90.3562524,8.61342865 C90.8902813,8.61487345 91.3736571,8.51229255 91.7152041,8.06440414 C92.0654345,7.60495732 92.1363489,7.09494245 91.8961082,6.57192436 C91.6327118,6.00122784 91.1551249,5.72527078 90.5313675,5.72093638 C89.1405767,5.71371237 87.7483386,5.71660198 86.3575477,5.71515717 L84.4819338,5.71515717 C84.5875818,4.99853571 84.7048077,4.40472237 84.7540136,3.80657461 C84.8176919,3.0350507 84.3082659,2.40945173 83.5803077,2.28953322 C82.7973547,2.1609459 82.1417581,2.58571749 81.9449345,3.37024461 C81.855206,3.73000014 81.8045529,4.09986928 81.749558,4.46684882 C81.5802318,5.59957307 81.5831262,5.59957307 80.475993,5.72816039 C79.7263264,5.81629327 79.1720361,6.41155142 79.1604583,7.14406569 C79.1488804,7.86791116 79.6322562,8.51807176 80.370345,8.5628606 C81.053439,8.60331504 81.04765,8.92695054 80.9637105,9.4355206 C80.6670278,11.2487463 80.3529782,13.0619719 80.1228682,14.8853112 C79.8927581,16.7014265 81.1272479,18.3745064 82.9247112,18.719814 C83.5701771,18.8440669 84.2489293,18.8382877 84.911762,18.8267293 C85.402374,18.8166157 85.6426146,18.930755 85.5919615,19.4754451 C85.5485445,19.9594535 85.5543334,20.4550204 85.5919615,20.9404736 C85.6281423,21.4158133 85.4385548,21.5501798 84.9855709,21.5444006 C83.5745188,21.5241734 82.1634666,21.5386214 80.7524145,21.5371766 C80.1619435,21.5371766 79.6727787,21.7322247 79.3630709,22.2552428 C78.7769415,23.2434869 79.4643772,24.4166656 80.6742639,24.4441168 C82.0853161,24.4759025 83.4978154,24.4773473 84.9074203,24.4412272 C85.4617105,24.428224 85.6049866,24.6160482 85.594856,25.1448455 C85.5644641,26.7297926 85.5673585,28.3147396 85.5905143,29.8996867 C85.6064338,30.958726 86.5818688,31.6175555 87.5558566,31.2650239 C88.1738251,31.0396349 88.4980053,30.5108376 88.5023469,29.6656289 C88.5095831,28.1196914 88.5139248,26.5751988 88.4994525,25.0292614 C88.4936636,24.6073794 88.6210201,24.4195552 89.0696623,24.4470064 C89.5573798,24.4773473 90.049439,24.4701233 90.5386037,24.4470064 C91.4315464,24.406552 92.043726,23.7823978 92.0263592,22.9574163 C92.0104396,22.1541067 91.4026018,21.570407 90.5299203,21.541511 C90.0204943,21.5241734 89.5110683,21.5256182 89.0016423,21.5400662 C88.6615426,21.548735 88.4922163,21.4317061 88.5023469,21.0690609 C88.5168193,20.4810268 88.5168193,19.8944374 88.5023469,19.3078481 C88.4922163,18.945203 88.6528592,18.8223949 88.9973006,18.8339533 C89.4473901,18.8484013 89.900374,18.8570701 90.3490162,18.8281741 C91.2072253,18.7718268 91.8136159,18.1418934 91.8005908,17.3544767 C91.7861185,16.5612808 91.1638083,15.9602434 90.304152,15.9313474 C89.894585,15.9168994 89.4806764,15.9038962 89.0711095,15.9327922 C88.626809,15.9645778 88.4907691,15.7796433 88.4980053,15.3534269 C88.5182665,14.2582675 88.5182665,13.163108 88.4980053,12.0679486 C88.4806385,11.0652565 87.8945091,10.4685536 86.9972247,10.487336 C86.1375683,10.5061184 85.5919615,11.1216038 85.5861726,12.0939551 C85.5789364,12.9348294 85.5847253,13.7757038 85.5847253,14.6165782 C85.5832781,16.0657139 85.5832781,16.0657139 84.1172311,15.9168994 C83.4182176,15.8461041 82.9406307,15.2681836 83.0491732,14.5688997 C83.3255947,12.7903493 83.6410915,11.0190229 83.8972517,9.23902762" id="Fill-11" fill="#030303"></path>
            <path d="M72.60348,9.0006354 C70.1142393,8.9934114 67.6264459,8.98474259 65.1386524,9.00785941 C64.6219903,9.01219381 64.409247,8.85182087 64.4787142,8.33747159 C64.4975282,8.20310507 64.4975282,8.06295934 64.4787142,7.92714801 C64.3991164,7.36078589 64.6393571,7.18885453 65.2023307,7.19607854 C67.27911,7.22497457 69.3558892,7.20619215 71.4326685,7.20908175 C71.9609085,7.21052655 72.4529677,7.12817288 72.8118815,6.69328768 C73.1838204,6.24539926 73.2576293,5.73249479 73.0390971,5.20803191 C72.7887258,4.60554975 72.2952193,4.31947909 71.6454118,4.31803429 C69.6077078,4.31514468 67.5700038,4.31514468 65.5322998,4.31514468 C64.5626537,4.31514468 64.5626537,4.31514468 64.4758197,3.35146219 C64.4063526,2.57126948 63.8057509,1.98756974 63.054637,1.97456652 C62.3006286,1.96011851 61.6841074,2.51781183 61.5914845,3.30089415 C61.5755649,3.43526067 61.5668815,3.5754064 61.5799066,3.70977292 C61.6247708,4.15910614 61.4568918,4.3382615 60.9807522,4.32381349 C59.9633474,4.29347266 58.9444954,4.31369988 57.9241962,4.31514468 C56.730229,4.31514468 55.5348146,4.30214147 54.3394002,4.32525829 C53.6027586,4.33970631 53.0542573,4.81938035 52.915323,5.49699217 C52.7937554,6.08069191 53.0976743,6.77275175 53.6635424,7.01692317 C53.9732502,7.1512897 54.3437419,7.19752334 54.6881833,7.20041294 C56.7649626,7.21630576 58.8417419,7.22352976 60.9185212,7.19752334 C61.4424195,7.19318894 61.6001679,7.3737891 61.5856955,7.87946957 C61.5524092,9.12633312 61.6870018,8.9948562 60.4915874,8.996301 C58.1398339,9.0006354 55.7880804,8.9919666 53.4377741,9.0006354 C52.3827412,9.00496981 51.7589838,9.63634799 51.8313455,10.5841377 C51.890682,11.3701096 52.5100977,11.8916829 53.4233017,11.8931277 C56.6158976,11.8989069 59.8099407,11.8960173 63.0039838,11.8960173 C66.1980269,11.8960173 69.3920701,11.8989069 72.5846659,11.8945725 C73.5586537,11.8931277 74.193989,11.3513272 74.2345115,10.5147872 C74.2764813,9.62478958 73.6237792,9.00352501 72.60348,9.0006354" id="Fill-13" fill="#030303"></path>
            <path d="M51.3055658,8.14271237 C51.8728811,7.68615515 51.7932833,6.82216395 51.3243798,6.28325306 C50.8540291,5.74145256 50.0927845,5.62731325 49.4574493,6.007296 C49.3141732,6.09253928 49.1766861,6.18645137 49.0522241,6.26447064 C48.4545168,5.34413219 47.9175934,4.45846898 47.3213334,3.6175946 C46.7627015,2.83017787 45.852392,2.68569774 45.1692981,3.20727102 C44.5064654,3.71439629 44.4572594,4.54804666 44.9739216,5.3513562 C45.5238701,6.20523379 46.0086932,7.09956581 46.5383804,7.96500181 C46.8133547,8.41433502 46.7077067,8.72930171 46.337215,9.08183324 C45.2879712,10.0816358 44.2749081,11.1190031 43.2488199,12.1404777 C42.8045194,12.5811421 42.6597961,13.1099394 42.8566198,13.7008631 C43.031735,14.2238812 43.4239351,14.5388479 43.9666475,14.6414288 C44.5151488,14.7440097 44.9652382,14.5388479 45.3400715,14.1458619 C45.9840902,13.4725845 46.6266616,12.7964175 47.2706803,12.1216952 L47.4573733,12.2502826 C47.4761874,12.3615323 47.510921,12.4742268 47.510921,12.5854765 C47.5138154,14.9722883 47.5253933,17.3591001 47.4950014,19.7459119 C47.4921069,20.0146449 47.2981777,20.333946 47.0984596,20.537663 C45.8263418,21.839429 44.5209377,23.1079646 43.243031,24.4039514 C42.6351932,25.0223263 42.6192736,25.8863175 43.161986,26.4627933 C43.7191706,27.0551618 44.6092189,27.0652754 45.2662627,26.4685725 C45.6425432,26.1261546 45.9942208,25.7562854 46.3574763,25.3994195 C46.6816565,25.0801184 47.0072839,24.7622621 47.4573733,24.3230425 C47.4848708,24.7131389 47.5123682,24.9168558 47.5123682,25.1205728 C47.5167099,26.5682638 47.510921,28.0159547 47.5181571,29.4636456 C47.5196044,29.7352683 47.5369712,30.0141149 47.5977549,30.2770688 C47.741031,30.8968886 48.2620349,31.3231049 48.8944757,31.3780074 C49.4907356,31.4285754 50.1173875,31.0529271 50.3286835,30.4591137 C50.4242009,30.1918255 50.4444621,29.8869724 50.4444621,29.5980122 C50.4516983,23.7480116 50.4502511,17.898011 50.4473566,12.0494552 C50.4473566,11.7171509 50.5009042,11.3617297 50.4053869,11.0554319 C50.0320008,9.86202596 50.306975,8.94602191 51.3055658,8.14271237" id="Fill-15" fill="#030303"></path>
            <path d="M143.428166,20.2810663 C142.703102,20.2666183 141.976591,20.2565047 141.252975,20.2854007 C140.824594,20.3012935 140.588695,20.2203846 140.478705,19.7363762 C140.325298,19.0659884 139.750747,18.6888952 139.090809,18.6874504 C138.427976,18.6874504 137.857766,19.05443 137.700018,19.7277074 C137.579898,20.239167 137.304923,20.2854007 136.872201,20.2839559 C133.539223,20.2723975 130.206246,20.2781767 126.874715,20.2781767 C123.855788,20.2781767 120.83686,20.2767319 117.817932,20.2781767 C117.366395,20.2781767 116.914858,20.2593943 116.466216,20.2897351 C115.739705,20.3388583 115.17239,20.9066653 115.107264,21.6059491 C115.039244,22.334129 115.513937,22.9987376 116.253473,23.1591105 C116.516869,23.2169026 116.797632,23.214013 117.071159,23.214013 C122.715368,23.2169026 128.362471,23.2169026 134.008127,23.2169026 C135.026979,23.2169026 136.045831,23.2299058 137.06613,23.2111234 C137.468461,23.2038994 137.62042,23.3426003 137.611737,23.7543687 C137.588581,24.7715088 137.616078,25.7900938 137.598712,26.8086787 C137.581345,27.7896988 136.957587,28.3965154 135.961891,28.4239666 C135.550877,28.4369698 135.138416,28.4181874 134.727401,28.4326354 C133.867745,28.4600866 133.252671,29.0510104 133.233857,29.8528751 C133.215043,30.6431814 133.817092,31.2745596 134.675301,31.3294621 C135.105129,31.3583581 135.536405,31.3467997 135.96768,31.3410205 C138.645061,31.3077901 140.543831,29.4020971 140.564092,26.7277698 C140.569881,25.7698665 140.5858,24.8090737 140.555409,23.8526152 C140.539489,23.3758307 140.679871,23.185117 141.179166,23.206789 C141.941858,23.2414642 142.708891,23.235685 143.47303,23.2082338 C144.354395,23.1764482 144.983941,22.530622 144.974049,21.7200884 C144.96368,20.9095549 144.316767,20.2984039 143.428166,20.2810663" id="Fill-17" fill="#030303"></path>
            <path d="M105.78665,20.6753526 C105.579696,20.1133248 105.135395,19.8041374 104.537688,19.7463453 C104.246794,19.7188941 103.950111,19.7333421 103.656323,19.7318973 C102.996385,19.7304525 102.337894,19.7318973 101.677956,19.7318973 C101.620066,19.6307612 101.562177,19.5296251 101.502841,19.428489 C101.718478,19.2912329 101.965955,19.1857624 102.143965,19.0109414 C102.860345,18.3145472 103.570936,17.6123737 104.249689,16.8813043 C104.835818,16.2499261 104.803979,15.3801557 104.22798,14.8282416 C103.679479,14.3023339 102.789431,14.2777723 102.207643,14.8484688 C100.405838,16.6183504 98.6213997,18.4055697 96.8470921,20.2014577 C96.4317363,20.6218949 96.3145104,21.1478026 96.5547511,21.7213887 C96.8007807,22.3094229 97.2595535,22.5969383 97.8760747,22.6316136 C98.3261642,22.6561752 98.7777009,22.6402824 99.2277903,22.6402824 C99.7097189,22.6417272 100.191647,22.6402824 100.851586,22.6402824 C100.578059,22.9379115 100.443466,23.09395 100.298743,23.2413197 C99.5563122,23.9940612 98.7936204,24.7294651 98.0728984,25.500989 C97.4997942,26.1164744 97.5258444,26.9573488 98.0772401,27.5107077 C98.6213997,28.0568426 99.511448,28.1131898 100.094683,27.5424933 C101.915302,25.7639429 103.708424,23.9564964 105.501545,22.1504947 C105.912559,21.7358367 105.982026,21.2055947 105.78665,20.6753526" id="Fill-19" fill="#030303"></path>
            <path d="M124.378094,24.7684747 C124.090095,24.5084105 123.693553,24.3682648 123.498176,24.2584599 C122.689173,24.2974695 122.215928,24.5503097 121.962662,25.0949998 C121.693477,25.6743652 121.752813,26.2580649 122.207244,26.7290701 C122.926519,27.4774772 123.666055,28.2042123 124.417169,28.9208338 C125.098816,29.5709944 125.971497,29.5782184 126.567757,28.9714018 C127.152439,28.3761437 127.124942,27.4847012 126.475134,26.8229822 C125.789146,26.1236984 125.103158,25.4244145 124.378094,24.7684747" id="Fill-21" fill="#030303"></path>
            <path d="M106.05873,5.12047695 C106.92707,5.12047695 107.628978,4.43275151 107.642003,3.56876031 C107.653581,2.71488273 106.95312,1.99103726 106.094911,1.97369964 C105.24249,1.95491723 104.508743,2.64986667 104.481246,3.50374425 C104.453748,4.38362827 105.171576,5.11903214 106.05873,5.12047695" id="Fill-23" fill="#030303"></path>
            <path d="M21.7370047,11.2877559 C20.2564854,10.727173 18.6037454,11.1317174 17.5834461,12.3626881 C17.2390047,12.7773461 17.0552061,12.8640342 16.6716894,12.3886945 C15.6933599,11.1736166 14.0898258,10.7459554 12.6411456,11.2342983 C11.1939127,11.7226411 10.1982164,13.0272967 10.1287492,14.5270005 C10.0549403,16.1133924 10.8740742,17.5191841 12.3806437,18.094215 C13.0666321,18.3571688 13.1476772,18.6764699 13.0926823,19.3338545 C12.9566424,20.973704 13.5702692,22.3347069 14.9654017,23.2564901 C16.2490974,24.1031437 17.638441,24.1696046 18.9771315,23.4269767 C20.6631578,22.4907454 21.3115182,20.9693696 21.1277196,19.0853487 C21.0828554,18.6186779 21.136403,18.3672824 21.6660903,18.1924615 C23.1639764,17.6968946 24.0988889,16.3041061 24.1017969,14.7379415 C24.1046778,13.1818905 23.1827904,11.8353356 21.7370047,11.2877559" id="Fill-25" fill="#FFBC97"></path>
        </g>
    </g>
</svg>